solid test_0
 facet normal 0 -1 0
  outer loop
   vertex 0.128295 0.104482 0
   vertex 0.128295 0.104482 0.01
   vertex 0.128148 0.104482 0
  endloop
 endfacet
 facet normal 0 1 0
  outer loop
   vertex 0.128295 0.104482 0.01
   vertex 0.128148 0.104482 0
   vertex 0.128148 0.104482 0.01
  endloop
 endfacet
 facet normal 0 -1 0
  outer loop
   vertex 0.128148 0.104482 0
   vertex 0.128148 0.104482 0.01
   vertex 0.128 0.104482 0
  endloop
 endfacet
 facet normal 0 1 0
  outer loop
   vertex 0.128148 0.104482 0.01
   vertex 0.128 0.104482 0
   vertex 0.127851 0.104482 0.01
  endloop
 endfacet
 facet normal 0 -1 0
  outer loop
   vertex 0.128 0.104482 0
   vertex 0.127851 0.104482 0.01
   vertex 0.127701 0.104482 0
  endloop
 endfacet
 facet normal -0.00333052 0.999994 4.99561e-05
  outer loop
   vertex 0.127851 0.104482 0.01
   vertex 0.127701 0.104482 0
   vertex 0.127549 0.104481 0.01
  endloop
 endfacet
 facet normal 0.00328705 -0.999995 -5.06169e-05
  outer loop
   vertex 0.127701 0.104482 0
   vertex 0.127549 0.104481 0.01
   vertex 0.127395 0.104481 0
  endloop
 endfacet
 facet normal 0 1 0
  outer loop
   vertex 0.127549 0.104481 0.01
   vertex 0.127395 0.104481 0
   vertex 0.127237 0.104481 0.01
  endloop
 endfacet
 facet normal 0 -1 0
  outer loop
   vertex 0.127395 0.104481 0
   vertex 0.127237 0.104481 0.01
   vertex 0.127075 0.104481 0
  endloop
 endfacet
 facet normal -0.00303454 0.999995 4.91613e-05
  outer loop
   vertex 0.127237 0.104481 0.01
   vertex 0.127075 0.104481 0
   vertex 0.126908 0.10448 0.01
  endloop
 endfacet
 facet normal 0.00589001 -0.999983 -1.4745e-06
  outer loop
   vertex 0.127075 0.104481 0
   vertex 0.126908 0.10448 0.01
   vertex 0.126736 0.104479 0
  endloop
 endfacet
 facet normal -0.00568872 0.999984 -1.98782e-06
  outer loop
   vertex 0.126908 0.10448 0.01
   vertex 0.126736 0.104479 0
   vertex 0.126557 0.104478 0.01
  endloop
 endfacet
 facet normal 0.0054555 -0.999985 -2.18679e-06
  outer loop
   vertex 0.126736 0.104479 0
   vertex 0.126557 0.104478 0.01
   vertex 0.12637 0.104477 0
  endloop
 endfacet
 facet normal -0.0078598 0.999969 4.7151e-05
  outer loop
   vertex 0.126557 0.104478 0.01
   vertex 0.12637 0.104477 0
   vertex 0.126175 0.104475 0.01
  endloop
 endfacet
 facet normal 0.0100021 -0.99995 -5.3729e-06
  outer loop
   vertex 0.12637 0.104477 0
   vertex 0.126175 0.104475 0.01
   vertex 0.12597 0.104473 0
  endloop
 endfacet
 facet normal -0.00954827 0.999954 -3.93147e-06
  outer loop
   vertex 0.126175 0.104475 0.01
   vertex 0.12597 0.104473 0
   vertex 0.125756 0.104471 0.01
  endloop
 endfacet
 facet normal 0.0113872 -0.999935 4.32904e-05
  outer loop
   vertex 0.12597 0.104473 0
   vertex 0.125756 0.104471 0.01
   vertex 0.125531 0.104468 0
  endloop
 endfacet
 facet normal -0.0151743 0.999885 4.19307e-05
  outer loop
   vertex 0.125756 0.104471 0.01
   vertex 0.125531 0.104468 0
   vertex 0.125295 0.104464 0.01
  endloop
 endfacet
 facet normal 0.0165305 -0.999863 -9.91452e-06
  outer loop
   vertex 0.125531 0.104468 0
   vertex 0.125295 0.104464 0.01
   vertex 0.125047 0.10446 0
  endloop
 endfacet
 facet normal -0.0177145 0.999843 3.92864e-05
  outer loop
   vertex 0.125295 0.104464 0.01
   vertex 0.125047 0.10446 0
   vertex 0.124787 0.104455 0.01
  endloop
 endfacet
 facet normal 0.020642 -0.999787 3.68544e-05
  outer loop
   vertex 0.125047 0.10446 0
   vertex 0.124787 0.104455 0.01
   vertex 0.124514 0.104449 0
  endloop
 endfacet
 facet normal -0.021467 0.99977 -1.43194e-05
  outer loop
   vertex 0.124787 0.104455 0.01
   vertex 0.124514 0.104449 0
   vertex 0.124228 0.104443 0.01
  endloop
 endfacet
 facet normal 0.0238835 -0.999715 8.34637e-05
  outer loop
   vertex 0.124514 0.104449 0
   vertex 0.124228 0.104443 0.01
   vertex 0.123928 0.104435 0
  endloop
 endfacet
 facet normal -0.0260862 0.99966 -1.73398e-05
  outer loop
   vertex 0.124228 0.104443 0.01
   vertex 0.123928 0.104435 0
   vertex 0.123615 0.104427 0.01
  endloop
 endfacet
 facet normal 0.0265448 -0.999648 3.17027e-05
  outer loop
   vertex 0.123928 0.104435 0
   vertex 0.123615 0.104427 0.01
   vertex 0.123288 0.104418 0
  endloop
 endfacet
 facet normal -0.0284302 0.999596 2.99981e-05
  outer loop
   vertex 0.123615 0.104427 0.01
   vertex 0.123288 0.104418 0
   vertex 0.122947 0.104408 0.01
  endloop
 endfacet
 facet normal 0.0315958 -0.999501 7.80438e-05
  outer loop
   vertex 0.123288 0.104418 0
   vertex 0.122947 0.104408 0.01
   vertex 0.122592 0.104396 0
  endloop
 endfacet
 facet normal -0.0331388 0.999451 -2.32089e-05
  outer loop
   vertex 0.122947 0.104408 0.01
   vertex 0.122592 0.104396 0
   vertex 0.122223 0.104384 0.01
  endloop
 endfacet
 facet normal 0.0332759 -0.999446 2.82722e-05
  outer loop
   vertex 0.122592 0.104396 0
   vertex 0.122223 0.104384 0.01
   vertex 0.121841 0.104371 0
  endloop
 endfacet
 facet normal -0.0360118 0.999351 7.63631e-05
  outer loop
   vertex 0.122223 0.104384 0.01
   vertex 0.121841 0.104371 0
   vertex 0.121446 0.104356 0.01
  endloop
 endfacet
 facet normal 0.0385695 -0.999256 2.48091e-05
  outer loop
   vertex 0.121841 0.104371 0
   vertex 0.121446 0.104356 0.01
   vertex 0.121038 0.10434 0
  endloop
 endfacet
 facet normal -0.0409754 0.99916 7.35048e-05
  outer loop
   vertex 0.121446 0.104356 0.01
   vertex 0.121038 0.10434 0
   vertex 0.120617 0.104322 0.01
  endloop
 endfacet
 facet normal 0.043234 -0.999065 2.17513e-05
  outer loop
   vertex 0.121038 0.10434 0
   vertex 0.120617 0.104322 0.01
   vertex 0.120183 0.104303 0
  endloop
 endfacet
 facet normal -0.0443797 0.999015 2.80715e-05
  outer loop
   vertex 0.120617 0.104322 0.01
   vertex 0.120183 0.104303 0
   vertex 0.119739 0.104283 0.01
  endloop
 endfacet
 facet normal 0.0455089 -0.998964 2.21661e-05
  outer loop
   vertex 0.120183 0.104303 0
   vertex 0.119739 0.104283 0.01
   vertex 0.119283 0.104262 0
  endloop
 endfacet
 facet normal -0.0486898 0.998814 0.000123197
  outer loop
   vertex 0.119739 0.104283 0.01
   vertex 0.119283 0.104262 0
   vertex 0.118816 0.104238 0.01
  endloop
 endfacet
 facet normal 0.05084 -0.998707 -2.25257e-05
  outer loop
   vertex 0.119283 0.104262 0
   vertex 0.118816 0.104238 0.01
   vertex 0.11834 0.104214 0
  endloop
 endfacet
 facet normal -0.0519594 0.998649 7.59484e-05
  outer loop
   vertex 0.118816 0.104238 0.01
   vertex 0.11834 0.104214 0
   vertex 0.117855 0.104188 0.01
  endloop
 endfacet
 facet normal 0.055125 -0.998479 7.80232e-05
  outer loop
   vertex 0.11834 0.104214 0
   vertex 0.117855 0.104188 0.01
   vertex 0.117362 0.10416 0
  endloop
 endfacet
 facet normal -0.0572546 0.99836 2.73016e-05
  outer loop
   vertex 0.117855 0.104188 0.01
   vertex 0.117362 0.10416 0
   vertex 0.116861 0.104131 0.01
  endloop
 endfacet
 facet normal 0.0594257 -0.998233 8.18404e-05
  outer loop
   vertex 0.117362 0.10416 0
   vertex 0.116861 0.104131 0.01
   vertex 0.116354 0.1041 0
  endloop
 endfacet
 facet normal -0.0626225 0.998037 8.08389e-05
  outer loop
   vertex 0.116861 0.104131 0.01
   vertex 0.116354 0.1041 0
   vertex 0.115841 0.104067 0.01
  endloop
 endfacet
 facet normal 0.0648442 -0.997895 3.36049e-05
  outer loop
   vertex 0.116354 0.1041 0
   vertex 0.115841 0.104067 0.01
   vertex 0.115323 0.104033 0
  endloop
 endfacet
 facet normal -0.0671538 0.997743 8.65501e-05
  outer loop
   vertex 0.115841 0.104067 0.01
   vertex 0.115323 0.104033 0
   vertex 0.114801 0.103997 0.01
  endloop
 endfacet
 facet normal 0.0705014 -0.997512 8.90313e-05
  outer loop
   vertex 0.115323 0.104033 0
   vertex 0.114801 0.103997 0.01
   vertex 0.114276 0.103959 0
  endloop
 endfacet
 facet normal -0.0730698 0.997327 4.65094e-05
  outer loop
   vertex 0.114801 0.103997 0.01
   vertex 0.114276 0.103959 0
   vertex 0.11375 0.10392 0.01
  endloop
 endfacet
 facet normal 0.075688 -0.997132 9.19667e-05
  outer loop
   vertex 0.114276 0.103959 0
   vertex 0.11375 0.10392 0.01
   vertex 0.113222 0.103879 0
  endloop
 endfacet
 facet normal -0.07843 0.99692 5.36803e-05
  outer loop
   vertex 0.11375 0.10392 0.01
   vertex 0.113222 0.103879 0
   vertex 0.112695 0.103837 0.01
  endloop
 endfacet
 facet normal 0.0823405 -0.996604 0.00015373
  outer loop
   vertex 0.113222 0.103879 0
   vertex 0.112695 0.103837 0.01
   vertex 0.112169 0.103792 0
  endloop
 endfacet
 facet normal -0.0853967 0.996347 8.18646e-06
  outer loop
   vertex 0.112695 0.103837 0.01
   vertex 0.112169 0.103792 0
   vertex 0.111645 0.103747 0.01
  endloop
 endfacet
 facet normal 0.0887275 -0.996056 0.000167658
  outer loop
   vertex 0.112169 0.103792 0
   vertex 0.111645 0.103747 0.01
   vertex 0.111125 0.103699 0
  endloop
 endfacet
 facet normal -0.0932212 0.995645 6.79793e-05
  outer loop
   vertex 0.111645 0.103747 0.01
   vertex 0.111125 0.103699 0
   vertex 0.110609 0.10365 0.01
  endloop
 endfacet
 facet normal 0.096914 -0.995293 0.000124299
  outer loop
   vertex 0.111125 0.103699 0
   vertex 0.110609 0.10365 0.01
   vertex 0.110098 0.103599 0
  endloop
 endfacet
 facet normal -0.101832 0.994802 0.000129524
  outer loop
   vertex 0.110609 0.10365 0.01
   vertex 0.110098 0.103599 0
   vertex 0.109593 0.103546 0.01
  endloop
 endfacet
 facet normal 0.106181 -0.994347 9.24896e-05
  outer loop
   vertex 0.110098 0.103599 0
   vertex 0.109593 0.103546 0.01
   vertex 0.109096 0.103492 0
  endloop
 endfacet
 facet normal -0.109881 0.993945 9.35795e-05
  outer loop
   vertex 0.109593 0.103546 0.01
   vertex 0.109096 0.103492 0
   vertex 0.108607 0.103437 0.01
  endloop
 endfacet
 facet normal 0.114933 -0.993373 0.000156592
  outer loop
   vertex 0.109096 0.103492 0
   vertex 0.108607 0.103437 0.01
   vertex 0.108128 0.10338 0
  endloop
 endfacet
 facet normal -0.121454 0.992597 0.000160233
  outer loop
   vertex 0.108607 0.103437 0.01
   vertex 0.108128 0.10338 0
   vertex 0.107659 0.103321 0.01
  endloop
 endfacet
 facet normal 0.127328 -0.991861 0.000119572
  outer loop
   vertex 0.108128 0.10338 0
   vertex 0.107659 0.103321 0.01
   vertex 0.107201 0.103261 0
  endloop
 endfacet
 facet normal -0.133893 0.990996 0.000186297
  outer loop
   vertex 0.107659 0.103321 0.01
   vertex 0.107201 0.103261 0
   vertex 0.106756 0.103199 0.01
  endloop
 endfacet
 facet normal 0.140945 -0.990017 0.000133587
  outer loop
   vertex 0.107201 0.103261 0
   vertex 0.106756 0.103199 0.01
   vertex 0.106323 0.103136 0
  endloop
 endfacet
 facet normal -0.148738 0.988877 0.000211058
  outer loop
   vertex 0.106756 0.103199 0.01
   vertex 0.106323 0.103136 0
   vertex 0.105905 0.103071 0.01
  endloop
 endfacet
 facet normal 0.157574 -0.987507 0.000167151
  outer loop
   vertex 0.106323 0.103136 0
   vertex 0.105905 0.103071 0.01
   vertex 0.105502 0.103005 0
  endloop
 endfacet
 facet normal -0.166019 0.986123 0.000182317
  outer loop
   vertex 0.105905 0.103071 0.01
   vertex 0.105502 0.103005 0
   vertex 0.105115 0.102938 0.01
  endloop
 endfacet
 facet normal 0.175337 -0.984508 0.000189148
  outer loop
   vertex 0.105502 0.103005 0
   vertex 0.105115 0.102938 0.01
   vertex 0.104744 0.10287 0
  endloop
 endfacet
 facet normal -0.187238 0.982315 0.000267254
  outer loop
   vertex 0.105115 0.102938 0.01
   vertex 0.104744 0.10287 0
   vertex 0.104391 0.1028 0.01
  endloop
 endfacet
 facet normal 0.201854 -0.979416 0.000269016
  outer loop
   vertex 0.104744 0.10287 0
   vertex 0.104391 0.1028 0.01
   vertex 0.104055 0.102728 0
  endloop
 endfacet
 facet normal -0.215658 0.976469 0.000215993
  outer loop
   vertex 0.104391 0.1028 0.01
   vertex 0.104055 0.102728 0
   vertex 0.103739 0.102656 0.01
  endloop
 endfacet
 facet normal 0.231693 -0.972789 0.000317218
  outer loop
   vertex 0.104055 0.102728 0
   vertex 0.103739 0.102656 0.01
   vertex 0.103442 0.102582 0
  endloop
 endfacet
 facet normal -0.251249 0.967922 0.000299627
  outer loop
   vertex 0.103739 0.102656 0.01
   vertex 0.103442 0.102582 0
   vertex 0.103165 0.102507 0.01
  endloop
 endfacet
 facet normal 0.272576 -0.962134 0.000334534
  outer loop
   vertex 0.103442 0.102582 0
   vertex 0.103165 0.102507 0.01
   vertex 0.102909 0.102431 0
  endloop
 endfacet
 facet normal -0.299276 0.954166 0.00040955
  outer loop
   vertex 0.103165 0.102507 0.01
   vertex 0.102909 0.102431 0
   vertex 0.102674 0.102353 0.01
  endloop
 endfacet
 facet normal 0.331383 -0.943496 0.000428188
  outer loop
   vertex 0.102909 0.102431 0
   vertex 0.102674 0.102353 0.01
   vertex 0.102462 0.102274 0
  endloop
 endfacet
 facet normal -0.367013 0.930216 0.000432067
  outer loop
   vertex 0.102674 0.102353 0.01
   vertex 0.102462 0.102274 0
   vertex 0.102271 0.102194 0.01
  endloop
 endfacet
 facet normal 0.410152 -0.912017 0.000537487
  outer loop
   vertex 0.102462 0.102274 0
   vertex 0.102271 0.102194 0.01
   vertex 0.102104 0.102113 0
  endloop
 endfacet
 facet normal -0.463043 0.886336 0.000553786
  outer loop
   vertex 0.102271 0.102194 0.01
   vertex 0.102104 0.102113 0
   vertex 0.101959 0.102031 0.01
  endloop
 endfacet
 facet normal 0.530855 -0.847462 0.000748288
  outer loop
   vertex 0.102104 0.102113 0
   vertex 0.101959 0.102031 0.01
   vertex 0.101839 0.101947 0
  endloop
 endfacet
 facet normal -0.612183 0.790715 0.000704304
  outer loop
   vertex 0.101959 0.102031 0.01
   vertex 0.101839 0.101947 0
   vertex 0.101742 0.101863 0.01
  endloop
 endfacet
 facet normal 0.711262 -0.702926 0.000994228
  outer loop
   vertex 0.101839 0.101947 0
   vertex 0.101742 0.101863 0.01
   vertex 0.10167 0.101776 0
  endloop
 endfacet
 facet normal -0.825412 0.56453 0.00103173
  outer loop
   vertex 0.101742 0.101863 0.01
   vertex 0.10167 0.101776 0
   vertex 0.101623 0.101689 0.01
  endloop
 endfacet
 facet normal 0.929204 -0.369565 0.00115214
  outer loop
   vertex 0.10167 0.101776 0
   vertex 0.101623 0.101689 0.01
   vertex 0.1016 0.1016 0
  endloop
 endfacet
 facet normal -0.99319 0.116496 0.00124747
  outer loop
   vertex 0.101623 0.101689 0.01
   vertex 0.1016 0.1016 0
   vertex 0.101602 0.10151 0.01
  endloop
 endfacet
 facet normal 0.986681 0.162663 0.00126614
  outer loop
   vertex 0.1016 0.1016 0
   vertex 0.101602 0.10151 0.01
   vertex 0.10163 0.101418 0
  endloop
 endfacet
 facet normal -0.914234 -0.405185 0.0011679
  outer loop
   vertex 0.101602 0.10151 0.01
   vertex 0.10163 0.101418 0
   vertex 0.101684 0.101325 0.01
  endloop
 endfacet
 facet normal 0.818425 0.574613 0.000925192
  outer loop
   vertex 0.10163 0.101418 0
   vertex 0.101684 0.101325 0.01
   vertex 0.101762 0.10123 0
  endloop
 endfacet
 facet normal -0.722056 -0.691833 0.000940016
  outer loop
   vertex 0.101684 0.101325 0.01
   vertex 0.101762 0.10123 0
   vertex 0.101867 0.101134 0.01
  endloop
 endfacet
 facet normal 0.636628 0.771171 0.000718638
  outer loop
   vertex 0.101762 0.10123 0
   vertex 0.101867 0.101134 0.01
   vertex 0.101997 0.101036 0
  endloop
 endfacet
 facet normal -0.569201 -0.822198 0.000658041
  outer loop
   vertex 0.101867 0.101134 0.01
   vertex 0.101997 0.101036 0
   vertex 0.102153 0.100936 0.01
  endloop
 endfacet
 facet normal 0.513006 0.858385 0.000580443
  outer loop
   vertex 0.101997 0.101036 0
   vertex 0.102153 0.100936 0.01
   vertex 0.102335 0.100834 0
  endloop
 endfacet
 facet normal -0.469767 -0.88279 0.000455432
  outer loop
   vertex 0.102153 0.100936 0.01
   vertex 0.102335 0.100834 0
   vertex 0.102542 0.100729 0.01
  endloop
 endfacet
 facet normal 0.431601 0.902064 0.000536979
  outer loop
   vertex 0.102335 0.100834 0
   vertex 0.102542 0.100729 0.01
   vertex 0.102776 0.100623 0
  endloop
 endfacet
 facet normal -0.399744 -0.916627 0.000362834
  outer loop
   vertex 0.102542 0.100729 0.01
   vertex 0.102776 0.100623 0
   vertex 0.103035 0.100514 0.01
  endloop
 endfacet
 facet normal 0.375498 0.926823 0.000376294
  outer loop
   vertex 0.102776 0.100623 0
   vertex 0.103035 0.100514 0.01
   vertex 0.103319 0.100403 0
  endloop
 endfacet
 facet normal -0.354228 -0.935159 0.000320279
  outer loop
   vertex 0.103035 0.100514 0.01
   vertex 0.103319 0.100403 0
   vertex 0.103629 0.100289 0.01
  endloop
 endfacet
 facet normal 0.336711 0.941608 0.000296279
  outer loop
   vertex 0.103319 0.100403 0
   vertex 0.103629 0.100289 0.01
   vertex 0.103965 0.100172 0
  endloop
 endfacet
 facet normal -0.322347 -0.946622 0.000245026
  outer loop
   vertex 0.103629 0.100289 0.01
   vertex 0.103965 0.100172 0
   vertex 0.104325 0.100052 0.01
  endloop
 endfacet
 facet normal 0.309719 0.950828 0.000260042
  outer loop
   vertex 0.103965 0.100172 0
   vertex 0.104325 0.100052 0.01
   vertex 0.104711 0.099929 0
  endloop
 endfacet
 facet normal -0.299634 -0.954054 0.000168923
  outer loop
   vertex 0.104325 0.100052 0.01
   vertex 0.104711 0.099929 0
   vertex 0.105121 0.099802 0.01
  endloop
 endfacet
 facet normal 0.291701 0.95651 0.000187543
  outer loop
   vertex 0.104711 0.099929 0
   vertex 0.105121 0.099802 0.01
   vertex 0.105557 0.099671 0
  endloop
 endfacet
 facet normal -0.283908 -0.958852 0.000182899
  outer loop
   vertex 0.105121 0.099802 0.01
   vertex 0.105557 0.099671 0
   vertex 0.106016 0.099537 0.01
  endloop
 endfacet
 facet normal 0.277809 0.960636 0.000120956
  outer loop
   vertex 0.105557 0.099671 0
   vertex 0.106016 0.099537 0.01
   vertex 0.106501 0.099398 0
  endloop
 endfacet
 facet normal -0.273183 -0.961962 0.000121823
  outer loop
   vertex 0.106016 0.099537 0.01
   vertex 0.106501 0.099398 0
   vertex 0.107009 0.099255 0.01
  endloop
 endfacet
 facet normal 0.270318 0.962771 3.52792e-05
  outer loop
   vertex 0.106501 0.099398 0
   vertex 0.107009 0.099255 0.01
   vertex 0.107541 0.099106 0
  endloop
 endfacet
 facet normal -0.267462 -0.963568 0.000128531
  outer loop
   vertex 0.107009 0.099255 0.01
   vertex 0.107541 0.099106 0
   vertex 0.108097 0.098953 0.01
  endloop
 endfacet
 facet normal 0.264053 0.964508 7.53875e-05
  outer loop
   vertex 0.107541 0.099106 0
   vertex 0.108097 0.098953 0.01
   vertex 0.108677 0.098795 0
  endloop
 endfacet
 facet normal -0.263392 -0.964689 -3.41928e-05
  outer loop
   vertex 0.108097 0.098953 0.01
   vertex 0.108677 0.098795 0
   vertex 0.10928 0.09863 0.01
  endloop
 endfacet
 facet normal 0.262984 0.9648 6.06421e-05
  outer loop
   vertex 0.108677 0.098795 0
   vertex 0.10928 0.09863 0.01
   vertex 0.109906 0.09846 0
  endloop
 endfacet
 facet normal -0.262607 -0.964903 -3.52689e-05
  outer loop
   vertex 0.10928 0.09863 0.01
   vertex 0.109906 0.09846 0
   vertex 0.110555 0.098283 0.01
  endloop
 endfacet
 facet normal 0.262931 0.964815 1.26761e-05
  outer loop
   vertex 0.109906 0.09846 0
   vertex 0.110555 0.098283 0.01
   vertex 0.111227 0.0981 0
  endloop
 endfacet
 facet normal -0.263891 -0.964553 -8.19824e-05
  outer loop
   vertex 0.110555 0.098283 0.01
   vertex 0.111227 0.0981 0
   vertex 0.111922 0.097909 0.01
  endloop
 endfacet
 facet normal 0.265601 0.964083 -4.58756e-05
  outer loop
   vertex 0.111227 0.0981 0
   vertex 0.111922 0.097909 0.01
   vertex 0.112639 0.097711 0
  endloop
 endfacet
 facet normal -0.266757 -0.963764 -4.33162e-05
  outer loop
   vertex 0.111922 0.097909 0.01
   vertex 0.112639 0.097711 0
   vertex 0.113378 0.097506 0.01
  endloop
 endfacet
 facet normal 0.269034 0.963131 -0.000137924
  outer loop
   vertex 0.112639 0.097711 0
   vertex 0.113378 0.097506 0.01
   vertex 0.114139 0.097292 0
  endloop
 endfacet
 facet normal -0.27217 -0.962249 -0.000119572
  outer loop
   vertex 0.113378 0.097506 0.01
   vertex 0.114139 0.097292 0
   vertex 0.114923 0.097069 0.01
  endloop
 endfacet
 facet normal 0.27528 0.961364 -0.000144001
  outer loop
   vertex 0.114139 0.097292 0
   vertex 0.114923 0.097069 0.01
   vertex 0.115728 0.096837 0
  endloop
 endfacet
 facet normal -0.278373 -0.960473 -0.000125638
  outer loop
   vertex 0.114923 0.097069 0.01
   vertex 0.115728 0.096837 0
   vertex 0.116555 0.096596 0.01
  endloop
 endfacet
 facet normal 0.281824 0.959466 -0.000184067
  outer loop
   vertex 0.115728 0.096837 0
   vertex 0.116555 0.096596 0.01
   vertex 0.117403 0.096345 0
  endloop
 endfacet
 facet normal -0.285456 -0.958392 -0.000150859
  outer loop
   vertex 0.116555 0.096596 0.01
   vertex 0.117403 0.096345 0
   vertex 0.118274 0.096084 0.01
  endloop
 endfacet
 facet normal 0.289042 0.957316 -0.000189591
  outer loop
   vertex 0.117403 0.096345 0
   vertex 0.118274 0.096084 0.01
   vertex 0.119165 0.095813 0
  endloop
 endfacet
 facet normal -0.293563 -0.95594 -0.000250513
  outer loop
   vertex 0.118274 0.096084 0.01
   vertex 0.119165 0.095813 0
   vertex 0.120078 0.09553 0.01
  endloop
 endfacet
 facet normal 0.298511 0.954406 -0.00024464
  outer loop
   vertex 0.119165 0.095813 0
   vertex 0.120078 0.09553 0.01
   vertex 0.121013 0.095235 0
  endloop
 endfacet
 facet normal -0.302892 -0.953025 -0.000205697
  outer loop
   vertex 0.120078 0.09553 0.01
   vertex 0.121013 0.095235 0
   vertex 0.121969 0.094929 0.01
  endloop
 endfacet
 facet normal 0.307649 0.9515 -0.000295808
  outer loop
   vertex 0.121013 0.095235 0
   vertex 0.121969 0.094929 0.01
   vertex 0.122946 0.09461 0
  endloop
 endfacet
 facet normal -0.312477 -0.949925 -0.000226105
  outer loop
   vertex 0.121969 0.094929 0.01
   vertex 0.122946 0.09461 0
   vertex 0.123945 0.094279 0.01
  endloop
 endfacet
 facet normal 0.317496 0.94826 -0.000330344
  outer loop
   vertex 0.122946 0.09461 0
   vertex 0.123945 0.094279 0.01
   vertex 0.124965 0.093934 0
  endloop
 endfacet
 facet normal -0.322691 -0.946504 -0.000260182
  outer loop
   vertex 0.123945 0.094279 0.01
   vertex 0.124965 0.093934 0
   vertex 0.126007 0.093576 0.01
  endloop
 endfacet
 facet normal 0.327651 0.944799 -0.000317623
  outer loop
   vertex 0.124965 0.093934 0
   vertex 0.126007 0.093576 0.01
   vertex 0.12707 0.093204 0
  endloop
 endfacet
 facet normal -0.332776 -0.943006 -0.000293884
  outer loop
   vertex 0.126007 0.093576 0.01
   vertex 0.12707 0.093204 0
   vertex 0.128155 0.092818 0.01
  endloop
 endfacet
 facet normal 0.338048 0.941129 -0.000350623
  outer loop
   vertex 0.12707 0.093204 0
   vertex 0.128155 0.092818 0.01
   vertex 0.129261 0.092417 0
  endloop
 endfacet
 facet normal -0.343327 -0.939216 -0.000309971
  outer loop
   vertex 0.128155 0.092818 0.01
   vertex 0.129261 0.092417 0
   vertex 0.13039 0.092001 0.01
  endloop
 endfacet
 facet normal 0.348374 0.937355 -0.000337205
  outer loop
   vertex 0.129261 0.092417 0
   vertex 0.13039 0.092001 0.01
   vertex 0.13154 0.09157 0
  endloop
 endfacet
 facet normal -0.353549 -0.935416 -0.000341453
  outer loop
   vertex 0.13039 0.092001 0.01
   vertex 0.13154 0.09157 0
   vertex 0.132713 0.091123 0.01
  endloop
 endfacet
 facet normal 0.358846 0.933397 -0.000370185
  outer loop
   vertex 0.13154 0.09157 0
   vertex 0.132713 0.091123 0.01
   vertex 0.133907 0.09066 0
  endloop
 endfacet
 facet normal -0.363919 -0.93143 -0.000326606
  outer loop
   vertex 0.132713 0.091123 0.01
   vertex 0.133907 0.09066 0
   vertex 0.135124 0.090181 0.01
  endloop
 endfacet
 facet normal 0.368846 0.929491 -0.000365861
  outer loop
   vertex 0.133907 0.09066 0
   vertex 0.135124 0.090181 0.01
   vertex 0.136364 0.089685 0
  endloop
 endfacet
 facet normal -0.373691 -0.927553 -0.000330993
  outer loop
   vertex 0.135124 0.090181 0.01
   vertex 0.136364 0.089685 0
   vertex 0.137626 0.089173 0.01
  endloop
 endfacet
 facet normal 0.378464 0.925616 -0.000370615
  outer loop
   vertex 0.136364 0.089685 0
   vertex 0.137626 0.089173 0.01
   vertex 0.13891 0.088644 0
  endloop
 endfacet
 facet normal -0.383097 -0.923708 -0.000325143
  outer loop
   vertex 0.137626 0.089173 0.01
   vertex 0.13891 0.088644 0
   vertex 0.140218 0.088098 0.01
  endloop
 endfacet
 facet normal 0.387541 0.921853 -0.000357442
  outer loop
   vertex 0.13891 0.088644 0
   vertex 0.140218 0.088098 0.01
   vertex 0.141548 0.087535 0
  endloop
 endfacet
 facet normal -0.391807 -0.920047 -0.00031157
  outer loop
   vertex 0.140218 0.088098 0.01
   vertex 0.141548 0.087535 0
   vertex 0.142902 0.086955 0.01
  endloop
 endfacet
 facet normal 0.395783 0.918344 -0.000325692
  outer loop
   vertex 0.141548 0.087535 0
   vertex 0.142902 0.086955 0.01
   vertex 0.144279 0.086358 0
  endloop
 endfacet
 facet normal -0.39985 -0.916581 -0.000339479
  outer loop
   vertex 0.142902 0.086955 0.01
   vertex 0.144279 0.086358 0
   vertex 0.145678 0.085744 0.01
  endloop
 endfacet
 facet normal 0.403913 0.914797 -0.000338533
  outer loop
   vertex 0.144279 0.086358 0
   vertex 0.145678 0.085744 0.01
   vertex 0.147101 0.085112 0
  endloop
 endfacet
 facet normal -0.407319 -0.913286 -0.000241564
  outer loop
   vertex 0.145678 0.085744 0.01
   vertex 0.147101 0.085112 0
   vertex 0.148548 0.084464 0.01
  endloop
 endfacet
 facet normal 0.410574 0.911827 -0.00032395
  outer loop
   vertex 0.147101 0.085112 0
   vertex 0.148548 0.084464 0.01
   vertex 0.150017 0.083799 0
  endloop
 endfacet
 facet normal -0.413965 -0.910293 -0.000276325
  outer loop
   vertex 0.148548 0.084464 0.01
   vertex 0.150017 0.083799 0
   vertex 0.15151 0.083117 0.01
  endloop
 endfacet
 facet normal 0.416622 0.90908 -0.000203099
  outer loop
   vertex 0.150017 0.083799 0
   vertex 0.15151 0.083117 0.01
   vertex 0.153026 0.08242 0
  endloop
 endfacet
 facet normal -0.419302 -0.907847 -0.00028908
  outer loop
   vertex 0.15151 0.083117 0.01
   vertex 0.153026 0.08242 0
   vertex 0.154565 0.081706 0.01
  endloop
 endfacet
 facet normal 0.422004 0.906594 -0.000216114
  outer loop
   vertex 0.153026 0.08242 0
   vertex 0.154565 0.081706 0.01
   vertex 0.156126 0.080977 0
  endloop
 endfacet
 facet normal -0.424383 -0.905483 -0.000236342
  outer loop
   vertex 0.154565 0.081706 0.01
   vertex 0.156126 0.080977 0
   vertex 0.15771 0.080232 0.01
  endloop
 endfacet
 facet normal 0.426454 0.904509 -0.000164186
  outer loop
   vertex 0.156126 0.080977 0
   vertex 0.15771 0.080232 0.01
   vertex 0.159316 0.079473 0
  endloop
 endfacet
 facet normal -0.427775 -0.903885 -9.54645e-05
  outer loop
   vertex 0.15771 0.080232 0.01
   vertex 0.159316 0.079473 0
   vertex 0.160945 0.078701 0.01
  endloop
 endfacet
 facet normal 0.42927 0.903176 -0.000202674
  outer loop
   vertex 0.159316 0.079473 0
   vertex 0.160945 0.078701 0.01
   vertex 0.162594 0.077915 0
  endloop
 endfacet
 facet normal -0.430829 -0.902434 -0.000112854
  outer loop
   vertex 0.160945 0.078701 0.01
   vertex 0.162594 0.077915 0
   vertex 0.164265 0.077116 0.01
  endloop
 endfacet
 facet normal 0.431692 0.902021 -6.43435e-05
  outer loop
   vertex 0.162594 0.077915 0
   vertex 0.164265 0.077116 0.01
   vertex 0.165956 0.076306 0
  endloop
 endfacet
 facet normal -0.432094 -0.901829 -1.91538e-05
  outer loop
   vertex 0.164265 0.077116 0.01
   vertex 0.165956 0.076306 0
   vertex 0.167667 0.075486 0.01
  endloop
 endfacet
 facet normal 0.43269 0.901543 -0.000106282
  outer loop
   vertex 0.165956 0.076306 0
   vertex 0.167667 0.075486 0.01
   vertex 0.169396 0.074655 0
  endloop
 endfacet
 facet normal -0.43295 -0.901418 5.09624e-05
  outer loop
   vertex 0.167667 0.075486 0.01
   vertex 0.169396 0.074655 0
   vertex 0.171144 0.073816 0.01
  endloop
 endfacet
 facet normal 0.43268 0.901548 7.10695e-06
  outer loop
   vertex 0.169396 0.074655 0
   vertex 0.171144 0.073816 0.01
   vertex 0.172909 0.072969 0
  endloop
 endfacet
 facet normal -0.432408 -0.901678 5.18619e-05
  outer loop
   vertex 0.171144 0.073816 0.01
   vertex 0.172909 0.072969 0
   vertex 0.174691 0.072115 0.01
  endloop
 endfacet
 facet normal 0.431616 0.902058 0.000121844
  outer loop
   vertex 0.172909 0.072969 0
   vertex 0.174691 0.072115 0.01
   vertex 0.176487 0.071257 0
  endloop
 endfacet
 facet normal -0.430517 -0.902583 0.000120618
  outer loop
   vertex 0.174691 0.072115 0.01
   vertex 0.176487 0.071257 0
   vertex 0.178297 0.070395 0.01
  endloop
 endfacet
 facet normal 0.429325 0.90315 0.000143995
  outer loop
   vertex 0.176487 0.071257 0
   vertex 0.178297 0.070395 0.01
   vertex 0.18012 0.06953 0
  endloop
 endfacet
 facet normal -0.427832 -0.903858 0.000189469
  outer loop
   vertex 0.178297 0.070395 0.01
   vertex 0.18012 0.06953 0
   vertex 0.181954 0.068664 0.01
  endloop
 endfacet
 facet normal 0.425727 0.904852 0.000282576
  outer loop
   vertex 0.18012 0.06953 0
   vertex 0.181954 0.068664 0.01
   vertex 0.183797 0.0678 0
  endloop
 endfacet
 facet normal -0.423517 -0.905888 0.000214353
  outer loop
   vertex 0.181954 0.068664 0.01
   vertex 0.183797 0.0678 0
   vertex 0.185648 0.066937 0.01
  endloop
 endfacet
 facet normal 0.421091 0.907018 0.00033214
  outer loop
   vertex 0.183797 0.0678 0
   vertex 0.185648 0.066937 0.01
   vertex 0.187504 0.066079 0
  endloop
 endfacet
 facet normal -0.418142 -0.908381 0.000332081
  outer loop
   vertex 0.185648 0.066937 0.01
   vertex 0.187504 0.066079 0
   vertex 0.189365 0.065226 0.01
  endloop
 endfacet
 facet normal 0.414666 0.909973 0.000450562
  outer loop
   vertex 0.187504 0.066079 0
   vertex 0.189365 0.065226 0.01
   vertex 0.191228 0.064382 0
  endloop
 endfacet
 facet normal -0.411127 -0.911578 0.000344196
  outer loop
   vertex 0.189365 0.065226 0.01
   vertex 0.191228 0.064382 0
   vertex 0.19309 0.063546 0.01
  endloop
 endfacet
 facet normal 0.407323 0.913284 0.000506792
  outer loop
   vertex 0.191228 0.064382 0
   vertex 0.19309 0.063546 0.01
   vertex 0.19495 0.062722 0
  endloop
 endfacet
 facet normal -0.402616 -0.915369 0.000540592
  outer loop
   vertex 0.19309 0.063546 0.01
   vertex 0.19495 0.062722 0
   vertex 0.196805 0.061912 0.01
  endloop
 endfacet
 facet normal 0.397774 0.917483 0.000528874
  outer loop
   vertex 0.19495 0.062722 0
   vertex 0.196805 0.061912 0.01
   vertex 0.198652 0.061117 0
  endloop
 endfacet
 facet normal -0.392684 -0.919673 0.000585338
  outer loop
   vertex 0.196805 0.061912 0.01
   vertex 0.198652 0.061117 0
   vertex 0.200489 0.060339 0.01
  endloop
 endfacet
 facet normal 0.386795 0.922165 0.000690226
  outer loop
   vertex 0.198652 0.061117 0
   vertex 0.200489 0.060339 0.01
   vertex 0.202314 0.059581 0
  endloop
 endfacet
 facet normal -0.380544 -0.924763 0.000647471
  outer loop
   vertex 0.200489 0.060339 0.01
   vertex 0.202314 0.059581 0
   vertex 0.204122 0.058844 0.01
  endloop
 endfacet
 facet normal 0.374101 0.927387 0.000710837
  outer loop
   vertex 0.202314 0.059581 0
   vertex 0.204122 0.058844 0.01
   vertex 0.205911 0.05813 0
  endloop
 endfacet
 facet normal -0.366697 -0.93034 0.000824706
  outer loop
   vertex 0.204122 0.058844 0.01
   vertex 0.205911 0.05813 0
   vertex 0.207679 0.057442 0.01
  endloop
 endfacet
 facet normal 0.358747 0.933434 0.000793669
  outer loop
   vertex 0.205911 0.05813 0
   vertex 0.207679 0.057442 0.01
   vertex 0.209421 0.056781 0
  endloop
 endfacet
 facet normal -0.350411 -0.936596 0.000867478
  outer loop
   vertex 0.207679 0.057442 0.01
   vertex 0.209421 0.056781 0
   vertex 0.211135 0.056149 0.01
  endloop
 endfacet
 facet normal 0.341276 0.939963 0.000911032
  outer loop
   vertex 0.209421 0.056781 0
   vertex 0.211135 0.056149 0.01
   vertex 0.212817 0.055548 0
  endloop
 endfacet
 facet normal -0.331233 -0.943548 0.000993691
  outer loop
   vertex 0.211135 0.056149 0.01
   vertex 0.212817 0.055548 0
   vertex 0.214465 0.05498 0.01
  endloop
 endfacet
 facet normal 0.320761 0.94716 0.000937261
  outer loop
   vertex 0.212817 0.055548 0
   vertex 0.214465 0.05498 0.01
   vertex 0.216074 0.054445 0
  endloop
 endfacet
 facet normal -0.309486 -0.950903 0.00107711
  outer loop
   vertex 0.214465 0.05498 0.01
   vertex 0.216074 0.054445 0
   vertex 0.217642 0.053946 0.01
  endloop
 endfacet
 facet normal 0.297255 0.954798 0.00103505
  outer loop
   vertex 0.216074 0.054445 0
   vertex 0.217642 0.053946 0.01
   vertex 0.219164 0.053483 0
  endloop
 endfacet
 facet normal -0.284175 -0.958772 0.00113978
  outer loop
   vertex 0.217642 0.053946 0.01
   vertex 0.219164 0.053483 0
   vertex 0.220638 0.053058 0.01
  endloop
 endfacet
 facet normal 0.269975 0.962867 0.00112732
  outer loop
   vertex 0.219164 0.053483 0
   vertex 0.220638 0.053058 0.01
   vertex 0.22206 0.052671 0
  endloop
 endfacet
 facet normal -0.25475 -0.967006 0.00119783
  outer loop
   vertex 0.220638 0.053058 0.01
   vertex 0.22206 0.052671 0
   vertex 0.223428 0.052323 0.01
  endloop
 endfacet
 facet normal 0.23835 0.971179 0.00119093
  outer loop
   vertex 0.22206 0.052671 0
   vertex 0.223428 0.052323 0.01
   vertex 0.224737 0.052014 0
  endloop
 endfacet
 facet normal -0.220927 -0.97529 0.00121672
  outer loop
   vertex 0.223428 0.052323 0.01
   vertex 0.224737 0.052014 0
   vertex 0.225984 0.051744 0.01
  endloop
 endfacet
 facet normal 0.202234 0.979337 0.00122361
  outer loop
   vertex 0.224737 0.052014 0
   vertex 0.225984 0.051744 0.01
   vertex 0.227168 0.051512 0
  endloop
 endfacet
 facet normal -0.182043 -0.98329 0.00125866
  outer loop
   vertex 0.225984 0.051744 0.01
   vertex 0.227168 0.051512 0
   vertex 0.228285 0.051318 0.01
  endloop
 endfacet
 facet normal 0.160923 0.986966 0.00117172
  outer loop
   vertex 0.227168 0.051512 0
   vertex 0.228285 0.051318 0.01
   vertex 0.229333 0.051159 0
  endloop
 endfacet
 facet normal -0.138956 -0.990298 0.00118347
  outer loop
   vertex 0.228285 0.051318 0.01
   vertex 0.229333 0.051159 0
   vertex 0.230309 0.051034 0.01
  endloop
 endfacet
 facet normal 0.115767 0.993276 0.00111702
  outer loop
   vertex 0.229333 0.051159 0
   vertex 0.230309 0.051034 0.01
   vertex 0.231212 0.05094 0
  endloop
 endfacet
 facet normal -0.09204 -0.995755 0.00104881
  outer loop
   vertex 0.230309 0.051034 0.01
   vertex 0.231212 0.05094 0
   vertex 0.23204 0.050874 0.01
  endloop
 endfacet
 facet normal 0.0681952 0.997672 0.00093818
  outer loop
   vertex 0.231212 0.05094 0
   vertex 0.23204 0.050874 0.01
   vertex 0.232792 0.050832 0
  endloop
 endfacet
 facet normal -0.0447709 -0.998997 0.000828897
  outer loop
   vertex 0.23204 0.050874 0.01
   vertex 0.232792 0.050832 0
   vertex 0.233468 0.05081 0.01
  endloop
 endfacet
 facet normal 0.0243053 0.999704 0.000556116
  outer loop
   vertex 0.232792 0.050832 0
   vertex 0.233468 0.05081 0.01
   vertex 0.234067 0.050801 0
  endloop
 endfacet
 facet normal -0.00891446 -0.99996 0.000366021
  outer loop
   vertex 0.233468 0.05081 0.01
   vertex 0.234067 0.050801 0
   vertex 0.23459 0.0508 0.01
  endloop
 endfacet
 facet normal 0.00191606 0.999998 0
  outer loop
   vertex 0.234067 0.050801 0
   vertex 0.23459 0.0508 0.01
   vertex 0.23459 0.0508 0
  endloop
 endfacet
 facet normal 0 -1 0
  outer loop
   vertex 0.23459 0.0508 0.01
   vertex 0.23459 0.0508 0
   vertex 0.33619 0.0508 0.01
  endloop
 endfacet
 facet normal 0 1 0
  outer loop
   vertex 0.23459 0.0508 0
   vertex 0.33619 0.0508 0.01
   vertex 0.33619 0.0508 0
  endloop
 endfacet
 facet normal 0 1 0
  outer loop
   vertex 0.168095 0.104482 0.01
   vertex 0.168095 0.104482 0
   vertex 0.128295 0.104482 0.01
  endloop
 endfacet
 facet normal 0 -1 0
  outer loop
   vertex 0.168095 0.104482 0
   vertex 0.128295 0.104482 0.01
   vertex 0.128295 0.104482 0
  endloop
 endfacet
endsolid test_0
solid test_1
 facet normal -1 -0 -0
  outer loop
   vertex 0.33619 0.0508 0.01
   vertex 0.33619 0.0508 0
   vertex 0.33619 0 0.01
  endloop
 endfacet
 facet normal 1 0 0
  outer loop
   vertex 0.33619 0.0508 0
   vertex 0.33619 0 0.01
   vertex 0.33619 0 0
  endloop
 endfacet
endsolid test_1
solid test_2
 facet normal 0 1 0
  outer loop
   vertex 0.33619 0 0.01
   vertex 0.33619 0 0
   vertex 0 0 0.01
  endloop
 endfacet
 facet normal 0 -1 0
  outer loop
   vertex 0.33619 0 0
   vertex 0 0 0.01
   vertex 0 0 0
  endloop
 endfacet
endsolid test_2
solid test_3
 facet normal 1 -0 0
  outer loop
   vertex 0 0 0.01
   vertex 0 0 0
   vertex 0 0.127 0.01
  endloop
 endfacet
 facet normal -1 0 0
  outer loop
   vertex 0 0 0
   vertex 0 0.127 0.01
   vertex 0 0.127 0
  endloop
 endfacet
endsolid test_3
solid test_4
 facet normal 0 -1 0
  outer loop
   vertex 0 0.127 0.01
   vertex 0 0.127 0
   vertex 0.168095 0.127 0.01
  endloop
 endfacet
 facet normal 0 1 0
  outer loop
   vertex 0 0.127 0
   vertex 0.168095 0.127 0.01
   vertex 0.168095 0.127 0
  endloop
 endfacet
endsolid test_4
solid test_5
 facet normal -1 -0 -0
  outer loop
   vertex 0.168095 0.127 0.01
   vertex 0.168095 0.127 0
   vertex 0.168095 0.104482 0.01
  endloop
 endfacet
 facet normal 1 0 0
  outer loop
   vertex 0.168095 0.127 0
   vertex 0.168095 0.104482 0.01
   vertex 0.168095 0.104482 0
  endloop
 endfacet
endsolid test_5
