solid test
facet normal 0.000000 -0.000001 0.000000
  outer loop
    vertex 0.116854 0.104482 0.000000
    vertex 0.116854 0.104482 0.010000
    vertex 0.116770 0.104482 0.000000
  endloop
endfacet
facet normal 0.000000 0.000001 0.000000
  outer loop
    vertex 0.116854 0.104482 0.010000
    vertex 0.116770 0.104482 0.000000
    vertex 0.116770 0.104482 0.010000
  endloop
endfacet
facet normal 0.000000 -0.000001 0.000000
  outer loop
    vertex 0.116770 0.104482 0.000000
    vertex 0.116770 0.104482 0.010000
    vertex 0.116686 0.104482 0.000000
  endloop
endfacet
facet normal -0.000000 0.000002 0.000000
  outer loop
    vertex 0.116770 0.104482 0.010000
    vertex 0.116686 0.104482 0.000000
    vertex 0.116601 0.104482 0.010000
  endloop
endfacet
facet normal 0.000000 -0.000002 0.000000
  outer loop
    vertex 0.116686 0.104482 0.000000
    vertex 0.116601 0.104482 0.010000
    vertex 0.116515 0.104482 0.000000
  endloop
endfacet
facet normal -0.000000 0.000002 0.000000
  outer loop
    vertex 0.116601 0.104482 0.010000
    vertex 0.116515 0.104482 0.000000
    vertex 0.116428 0.104481 0.010000
  endloop
endfacet
facet normal 0.000000 -0.000002 0.000000
  outer loop
    vertex 0.116515 0.104482 0.000000
    vertex 0.116428 0.104481 0.010000
    vertex 0.116340 0.104481 0.000000
  endloop
endfacet
facet normal -0.000000 0.000002 0.000000
  outer loop
    vertex 0.116428 0.104481 0.010000
    vertex 0.116340 0.104481 0.000000
    vertex 0.116250 0.104481 0.010000
  endloop
endfacet
facet normal 0.000000 -0.000002 0.000000
  outer loop
    vertex 0.116340 0.104481 0.000000
    vertex 0.116250 0.104481 0.010000
    vertex 0.116157 0.104481 0.000000
  endloop
endfacet
facet normal -0.000000 0.000002 0.000000
  outer loop
    vertex 0.116250 0.104481 0.010000
    vertex 0.116157 0.104481 0.000000
    vertex 0.116062 0.104480 0.010000
  endloop
endfacet
facet normal 0.000000 -0.000002 0.000000
  outer loop
    vertex 0.116157 0.104481 0.000000
    vertex 0.116062 0.104480 0.010000
    vertex 0.115963 0.104479 0.000000
  endloop
endfacet
facet normal -0.000000 0.000002 0.000000
  outer loop
    vertex 0.116062 0.104480 0.010000
    vertex 0.115963 0.104479 0.000000
    vertex 0.115861 0.104478 0.010000
  endloop
endfacet
facet normal 0.000000 -0.000002 0.000000
  outer loop
    vertex 0.115963 0.104479 0.000000
    vertex 0.115861 0.104478 0.010000
    vertex 0.115754 0.104477 0.000000
  endloop
endfacet
facet normal -0.000000 0.000002 0.000000
  outer loop
    vertex 0.115861 0.104478 0.010000
    vertex 0.115754 0.104477 0.000000
    vertex 0.115643 0.104475 0.010000
  endloop
endfacet
facet normal 0.000000 -0.000002 0.000000
  outer loop
    vertex 0.115754 0.104477 0.000000
    vertex 0.115643 0.104475 0.010000
    vertex 0.115526 0.104473 0.000000
  endloop
endfacet
facet normal -0.000000 0.000002 0.000000
  outer loop
    vertex 0.115643 0.104475 0.010000
    vertex 0.115526 0.104473 0.000000
    vertex 0.115404 0.104471 0.010000
  endloop
endfacet
facet normal 0.000000 -0.000003 0.000000
  outer loop
    vertex 0.115526 0.104473 0.000000
    vertex 0.115404 0.104471 0.010000
    vertex 0.115275 0.104468 0.000000
  endloop
endfacet
facet normal -0.000000 0.000003 0.000000
  outer loop
    vertex 0.115404 0.104471 0.010000
    vertex 0.115275 0.104468 0.000000
    vertex 0.115140 0.104464 0.010000
  endloop
endfacet
facet normal 0.000000 -0.000003 0.000000
  outer loop
    vertex 0.115275 0.104468 0.000000
    vertex 0.115140 0.104464 0.010000
    vertex 0.114998 0.104460 0.000000
  endloop
endfacet
facet normal -0.000000 0.000003 0.000000
  outer loop
    vertex 0.115140 0.104464 0.010000
    vertex 0.114998 0.104460 0.000000
    vertex 0.114850 0.104455 0.010000
  endloop
endfacet
facet normal 0.000000 -0.000003 0.000000
  outer loop
    vertex 0.114998 0.104460 0.000000
    vertex 0.114850 0.104455 0.010000
    vertex 0.114694 0.104449 0.000000
  endloop
endfacet
facet normal -0.000000 0.000003 0.000000
  outer loop
    vertex 0.114850 0.104455 0.010000
    vertex 0.114694 0.104449 0.000000
    vertex 0.114530 0.104443 0.010000
  endloop
endfacet
facet normal 0.000000 -0.000003 0.000000
  outer loop
    vertex 0.114694 0.104449 0.000000
    vertex 0.114530 0.104443 0.010000
    vertex 0.114359 0.104435 0.000000
  endloop
endfacet
facet normal -0.000000 0.000004 0.000000
  outer loop
    vertex 0.114530 0.104443 0.010000
    vertex 0.114359 0.104435 0.000000
    vertex 0.114180 0.104427 0.010000
  endloop
endfacet
facet normal 0.000000 -0.000004 0.000000
  outer loop
    vertex 0.114359 0.104435 0.000000
    vertex 0.114180 0.104427 0.010000
    vertex 0.113993 0.104418 0.000000
  endloop
endfacet
facet normal -0.000000 0.000004 0.000000
  outer loop
    vertex 0.114180 0.104427 0.010000
    vertex 0.113993 0.104418 0.000000
    vertex 0.113798 0.104408 0.010000
  endloop
endfacet
facet normal 0.000000 -0.000004 0.000000
  outer loop
    vertex 0.113993 0.104418 0.000000
    vertex 0.113798 0.104408 0.010000
    vertex 0.113595 0.104396 0.000000
  endloop
endfacet
facet normal -0.000000 0.000004 0.000000
  outer loop
    vertex 0.113798 0.104408 0.010000
    vertex 0.113595 0.104396 0.000000
    vertex 0.113385 0.104384 0.010000
  endloop
endfacet
facet normal 0.000000 -0.000004 0.000000
  outer loop
    vertex 0.113595 0.104396 0.000000
    vertex 0.113385 0.104384 0.010000
    vertex 0.113166 0.104371 0.000000
  endloop
endfacet
facet normal -0.000000 0.000004 0.000000
  outer loop
    vertex 0.113385 0.104384 0.010000
    vertex 0.113166 0.104371 0.000000
    vertex 0.112941 0.104356 0.010000
  endloop
endfacet
facet normal 0.000000 -0.000005 0.000000
  outer loop
    vertex 0.113166 0.104371 0.000000
    vertex 0.112941 0.104356 0.010000
    vertex 0.112707 0.104340 0.000000
  endloop
endfacet
facet normal -0.000000 0.000005 0.000000
  outer loop
    vertex 0.112941 0.104356 0.010000
    vertex 0.112707 0.104340 0.000000
    vertex 0.112467 0.104322 0.010000
  endloop
endfacet
facet normal 0.000000 -0.000005 0.000000
  outer loop
    vertex 0.112707 0.104340 0.000000
    vertex 0.112467 0.104322 0.010000
    vertex 0.112219 0.104303 0.000000
  endloop
endfacet
facet normal -0.000000 0.000005 0.000000
  outer loop
    vertex 0.112467 0.104322 0.010000
    vertex 0.112219 0.104303 0.000000
    vertex 0.111965 0.104283 0.010000
  endloop
endfacet
facet normal 0.000000 -0.000005 0.000000
  outer loop
    vertex 0.112219 0.104303 0.000000
    vertex 0.111965 0.104283 0.010000
    vertex 0.111704 0.104262 0.000000
  endloop
endfacet
facet normal -0.000000 0.000005 0.000000
  outer loop
    vertex 0.111965 0.104283 0.010000
    vertex 0.111704 0.104262 0.000000
    vertex 0.111438 0.104238 0.010000
  endloop
endfacet
facet normal 0.000000 -0.000005 0.000000
  outer loop
    vertex 0.111704 0.104262 0.000000
    vertex 0.111438 0.104238 0.010000
    vertex 0.111166 0.104214 0.000000
  endloop
endfacet
facet normal -0.000001 0.000005 0.000000
  outer loop
    vertex 0.111438 0.104238 0.010000
    vertex 0.111166 0.104214 0.000000
    vertex 0.110889 0.104188 0.010000
  endloop
endfacet
facet normal 0.000001 -0.000006 0.000000
  outer loop
    vertex 0.111166 0.104214 0.000000
    vertex 0.110889 0.104188 0.010000
    vertex 0.110607 0.104160 0.000000
  endloop
endfacet
facet normal -0.000001 0.000006 0.000000
  outer loop
    vertex 0.110889 0.104188 0.010000
    vertex 0.110607 0.104160 0.000000
    vertex 0.110321 0.104131 0.010000
  endloop
endfacet
facet normal 0.000001 -0.000006 0.000000
  outer loop
    vertex 0.110607 0.104160 0.000000
    vertex 0.110321 0.104131 0.010000
    vertex 0.110031 0.104100 0.000000
  endloop
endfacet
facet normal -0.000001 0.000006 0.000000
  outer loop
    vertex 0.110321 0.104131 0.010000
    vertex 0.110031 0.104100 0.000000
    vertex 0.109737 0.104067 0.010000
  endloop
endfacet
facet normal 0.000001 -0.000006 0.000000
  outer loop
    vertex 0.110031 0.104100 0.000000
    vertex 0.109737 0.104067 0.010000
    vertex 0.109441 0.104033 0.000000
  endloop
endfacet
facet normal -0.000001 0.000006 0.000000
  outer loop
    vertex 0.109737 0.104067 0.010000
    vertex 0.109441 0.104033 0.000000
    vertex 0.109143 0.103997 0.010000
  endloop
endfacet
facet normal 0.000001 -0.000006 0.000000
  outer loop
    vertex 0.109441 0.104033 0.000000
    vertex 0.109143 0.103997 0.010000
    vertex 0.108844 0.103959 0.000000
  endloop
endfacet
facet normal -0.000001 0.000006 0.000000
  outer loop
    vertex 0.109143 0.103997 0.010000
    vertex 0.108844 0.103959 0.000000
    vertex 0.108543 0.103920 0.010000
  endloop
endfacet
facet normal 0.000001 -0.000006 0.000000
  outer loop
    vertex 0.108844 0.103959 0.000000
    vertex 0.108543 0.103920 0.010000
    vertex 0.108241 0.103879 0.000000
  endloop
endfacet
facet normal -0.000001 0.000006 0.000000
  outer loop
    vertex 0.108543 0.103920 0.010000
    vertex 0.108241 0.103879 0.000000
    vertex 0.107940 0.103837 0.010000
  endloop
endfacet
facet normal 0.000001 -0.000006 0.000000
  outer loop
    vertex 0.108241 0.103879 0.000000
    vertex 0.107940 0.103837 0.010000
    vertex 0.107640 0.103792 0.000000
  endloop
endfacet
facet normal -0.000001 0.000006 0.000000
  outer loop
    vertex 0.107940 0.103837 0.010000
    vertex 0.107640 0.103792 0.000000
    vertex 0.107340 0.103747 0.010000
  endloop
endfacet
facet normal 0.000001 -0.000006 0.000000
  outer loop
    vertex 0.107640 0.103792 0.000000
    vertex 0.107340 0.103747 0.010000
    vertex 0.107043 0.103699 0.000000
  endloop
endfacet
facet normal -0.000001 0.000006 0.000000
  outer loop
    vertex 0.107340 0.103747 0.010000
    vertex 0.107043 0.103699 0.000000
    vertex 0.106748 0.103650 0.010000
  endloop
endfacet
facet normal 0.000001 -0.000006 0.000000
  outer loop
    vertex 0.107043 0.103699 0.000000
    vertex 0.106748 0.103650 0.010000
    vertex 0.106456 0.103599 0.000000
  endloop
endfacet
facet normal -0.000001 0.000006 0.000000
  outer loop
    vertex 0.106748 0.103650 0.010000
    vertex 0.106456 0.103599 0.000000
    vertex 0.106167 0.103546 0.010000
  endloop
endfacet
facet normal 0.000001 -0.000006 0.000000
  outer loop
    vertex 0.106456 0.103599 0.000000
    vertex 0.106167 0.103546 0.010000
    vertex 0.105883 0.103492 0.000000
  endloop
endfacet
facet normal -0.000001 0.000006 0.000000
  outer loop
    vertex 0.106167 0.103546 0.010000
    vertex 0.105883 0.103492 0.000000
    vertex 0.105604 0.103437 0.010000
  endloop
endfacet
facet normal 0.000001 -0.000006 0.000000
  outer loop
    vertex 0.105883 0.103492 0.000000
    vertex 0.105604 0.103437 0.010000
    vertex 0.105330 0.103380 0.000000
  endloop
endfacet
facet normal -0.000001 0.000005 0.000000
  outer loop
    vertex 0.105604 0.103437 0.010000
    vertex 0.105330 0.103380 0.000000
    vertex 0.105062 0.103321 0.010000
  endloop
endfacet
facet normal 0.000001 -0.000005 0.000000
  outer loop
    vertex 0.105330 0.103380 0.000000
    vertex 0.105062 0.103321 0.010000
    vertex 0.104801 0.103261 0.000000
  endloop
endfacet
facet normal -0.000001 0.000005 0.000000
  outer loop
    vertex 0.105062 0.103321 0.010000
    vertex 0.104801 0.103261 0.000000
    vertex 0.104546 0.103199 0.010000
  endloop
endfacet
facet normal 0.000001 -0.000005 0.000000
  outer loop
    vertex 0.104801 0.103261 0.000000
    vertex 0.104546 0.103199 0.010000
    vertex 0.104299 0.103136 0.000000
  endloop
endfacet
facet normal -0.000001 0.000005 0.000000
  outer loop
    vertex 0.104546 0.103199 0.010000
    vertex 0.104299 0.103136 0.000000
    vertex 0.104060 0.103071 0.010000
  endloop
endfacet
facet normal 0.000001 -0.000005 0.000000
  outer loop
    vertex 0.104299 0.103136 0.000000
    vertex 0.104060 0.103071 0.010000
    vertex 0.103830 0.103005 0.000000
  endloop
endfacet
facet normal -0.000001 0.000005 0.000000
  outer loop
    vertex 0.104060 0.103071 0.010000
    vertex 0.103830 0.103005 0.000000
    vertex 0.103608 0.102938 0.010000
  endloop
endfacet
facet normal 0.000001 -0.000004 0.000000
  outer loop
    vertex 0.103830 0.103005 0.000000
    vertex 0.103608 0.102938 0.010000
    vertex 0.103397 0.102870 0.000000
  endloop
endfacet
facet normal -0.000001 0.000004 0.000000
  outer loop
    vertex 0.103608 0.102938 0.010000
    vertex 0.103397 0.102870 0.000000
    vertex 0.103195 0.102800 0.010000
  endloop
endfacet
facet normal 0.000001 -0.000004 0.000000
  outer loop
    vertex 0.103397 0.102870 0.000000
    vertex 0.103195 0.102800 0.010000
    vertex 0.103003 0.102728 0.000000
  endloop
endfacet
facet normal -0.000001 0.000004 0.000000
  outer loop
    vertex 0.103195 0.102800 0.010000
    vertex 0.103003 0.102728 0.000000
    vertex 0.102822 0.102656 0.010000
  endloop
endfacet
facet normal 0.000001 -0.000004 0.000000
  outer loop
    vertex 0.103003 0.102728 0.000000
    vertex 0.102822 0.102656 0.010000
    vertex 0.102652 0.102582 0.000000
  endloop
endfacet
facet normal -0.000001 0.000003 0.000000
  outer loop
    vertex 0.102822 0.102656 0.010000
    vertex 0.102652 0.102582 0.000000
    vertex 0.102494 0.102507 0.010000
  endloop
endfacet
facet normal 0.000002 -0.000003 0.000000
  outer loop
    vertex 0.102652 0.102582 0.000000
    vertex 0.102494 0.102507 0.010000
    vertex 0.102348 0.102431 0.000000
  endloop
endfacet
facet normal -0.000002 0.000003 0.000000
  outer loop
    vertex 0.102494 0.102507 0.010000
    vertex 0.102348 0.102431 0.000000
    vertex 0.102214 0.102353 0.010000
  endloop
endfacet
facet normal 0.000002 -0.000003 0.000000
  outer loop
    vertex 0.102348 0.102431 0.000000
    vertex 0.102214 0.102353 0.010000
    vertex 0.102092 0.102274 0.000000
  endloop
endfacet
facet normal -0.000002 0.000002 0.000000
  outer loop
    vertex 0.102214 0.102353 0.010000
    vertex 0.102092 0.102274 0.000000
    vertex 0.101984 0.102194 0.010000
  endloop
endfacet
facet normal 0.000002 -0.000002 0.000000
  outer loop
    vertex 0.102092 0.102274 0.000000
    vertex 0.101984 0.102194 0.010000
    vertex 0.101888 0.102113 0.000000
  endloop
endfacet
facet normal -0.000002 0.000002 0.000000
  outer loop
    vertex 0.101984 0.102194 0.010000
    vertex 0.101888 0.102113 0.000000
    vertex 0.101805 0.102031 0.010000
  endloop
endfacet
facet normal 0.000002 -0.000002 0.000000
  outer loop
    vertex 0.101888 0.102113 0.000000
    vertex 0.101805 0.102031 0.010000
    vertex 0.101736 0.101947 0.000000
  endloop
endfacet
facet normal -0.000002 0.000001 0.000000
  outer loop
    vertex 0.101805 0.102031 0.010000
    vertex 0.101736 0.101947 0.000000
    vertex 0.101681 0.101863 0.010000
  endloop
endfacet
facet normal 0.000002 -0.000001 0.000000
  outer loop
    vertex 0.101736 0.101947 0.000000
    vertex 0.101681 0.101863 0.010000
    vertex 0.101640 0.101776 0.000000
  endloop
endfacet
facet normal -0.000002 0.000001 0.000000
  outer loop
    vertex 0.101681 0.101863 0.010000
    vertex 0.101640 0.101776 0.000000
    vertex 0.101613 0.101689 0.010000
  endloop
endfacet
facet normal 0.000002 -0.000000 0.000000
  outer loop
    vertex 0.101640 0.101776 0.000000
    vertex 0.101613 0.101689 0.010000
    vertex 0.101600 0.101600 0.000000
  endloop
endfacet
facet normal -0.000002 0.000000 0.000000
  outer loop
    vertex 0.101613 0.101689 0.010000
    vertex 0.101600 0.101600 0.000000
    vertex 0.101601 0.101510 0.010000
  endloop
endfacet
facet normal 0.000002 0.000000 0.000000
  outer loop
    vertex 0.101600 0.101600 0.000000
    vertex 0.101601 0.101510 0.010000
    vertex 0.101617 0.101418 0.000000
  endloop
endfacet
facet normal -0.000002 -0.000000 0.000000
  outer loop
    vertex 0.101601 0.101510 0.010000
    vertex 0.101617 0.101418 0.000000
    vertex 0.101648 0.101325 0.010000
  endloop
endfacet
facet normal 0.000002 0.000001 0.000000
  outer loop
    vertex 0.101617 0.101418 0.000000
    vertex 0.101648 0.101325 0.010000
    vertex 0.101693 0.101230 0.000000
  endloop
endfacet
facet normal -0.000002 -0.000001 0.000000
  outer loop
    vertex 0.101648 0.101325 0.010000
    vertex 0.101693 0.101230 0.000000
    vertex 0.101753 0.101134 0.010000
  endloop
endfacet
facet normal 0.000002 0.000001 0.000000
  outer loop
    vertex 0.101693 0.101230 0.000000
    vertex 0.101753 0.101134 0.010000
    vertex 0.101827 0.101036 0.000000
  endloop
endfacet
facet normal -0.000002 -0.000002 0.000000
  outer loop
    vertex 0.101753 0.101134 0.010000
    vertex 0.101827 0.101036 0.000000
    vertex 0.101916 0.100936 0.010000
  endloop
endfacet
facet normal 0.000002 0.000002 0.000000
  outer loop
    vertex 0.101827 0.101036 0.000000
    vertex 0.101916 0.100936 0.010000
    vertex 0.102020 0.100834 0.000000
  endloop
endfacet
facet normal -0.000002 -0.000002 0.000000
  outer loop
    vertex 0.101916 0.100936 0.010000
    vertex 0.102020 0.100834 0.000000
    vertex 0.102139 0.100729 0.010000
  endloop
endfacet
facet normal 0.000002 0.000003 0.000000
  outer loop
    vertex 0.102020 0.100834 0.000000
    vertex 0.102139 0.100729 0.010000
    vertex 0.102272 0.100623 0.000000
  endloop
endfacet
facet normal -0.000002 -0.000003 0.000000
  outer loop
    vertex 0.102139 0.100729 0.010000
    vertex 0.102272 0.100623 0.000000
    vertex 0.102420 0.100514 0.010000
  endloop
endfacet
facet normal 0.000002 0.000003 0.000000
  outer loop
    vertex 0.102272 0.100623 0.000000
    vertex 0.102420 0.100514 0.010000
    vertex 0.102582 0.100403 0.000000
  endloop
endfacet
facet normal -0.000002 -0.000003 0.000000
  outer loop
    vertex 0.102420 0.100514 0.010000
    vertex 0.102582 0.100403 0.000000
    vertex 0.102760 0.100289 0.010000
  endloop
endfacet
facet normal 0.000002 0.000004 0.000000
  outer loop
    vertex 0.102582 0.100403 0.000000
    vertex 0.102760 0.100289 0.010000
    vertex 0.102951 0.100172 0.000000
  endloop
endfacet
facet normal -0.000002 -0.000004 0.000000
  outer loop
    vertex 0.102760 0.100289 0.010000
    vertex 0.102951 0.100172 0.000000
    vertex 0.103157 0.100052 0.010000
  endloop
endfacet
facet normal 0.000002 0.000004 0.000000
  outer loop
    vertex 0.102951 0.100172 0.000000
    vertex 0.103157 0.100052 0.010000
    vertex 0.103378 0.099929 0.000000
  endloop
endfacet
facet normal -0.000003 -0.000005 0.000000
  outer loop
    vertex 0.103157 0.100052 0.010000
    vertex 0.103378 0.099929 0.000000
    vertex 0.103612 0.099802 0.010000
  endloop
endfacet
facet normal 0.000003 0.000005 0.000000
  outer loop
    vertex 0.103378 0.099929 0.000000
    vertex 0.103612 0.099802 0.010000
    vertex 0.103861 0.099671 0.000000
  endloop
endfacet
facet normal -0.000003 -0.000005 0.000000
  outer loop
    vertex 0.103612 0.099802 0.010000
    vertex 0.103861 0.099671 0.000000
    vertex 0.104124 0.099537 0.010000
  endloop
endfacet
facet normal 0.000003 0.000005 0.000000
  outer loop
    vertex 0.103861 0.099671 0.000000
    vertex 0.104124 0.099537 0.010000
    vertex 0.104400 0.099398 0.000000
  endloop
endfacet
facet normal -0.000003 -0.000006 0.000000
  outer loop
    vertex 0.104124 0.099537 0.010000
    vertex 0.104400 0.099398 0.000000
    vertex 0.104691 0.099255 0.010000
  endloop
endfacet
facet normal 0.000003 0.000006 0.000000
  outer loop
    vertex 0.104400 0.099398 0.000000
    vertex 0.104691 0.099255 0.010000
    vertex 0.104995 0.099106 0.000000
  endloop
endfacet
facet normal -0.000003 -0.000006 0.000000
  outer loop
    vertex 0.104691 0.099255 0.010000
    vertex 0.104995 0.099106 0.000000
    vertex 0.105313 0.098953 0.010000
  endloop
endfacet
facet normal 0.000003 0.000006 0.000000
  outer loop
    vertex 0.104995 0.099106 0.000000
    vertex 0.105313 0.098953 0.010000
    vertex 0.105644 0.098795 0.000000
  endloop
endfacet
facet normal -0.000003 -0.000007 0.000000
  outer loop
    vertex 0.105313 0.098953 0.010000
    vertex 0.105644 0.098795 0.000000
    vertex 0.105989 0.098630 0.010000
  endloop
endfacet
facet normal 0.000003 0.000007 0.000000
  outer loop
    vertex 0.105644 0.098795 0.000000
    vertex 0.105989 0.098630 0.010000
    vertex 0.106346 0.098460 0.000000
  endloop
endfacet
facet normal -0.000003 -0.000007 -0.000000
  outer loop
    vertex 0.105989 0.098630 0.010000
    vertex 0.106346 0.098460 0.000000
    vertex 0.106717 0.098283 0.010000
  endloop
endfacet
facet normal 0.000004 0.000008 -0.000000
  outer loop
    vertex 0.106346 0.098460 0.000000
    vertex 0.106717 0.098283 0.010000
    vertex 0.107101 0.098100 0.000000
  endloop
endfacet
facet normal -0.000004 -0.000008 -0.000000
  outer loop
    vertex 0.106717 0.098283 0.010000
    vertex 0.107101 0.098100 0.000000
    vertex 0.107498 0.097909 0.010000
  endloop
endfacet
facet normal 0.000004 0.000008 -0.000000
  outer loop
    vertex 0.107101 0.098100 0.000000
    vertex 0.107498 0.097909 0.010000
    vertex 0.107908 0.097711 0.000000
  endloop
endfacet
facet normal -0.000004 -0.000008 -0.000000
  outer loop
    vertex 0.107498 0.097909 0.010000
    vertex 0.107908 0.097711 0.000000
    vertex 0.108330 0.097506 0.010000
  endloop
endfacet
facet normal 0.000004 0.000009 -0.000000
  outer loop
    vertex 0.107908 0.097711 0.000000
    vertex 0.108330 0.097506 0.010000
    vertex 0.108765 0.097292 0.000000
  endloop
endfacet
facet normal -0.000004 -0.000009 -0.000000
  outer loop
    vertex 0.108330 0.097506 0.010000
    vertex 0.108765 0.097292 0.000000
    vertex 0.109213 0.097069 0.010000
  endloop
endfacet
facet normal 0.000005 0.000009 -0.000000
  outer loop
    vertex 0.108765 0.097292 0.000000
    vertex 0.109213 0.097069 0.010000
    vertex 0.109673 0.096837 0.000000
  endloop
endfacet
facet normal -0.000005 -0.000009 -0.000000
  outer loop
    vertex 0.109213 0.097069 0.010000
    vertex 0.109673 0.096837 0.000000
    vertex 0.110146 0.096596 0.010000
  endloop
endfacet
facet normal 0.000005 0.000010 -0.000000
  outer loop
    vertex 0.109673 0.096837 0.000000
    vertex 0.110146 0.096596 0.010000
    vertex 0.110630 0.096345 0.000000
  endloop
endfacet
facet normal -0.000005 -0.000010 -0.000000
  outer loop
    vertex 0.110146 0.096596 0.010000
    vertex 0.110630 0.096345 0.000000
    vertex 0.111128 0.096084 0.010000
  endloop
endfacet
facet normal 0.000005 0.000010 -0.000000
  outer loop
    vertex 0.110630 0.096345 0.000000
    vertex 0.111128 0.096084 0.010000
    vertex 0.111637 0.095813 0.000000
  endloop
endfacet
facet normal -0.000006 -0.000010 -0.000000
  outer loop
    vertex 0.111128 0.096084 0.010000
    vertex 0.111637 0.095813 0.000000
    vertex 0.112159 0.095530 0.010000
  endloop
endfacet
facet normal 0.000006 0.000011 -0.000000
  outer loop
    vertex 0.111637 0.095813 0.000000
    vertex 0.112159 0.095530 0.010000
    vertex 0.112693 0.095235 0.000000
  endloop
endfacet
facet normal -0.000006 -0.000011 -0.000000
  outer loop
    vertex 0.112159 0.095530 0.010000
    vertex 0.112693 0.095235 0.000000
    vertex 0.113239 0.094929 0.010000
  endloop
endfacet
facet normal 0.000006 0.000011 -0.000000
  outer loop
    vertex 0.112693 0.095235 0.000000
    vertex 0.113239 0.094929 0.010000
    vertex 0.113798 0.094610 0.000000
  endloop
endfacet
facet normal -0.000007 -0.000011 -0.000000
  outer loop
    vertex 0.113239 0.094929 0.010000
    vertex 0.113798 0.094610 0.000000
    vertex 0.114368 0.094279 0.010000
  endloop
endfacet
facet normal 0.000007 0.000012 -0.000000
  outer loop
    vertex 0.113798 0.094610 0.000000
    vertex 0.114368 0.094279 0.010000
    vertex 0.114951 0.093934 0.000000
  endloop
endfacet
facet normal -0.000007 -0.000012 -0.000000
  outer loop
    vertex 0.114368 0.094279 0.010000
    vertex 0.114951 0.093934 0.000000
    vertex 0.115547 0.093576 0.010000
  endloop
endfacet
facet normal 0.000007 0.000012 -0.000000
  outer loop
    vertex 0.114951 0.093934 0.000000
    vertex 0.115547 0.093576 0.010000
    vertex 0.116154 0.093204 0.000000
  endloop
endfacet
facet normal -0.000008 -0.000012 -0.000000
  outer loop
    vertex 0.115547 0.093576 0.010000
    vertex 0.116154 0.093204 0.000000
    vertex 0.116774 0.092818 0.010000
  endloop
endfacet
facet normal 0.000008 0.000013 -0.000000
  outer loop
    vertex 0.116154 0.093204 0.000000
    vertex 0.116774 0.092818 0.010000
    vertex 0.117407 0.092417 0.000000
  endloop
endfacet
facet normal -0.000008 -0.000013 -0.000000
  outer loop
    vertex 0.116774 0.092818 0.010000
    vertex 0.117407 0.092417 0.000000
    vertex 0.118051 0.092001 0.010000
  endloop
endfacet
facet normal 0.000008 0.000013 -0.000000
  outer loop
    vertex 0.117407 0.092417 0.000000
    vertex 0.118051 0.092001 0.010000
    vertex 0.118709 0.091570 0.000000
  endloop
endfacet
facet normal -0.000009 -0.000013 -0.000000
  outer loop
    vertex 0.118051 0.092001 0.010000
    vertex 0.118709 0.091570 0.000000
    vertex 0.119379 0.091123 0.010000
  endloop
endfacet
facet normal 0.000009 0.000014 -0.000000
  outer loop
    vertex 0.118709 0.091570 0.000000
    vertex 0.119379 0.091123 0.010000
    vertex 0.120061 0.090660 0.000000
  endloop
endfacet
facet normal -0.000009 -0.000014 -0.000000
  outer loop
    vertex 0.119379 0.091123 0.010000
    vertex 0.120061 0.090660 0.000000
    vertex 0.120757 0.090181 0.010000
  endloop
endfacet
facet normal 0.000010 0.000014 -0.000000
  outer loop
    vertex 0.120061 0.090660 0.000000
    vertex 0.120757 0.090181 0.010000
    vertex 0.121465 0.089685 0.000000
  endloop
endfacet
facet normal -0.000010 -0.000014 -0.000000
  outer loop
    vertex 0.120757 0.090181 0.010000
    vertex 0.121465 0.089685 0.000000
    vertex 0.122186 0.089173 0.010000
  endloop
endfacet
facet normal 0.000010 0.000015 -0.000000
  outer loop
    vertex 0.121465 0.089685 0.000000
    vertex 0.122186 0.089173 0.010000
    vertex 0.122920 0.088644 0.000000
  endloop
endfacet
facet normal -0.000011 -0.000015 -0.000000
  outer loop
    vertex 0.122186 0.089173 0.010000
    vertex 0.122920 0.088644 0.000000
    vertex 0.123667 0.088098 0.010000
  endloop
endfacet
facet normal 0.000011 0.000015 -0.000000
  outer loop
    vertex 0.122920 0.088644 0.000000
    vertex 0.123667 0.088098 0.010000
    vertex 0.124428 0.087535 0.000000
  endloop
endfacet
facet normal -0.000011 -0.000015 -0.000000
  outer loop
    vertex 0.123667 0.088098 0.010000
    vertex 0.124428 0.087535 0.000000
    vertex 0.125201 0.086955 0.010000
  endloop
endfacet
facet normal 0.000012 0.000016 -0.000000
  outer loop
    vertex 0.124428 0.087535 0.000000
    vertex 0.125201 0.086955 0.010000
    vertex 0.125988 0.086358 0.000000
  endloop
endfacet
facet normal -0.000012 -0.000016 -0.000000
  outer loop
    vertex 0.125201 0.086955 0.010000
    vertex 0.125988 0.086358 0.000000
    vertex 0.126788 0.085744 0.010000
  endloop
endfacet
facet normal 0.000012 0.000016 -0.000000
  outer loop
    vertex 0.125988 0.086358 0.000000
    vertex 0.126788 0.085744 0.010000
    vertex 0.127601 0.085112 0.000000
  endloop
endfacet
facet normal -0.000013 -0.000016 -0.000000
  outer loop
    vertex 0.126788 0.085744 0.010000
    vertex 0.127601 0.085112 0.000000
    vertex 0.128427 0.084464 0.010000
  endloop
endfacet
facet normal 0.000013 0.000017 -0.000000
  outer loop
    vertex 0.127601 0.085112 0.000000
    vertex 0.128427 0.084464 0.010000
    vertex 0.129267 0.083799 0.000000
  endloop
endfacet
facet normal -0.000013 -0.000017 -0.000000
  outer loop
    vertex 0.128427 0.084464 0.010000
    vertex 0.129267 0.083799 0.000000
    vertex 0.130120 0.083117 0.010000
  endloop
endfacet
facet normal 0.000014 0.000017 -0.000000
  outer loop
    vertex 0.129267 0.083799 0.000000
    vertex 0.130120 0.083117 0.010000
    vertex 0.130986 0.082420 0.000000
  endloop
endfacet
facet normal -0.000014 -0.000017 -0.000000
  outer loop
    vertex 0.130120 0.083117 0.010000
    vertex 0.130986 0.082420 0.000000
    vertex 0.131865 0.081706 0.010000
  endloop
endfacet
facet normal 0.000014 0.000018 -0.000000
  outer loop
    vertex 0.130986 0.082420 0.000000
    vertex 0.131865 0.081706 0.010000
    vertex 0.132758 0.080977 0.000000
  endloop
endfacet
facet normal -0.000015 -0.000018 -0.000000
  outer loop
    vertex 0.131865 0.081706 0.010000
    vertex 0.132758 0.080977 0.000000
    vertex 0.133663 0.080232 0.010000
  endloop
endfacet
facet normal 0.000015 0.000018 -0.000000
  outer loop
    vertex 0.132758 0.080977 0.000000
    vertex 0.133663 0.080232 0.010000
    vertex 0.134581 0.079473 0.000000
  endloop
endfacet
facet normal -0.000015 -0.000018 -0.000000
  outer loop
    vertex 0.133663 0.080232 0.010000
    vertex 0.134581 0.079473 0.000000
    vertex 0.135511 0.078701 0.010000
  endloop
endfacet
facet normal 0.000016 0.000019 -0.000000
  outer loop
    vertex 0.134581 0.079473 0.000000
    vertex 0.135511 0.078701 0.010000
    vertex 0.136454 0.077915 0.000000
  endloop
endfacet
facet normal -0.000016 -0.000019 -0.000000
  outer loop
    vertex 0.135511 0.078701 0.010000
    vertex 0.136454 0.077915 0.000000
    vertex 0.137409 0.077116 0.010000
  endloop
endfacet
facet normal 0.000016 0.000019 -0.000000
  outer loop
    vertex 0.136454 0.077915 0.000000
    vertex 0.137409 0.077116 0.010000
    vertex 0.138375 0.076306 0.000000
  endloop
endfacet
facet normal -0.000016 -0.000019 -0.000000
  outer loop
    vertex 0.137409 0.077116 0.010000
    vertex 0.138375 0.076306 0.000000
    vertex 0.139352 0.075486 0.010000
  endloop
endfacet
facet normal 0.000017 0.000020 -0.000000
  outer loop
    vertex 0.138375 0.076306 0.000000
    vertex 0.139352 0.075486 0.010000
    vertex 0.140341 0.074655 0.000000
  endloop
endfacet
facet normal -0.000017 -0.000020 -0.000000
  outer loop
    vertex 0.139352 0.075486 0.010000
    vertex 0.140341 0.074655 0.000000
    vertex 0.141340 0.073816 0.010000
  endloop
endfacet
facet normal 0.000017 0.000020 0.000000
  outer loop
    vertex 0.140341 0.074655 0.000000
    vertex 0.141340 0.073816 0.010000
    vertex 0.142348 0.072969 0.000000
  endloop
endfacet
facet normal -0.000017 -0.000020 0.000000
  outer loop
    vertex 0.141340 0.073816 0.010000
    vertex 0.142348 0.072969 0.000000
    vertex 0.143366 0.072115 0.010000
  endloop
endfacet
facet normal 0.000017 0.000020 0.000000
  outer loop
    vertex 0.142348 0.072969 0.000000
    vertex 0.143366 0.072115 0.010000
    vertex 0.144393 0.071257 0.000000
  endloop
endfacet
facet normal -0.000017 -0.000021 0.000000
  outer loop
    vertex 0.143366 0.072115 0.010000
    vertex 0.144393 0.071257 0.000000
    vertex 0.145427 0.070395 0.010000
  endloop
endfacet
facet normal 0.000017 0.000021 0.000000
  outer loop
    vertex 0.144393 0.071257 0.000000
    vertex 0.145427 0.070395 0.010000
    vertex 0.146469 0.069530 0.000000
  endloop
endfacet
facet normal -0.000017 -0.000021 0.000000
  outer loop
    vertex 0.145427 0.070395 0.010000
    vertex 0.146469 0.069530 0.000000
    vertex 0.147516 0.068664 0.010000
  endloop
endfacet
facet normal 0.000017 0.000021 0.000000
  outer loop
    vertex 0.146469 0.069530 0.000000
    vertex 0.147516 0.068664 0.010000
    vertex 0.148570 0.067800 0.000000
  endloop
endfacet
facet normal -0.000017 -0.000021 0.000000
  outer loop
    vertex 0.147516 0.068664 0.010000
    vertex 0.148570 0.067800 0.000000
    vertex 0.149627 0.066937 0.010000
  endloop
endfacet
facet normal 0.000017 0.000021 0.000000
  outer loop
    vertex 0.148570 0.067800 0.000000
    vertex 0.149627 0.066937 0.010000
    vertex 0.150688 0.066079 0.000000
  endloop
endfacet
facet normal -0.000017 -0.000021 0.000000
  outer loop
    vertex 0.149627 0.066937 0.010000
    vertex 0.150688 0.066079 0.000000
    vertex 0.151752 0.065226 0.010000
  endloop
endfacet
facet normal 0.000017 0.000021 0.000000
  outer loop
    vertex 0.150688 0.066079 0.000000
    vertex 0.151752 0.065226 0.010000
    vertex 0.152816 0.064382 0.000000
  endloop
endfacet
facet normal -0.000017 -0.000021 0.000000
  outer loop
    vertex 0.151752 0.065226 0.010000
    vertex 0.152816 0.064382 0.000000
    vertex 0.153880 0.063546 0.010000
  endloop
endfacet
facet normal 0.000017 0.000021 0.000000
  outer loop
    vertex 0.152816 0.064382 0.000000
    vertex 0.153880 0.063546 0.010000
    vertex 0.154943 0.062722 0.000000
  endloop
endfacet
facet normal -0.000016 -0.000021 0.000000
  outer loop
    vertex 0.153880 0.063546 0.010000
    vertex 0.154943 0.062722 0.000000
    vertex 0.156003 0.061912 0.010000
  endloop
endfacet
facet normal 0.000016 0.000021 0.000000
  outer loop
    vertex 0.154943 0.062722 0.000000
    vertex 0.156003 0.061912 0.010000
    vertex 0.157058 0.061117 0.000000
  endloop
endfacet
facet normal -0.000016 -0.000021 0.000000
  outer loop
    vertex 0.156003 0.061912 0.010000
    vertex 0.157058 0.061117 0.000000
    vertex 0.158108 0.060339 0.010000
  endloop
endfacet
facet normal 0.000015 0.000021 0.000000
  outer loop
    vertex 0.157058 0.061117 0.000000
    vertex 0.158108 0.060339 0.010000
    vertex 0.159151 0.059581 0.000000
  endloop
endfacet
facet normal -0.000015 -0.000021 0.000000
  outer loop
    vertex 0.158108 0.060339 0.010000
    vertex 0.159151 0.059581 0.000000
    vertex 0.160184 0.058844 0.010000
  endloop
endfacet
facet normal 0.000015 0.000021 0.000000
  outer loop
    vertex 0.159151 0.059581 0.000000
    vertex 0.160184 0.058844 0.010000
    vertex 0.161206 0.058130 0.000000
  endloop
endfacet
facet normal -0.000014 -0.000020 0.000000
  outer loop
    vertex 0.160184 0.058844 0.010000
    vertex 0.161206 0.058130 0.000000
    vertex 0.162216 0.057442 0.010000
  endloop
endfacet
facet normal 0.000013 0.000020 0.000000
  outer loop
    vertex 0.161206 0.058130 0.000000
    vertex 0.162216 0.057442 0.010000
    vertex 0.163212 0.056781 0.000000
  endloop
endfacet
facet normal -0.000013 -0.000020 0.000000
  outer loop
    vertex 0.162216 0.057442 0.010000
    vertex 0.163212 0.056781 0.000000
    vertex 0.164191 0.056149 0.010000
  endloop
endfacet
facet normal 0.000012 0.000019 0.000000
  outer loop
    vertex 0.163212 0.056781 0.000000
    vertex 0.164191 0.056149 0.010000
    vertex 0.165153 0.055548 0.000000
  endloop
endfacet
facet normal -0.000012 -0.000019 0.000000
  outer loop
    vertex 0.164191 0.056149 0.010000
    vertex 0.165153 0.055548 0.000000
    vertex 0.166094 0.054980 0.010000
  endloop
endfacet
facet normal 0.000011 0.000019 0.000000
  outer loop
    vertex 0.165153 0.055548 0.000000
    vertex 0.166094 0.054980 0.010000
    vertex 0.167014 0.054445 0.000000
  endloop
endfacet
facet normal -0.000010 -0.000018 0.000000
  outer loop
    vertex 0.166094 0.054980 0.010000
    vertex 0.167014 0.054445 0.000000
    vertex 0.167910 0.053946 0.010000
  endloop
endfacet
facet normal 0.000010 0.000018 0.000000
  outer loop
    vertex 0.167014 0.054445 0.000000
    vertex 0.167910 0.053946 0.010000
    vertex 0.168780 0.053483 0.000000
  endloop
endfacet
facet normal -0.000009 -0.000017 0.000000
  outer loop
    vertex 0.167910 0.053946 0.010000
    vertex 0.168780 0.053483 0.000000
    vertex 0.169622 0.053058 0.010000
  endloop
endfacet
facet normal 0.000008 0.000017 0.000000
  outer loop
    vertex 0.168780 0.053483 0.000000
    vertex 0.169622 0.053058 0.010000
    vertex 0.170435 0.052671 0.000000
  endloop
endfacet
facet normal -0.000007 -0.000016 0.000000
  outer loop
    vertex 0.169622 0.053058 0.010000
    vertex 0.170435 0.052671 0.000000
    vertex 0.171216 0.052323 0.010000
  endloop
endfacet
facet normal 0.000007 0.000015 0.000000
  outer loop
    vertex 0.170435 0.052671 0.000000
    vertex 0.171216 0.052323 0.010000
    vertex 0.171964 0.052014 0.000000
  endloop
endfacet
facet normal -0.000006 -0.000015 0.000000
  outer loop
    vertex 0.171216 0.052323 0.010000
    vertex 0.171964 0.052014 0.000000
    vertex 0.172677 0.051744 0.010000
  endloop
endfacet
facet normal 0.000005 0.000014 0.000000
  outer loop
    vertex 0.171964 0.052014 0.000000
    vertex 0.172677 0.051744 0.010000
    vertex 0.173353 0.051512 0.000000
  endloop
endfacet
facet normal -0.000004 -0.000013 0.000000
  outer loop
    vertex 0.172677 0.051744 0.010000
    vertex 0.173353 0.051512 0.000000
    vertex 0.173991 0.051318 0.010000
  endloop
endfacet
facet normal 0.000004 0.000012 0.000000
  outer loop
    vertex 0.173353 0.051512 0.000000
    vertex 0.173991 0.051318 0.010000
    vertex 0.174590 0.051159 0.000000
  endloop
endfacet
facet normal -0.000003 -0.000012 0.000000
  outer loop
    vertex 0.173991 0.051318 0.010000
    vertex 0.174590 0.051159 0.000000
    vertex 0.175148 0.051034 0.010000
  endloop
endfacet
facet normal 0.000002 0.000011 0.000000
  outer loop
    vertex 0.174590 0.051159 0.000000
    vertex 0.175148 0.051034 0.010000
    vertex 0.175664 0.050940 0.000000
  endloop
endfacet
facet normal -0.000002 -0.000010 0.000000
  outer loop
    vertex 0.175148 0.051034 0.010000
    vertex 0.175664 0.050940 0.000000
    vertex 0.176137 0.050874 0.010000
  endloop
endfacet
facet normal 0.000001 0.000009 0.000000
  outer loop
    vertex 0.175664 0.050940 0.000000
    vertex 0.176137 0.050874 0.010000
    vertex 0.176567 0.050832 0.000000
  endloop
endfacet
facet normal -0.000001 -0.000008 0.000000
  outer loop
    vertex 0.176137 0.050874 0.010000
    vertex 0.176567 0.050832 0.000000
    vertex 0.176953 0.050810 0.010000
  endloop
endfacet
facet normal 0.000000 0.000007 0.000000
  outer loop
    vertex 0.176567 0.050832 0.000000
    vertex 0.176953 0.050810 0.010000
    vertex 0.177296 0.050801 0.000000
  endloop
endfacet
facet normal -0.000000 -0.000006 0.000000
  outer loop
    vertex 0.176953 0.050810 0.010000
    vertex 0.177296 0.050801 0.000000
    vertex 0.177595 0.050800 0.010000
  endloop
endfacet
facet normal 0.000000 0.000003 0.000000
  outer loop
    vertex 0.177296 0.050801 0.000000
    vertex 0.177595 0.050800 0.010000
    vertex 0.177595 0.050800 0.000000
  endloop
endfacet
facet normal 0.000000 -0.001016 0.000000
  outer loop
    vertex 0.177595 0.050800 0.010000
    vertex 0.177595 0.050800 0.000000
    vertex 0.279195 0.050800 0.010000
  endloop
endfacet
facet normal 0.000000 0.001016 0.000000
  outer loop
    vertex 0.177595 0.050800 0.000000
    vertex 0.279195 0.050800 0.010000
    vertex 0.279195 0.050800 0.000000
  endloop
endfacet
facet normal -0.000508 -0.000000 -0.000000
  outer loop
    vertex 0.279195 0.050800 0.010000
    vertex 0.279195 0.050800 0.000000
    vertex 0.279195 0.000000 0.010000
  endloop
endfacet
facet normal 0.000508 0.000000 0.000000
  outer loop
    vertex 0.279195 0.050800 0.000000
    vertex 0.279195 0.000000 0.010000
    vertex 0.279195 0.000000 0.000000
  endloop
endfacet
facet normal 0.000000 0.002792 0.000000
  outer loop
    vertex 0.279195 0.000000 0.010000
    vertex 0.279195 0.000000 0.000000
    vertex 0.000000 0.000000 0.010000
  endloop
endfacet
facet normal 0.000000 -0.002792 0.000000
  outer loop
    vertex 0.279195 0.000000 0.000000
    vertex 0.000000 0.000000 0.010000
    vertex 0.000000 0.000000 0.000000
  endloop
endfacet
facet normal 0.001270 -0.000000 0.000000
  outer loop
    vertex 0.000000 0.000000 0.010000
    vertex 0.000000 0.000000 0.000000
    vertex 0.000000 0.127000 0.010000
  endloop
endfacet
facet normal -0.001270 0.000000 0.000000
  outer loop
    vertex 0.000000 0.000000 0.000000
    vertex 0.000000 0.127000 0.010000
    vertex 0.000000 0.127000 0.000000
  endloop
endfacet
facet normal 0.000000 -0.001396 0.000000
  outer loop
    vertex 0.000000 0.127000 0.010000
    vertex 0.000000 0.127000 0.000000
    vertex 0.139597 0.127000 0.010000
  endloop
endfacet
facet normal 0.000000 0.001396 0.000000
  outer loop
    vertex 0.000000 0.127000 0.000000
    vertex 0.139597 0.127000 0.010000
    vertex 0.139597 0.127000 0.000000
  endloop
endfacet
facet normal -0.000225 -0.000000 -0.000000
  outer loop
    vertex 0.139597 0.127000 0.010000
    vertex 0.139597 0.127000 0.000000
    vertex 0.139597 0.104482 0.010000
  endloop
endfacet
facet normal 0.000225 0.000000 0.000000
  outer loop
    vertex 0.139597 0.127000 0.000000
    vertex 0.139597 0.104482 0.010000
    vertex 0.139597 0.104482 0.000000
  endloop
endfacet
facet normal 0.000000 0.000227 0.000000
  outer loop
    vertex 0.139597 0.104482 0.010000
    vertex 0.139597 0.104482 0.000000
    vertex 0.116854 0.104482 0.010000
  endloop
endfacet
facet normal 0.000000 -0.000227 0.000000
  outer loop
    vertex 0.139597 0.104482 0.000000
    vertex 0.116854 0.104482 0.010000
    vertex 0.116854 0.104482 0.000000
  endloop
endfacet
endsolid test
