solid test_0
 facet normal 0 -1 0
  outer loop
   vertex 0.116854 0.104482 0
   vertex 0.116854 0.104482 0.01
   vertex 0.11677 0.104482 0
  endloop
 endfacet
 facet normal 0 1 0
  outer loop
   vertex 0.116854 0.104482 0.01
   vertex 0.11677 0.104482 0
   vertex 0.11677 0.104482 0.01
  endloop
 endfacet
 facet normal 0 -1 0
  outer loop
   vertex 0.11677 0.104482 0
   vertex 0.11677 0.104482 0.01
   vertex 0.116686 0.104482 0
  endloop
 endfacet
 facet normal 0 1 0
  outer loop
   vertex 0.11677 0.104482 0.01
   vertex 0.116686 0.104482 0
   vertex 0.116601 0.104482 0.01
  endloop
 endfacet
 facet normal 0 -1 0
  outer loop
   vertex 0.116686 0.104482 0
   vertex 0.116601 0.104482 0.01
   vertex 0.116515 0.104482 0
  endloop
 endfacet
 facet normal -0.00581411 0.999983 4.99982e-05
  outer loop
   vertex 0.116601 0.104482 0.01
   vertex 0.116515 0.104482 0
   vertex 0.116428 0.104481 0.01
  endloop
 endfacet
 facet normal 0.00574728 -0.999983 -5.05796e-05
  outer loop
   vertex 0.116515 0.104482 0
   vertex 0.116428 0.104481 0.01
   vertex 0.11634 0.104481 0
  endloop
 endfacet
 facet normal 0 1 0
  outer loop
   vertex 0.116428 0.104481 0.01
   vertex 0.11634 0.104481 0
   vertex 0.11625 0.104481 0.01
  endloop
 endfacet
 facet normal 0 -1 0
  outer loop
   vertex 0.11634 0.104481 0
   vertex 0.11625 0.104481 0.01
   vertex 0.116157 0.104481 0
  endloop
 endfacet
 facet normal -0.00531043 0.999986 4.9386e-05
  outer loop
   vertex 0.11625 0.104481 0.01
   vertex 0.116157 0.104481 0
   vertex 0.116062 0.10448 0.01
  endloop
 endfacet
 facet normal 0.0102917 -0.999947 -2.05884e-06
  outer loop
   vertex 0.116157 0.104481 0
   vertex 0.116062 0.10448 0.01
   vertex 0.115963 0.104479 0
  endloop
 endfacet
 facet normal -0.00993353 0.999951 -1.48761e-06
  outer loop
   vertex 0.116062 0.10448 0.01
   vertex 0.115963 0.104479 0
   vertex 0.115861 0.104478 0.01
  endloop
 endfacet
 facet normal 0.00955359 -0.999954 -2.38808e-06
  outer loop
   vertex 0.115963 0.104479 0
   vertex 0.115861 0.104478 0.01
   vertex 0.115754 0.104477 0
  endloop
 endfacet
 facet normal -0.0137722 0.999905 4.75315e-05
  outer loop
   vertex 0.115861 0.104478 0.01
   vertex 0.115754 0.104477 0
   vertex 0.115643 0.104475 0.01
  endloop
 endfacet
 facet normal 0.0175452 -0.999846 -5.64056e-06
  outer loop
   vertex 0.115754 0.104477 0
   vertex 0.115643 0.104475 0.01
   vertex 0.115526 0.104473 0
  endloop
 endfacet
 facet normal -0.0167381 0.99986 -3.80526e-06
  outer loop
   vertex 0.115643 0.104475 0.01
   vertex 0.115526 0.104473 0
   vertex 0.115404 0.104471 0.01
  endloop
 endfacet
 facet normal 0.0199141 -0.999802 4.25631e-05
  outer loop
   vertex 0.115526 0.104473 0
   vertex 0.115404 0.104471 0.01
   vertex 0.115275 0.104468 0
  endloop
 endfacet
 facet normal -0.0264907 0.999649 4.23197e-05
  outer loop
   vertex 0.115404 0.104471 0.01
   vertex 0.115275 0.104468 0
   vertex 0.11514 0.104464 0.01
  endloop
 endfacet
 facet normal 0.0288752 -0.999583 -1.01007e-05
  outer loop
   vertex 0.115275 0.104468 0
   vertex 0.11514 0.104464 0.01
   vertex 0.114998 0.10446 0
  endloop
 endfacet
 facet normal -0.0310207 0.999519 4.05922e-05
  outer loop
   vertex 0.11514 0.104464 0.01
   vertex 0.114998 0.10446 0
   vertex 0.11485 0.104455 0.01
  endloop
 endfacet
 facet normal 0.0361755 -0.999345 3.57848e-05
  outer loop
   vertex 0.114998 0.10446 0
   vertex 0.11485 0.104455 0.01
   vertex 0.114694 0.104449 0
  endloop
 endfacet
 facet normal -0.0374824 0.999297 -1.53688e-05
  outer loop
   vertex 0.11485 0.104455 0.01
   vertex 0.114694 0.104449 0
   vertex 0.11453 0.104443 0.01
  endloop
 endfacet
 facet normal 0.0417535 -0.999128 8.55174e-05
  outer loop
   vertex 0.114694 0.104449 0
   vertex 0.11453 0.104443 0.01
   vertex 0.114359 0.104435 0
  endloop
 endfacet
 facet normal -0.0456565 0.998957 -1.86391e-05
  outer loop
   vertex 0.11453 0.104443 0.01
   vertex 0.114359 0.104435 0
   vertex 0.11418 0.104427 0.01
  endloop
 endfacet
 facet normal 0.0463835 -0.998924 3.16794e-05
  outer loop
   vertex 0.114359 0.104435 0
   vertex 0.11418 0.104427 0.01
   vertex 0.113993 0.104418 0
  endloop
 endfacet
 facet normal -0.0496743 0.998765 3.00013e-05
  outer loop
   vertex 0.11418 0.104427 0.01
   vertex 0.113993 0.104418 0
   vertex 0.113798 0.104408 0.01
  endloop
 endfacet
 facet normal 0.0551967 -0.998475 7.79735e-05
  outer loop
   vertex 0.113993 0.104418 0
   vertex 0.113798 0.104408 0.01
   vertex 0.113595 0.104396 0
  endloop
 endfacet
 facet normal -0.0580273 0.998315 -2.03199e-05
  outer loop
   vertex 0.113798 0.104408 0.01
   vertex 0.113595 0.104396 0
   vertex 0.113385 0.104384 0.01
  endloop
 endfacet
 facet normal 0.0581854 -0.998306 2.365e-05
  outer loop
   vertex 0.113595 0.104396 0
   vertex 0.113385 0.104384 0.01
   vertex 0.113166 0.104371 0
  endloop
 endfacet
 facet normal -0.0629361 0.998018 8.07662e-05
  outer loop
   vertex 0.113385 0.104384 0.01
   vertex 0.113166 0.104371 0
   vertex 0.112941 0.104356 0.01
  endloop
 endfacet
 facet normal 0.0673725 -0.997728 1.94868e-05
  outer loop
   vertex 0.113166 0.104371 0
   vertex 0.112941 0.104356 0.01
   vertex 0.112707 0.10434 0
  endloop
 endfacet
 facet normal -0.0715401 0.997438 7.84997e-05
  outer loop
   vertex 0.112941 0.104356 0.01
   vertex 0.112707 0.10434 0
   vertex 0.112467 0.104322 0.01
  endloop
 endfacet
 facet normal 0.0756021 -0.997138 1.95279e-05
  outer loop
   vertex 0.112707 0.10434 0
   vertex 0.112467 0.104322 0.01
   vertex 0.112219 0.104303 0
  endloop
 endfacet
 facet normal -0.0774637 0.996995 2.691e-05
  outer loop
   vertex 0.112467 0.104322 0.01
   vertex 0.112219 0.104303 0
   vertex 0.111965 0.104283 0.01
  endloop
 endfacet
 facet normal 0.0793618 -0.996846 2.15994e-05
  outer loop
   vertex 0.112219 0.104303 0
   vertex 0.111965 0.104283 0.01
   vertex 0.111704 0.104262 0
  endloop
 endfacet
 facet normal -0.0850679 0.996375 0.000128321
  outer loop
   vertex 0.111965 0.104283 0.01
   vertex 0.111704 0.104262 0
   vertex 0.111438 0.104238 0.01
  endloop
 endfacet
 facet normal 0.088874 -0.996043 -2.6281e-05
  outer loop
   vertex 0.111704 0.104262 0
   vertex 0.111438 0.104238 0.01
   vertex 0.111166 0.104214 0
  endloop
 endfacet
 facet normal -0.0907015 0.995878 7.63829e-05
  outer loop
   vertex 0.111438 0.104238 0.01
   vertex 0.111166 0.104214 0
   vertex 0.110889 0.104188 0.01
  endloop
 endfacet
 facet normal 0.0961432 -0.995368 7.56777e-05
  outer loop
   vertex 0.111166 0.104214 0
   vertex 0.110889 0.104188 0.01
   vertex 0.110607 0.10416 0
  endloop
 endfacet
 facet normal -0.0998578 0.995002 3.01009e-05
  outer loop
   vertex 0.110889 0.104188 0.01
   vertex 0.110607 0.10416 0
   vertex 0.110321 0.104131 0.01
  endloop
 endfacet
 facet normal 0.103619 -0.994617 7.85717e-05
  outer loop
   vertex 0.110607 0.10416 0
   vertex 0.110321 0.104131 0.01
   vertex 0.110031 0.1041 0
  endloop
 endfacet
 facet normal -0.108938 0.994049 7.74508e-05
  outer loop
   vertex 0.110321 0.104131 0.01
   vertex 0.110031 0.1041 0
   vertex 0.109737 0.104067 0.01
  endloop
 endfacet
 facet normal 0.112826 -0.993615 3.82938e-05
  outer loop
   vertex 0.110031 0.1041 0
   vertex 0.109737 0.104067 0.01
   vertex 0.109441 0.104033 0
  endloop
 endfacet
 facet normal -0.117031 0.993128 8.78375e-05
  outer loop
   vertex 0.109737 0.104067 0.01
   vertex 0.109441 0.104033 0
   vertex 0.109143 0.103997 0.01
  endloop
 endfacet
 facet normal 0.12301 -0.992405 9.2939e-05
  outer loop
   vertex 0.109441 0.104033 0
   vertex 0.109143 0.103997 0.01
   vertex 0.108844 0.103959 0
  endloop
 endfacet
 facet normal -0.127293 0.991865 3.71736e-05
  outer loop
   vertex 0.109143 0.103997 0.01
   vertex 0.108844 0.103959 0
   vertex 0.108543 0.10392 0.01
  endloop
 endfacet
 facet normal 0.131525 -0.991313 9.23559e-05
  outer loop
   vertex 0.108844 0.103959 0
   vertex 0.108543 0.10392 0.01
   vertex 0.108241 0.103879 0
  endloop
 endfacet
 facet normal -0.136359 0.990659 5.63103e-05
  outer loop
   vertex 0.108543 0.10392 0.01
   vertex 0.108241 0.103879 0
   vertex 0.10794 0.103837 0.01
  endloop
 endfacet
 facet normal 0.143266 -0.989684 0.000155679
  outer loop
   vertex 0.108241 0.103879 0
   vertex 0.10794 0.103837 0.01
   vertex 0.10764 0.103792 0
  endloop
 endfacet
 facet normal -0.148333 0.988938 -3.1315e-07
  outer loop
   vertex 0.10794 0.103837 0.01
   vertex 0.10764 0.103792 0
   vertex 0.10734 0.103747 0.01
  endloop
 endfacet
 facet normal 0.153919 -0.988083 0.000171759
  outer loop
   vertex 0.10764 0.103792 0
   vertex 0.10734 0.103747 0.01
   vertex 0.107043 0.103699 0
  endloop
 endfacet
 facet normal -0.161694 0.986841 6.50977e-05
  outer loop
   vertex 0.10734 0.103747 0.01
   vertex 0.107043 0.103699 0
   vertex 0.106748 0.10365 0.01
  endloop
 endfacet
 facet normal 0.167941 -0.985797 0.000124304
  outer loop
   vertex 0.107043 0.103699 0
   vertex 0.106748 0.10365 0.01
   vertex 0.106456 0.103599 0
  endloop
 endfacet
 facet normal -0.176207 0.984353 0.000124428
  outer loop
   vertex 0.106748 0.10365 0.01
   vertex 0.106456 0.103599 0
   vertex 0.106167 0.103546 0.01
  endloop
 endfacet
 facet normal 0.183562 -0.983008 9.52528e-05
  outer loop
   vertex 0.106456 0.103599 0
   vertex 0.106167 0.103546 0.01
   vertex 0.105883 0.103492 0
  endloop
 endfacet
 facet normal -0.190078 0.981769 9.65222e-05
  outer loop
   vertex 0.106167 0.103546 0.01
   vertex 0.105883 0.103492 0
   vertex 0.105604 0.103437 0.01
  endloop
 endfacet
 facet normal 0.198495 -0.980102 0.000147468
  outer loop
   vertex 0.105883 0.103492 0
   vertex 0.105604 0.103437 0.01
   vertex 0.10533 0.10338 0
  endloop
 endfacet
 facet normal -0.209279 0.977856 0.000160829
  outer loop
   vertex 0.105604 0.103437 0.01
   vertex 0.10533 0.10338 0
   vertex 0.105062 0.103321 0.01
  endloop
 endfacet
 facet normal 0.21947 -0.975619 0.000125473
  outer loop
   vertex 0.10533 0.10338 0
   vertex 0.105062 0.103321 0.01
   vertex 0.104801 0.103261 0
  endloop
 endfacet
 facet normal -0.230097 0.973168 0.00016661
  outer loop
   vertex 0.105062 0.103321 0.01
   vertex 0.104801 0.103261 0
   vertex 0.104546 0.103199 0.01
  endloop
 endfacet
 facet normal 0.241624 -0.97037 0.000144661
  outer loop
   vertex 0.104801 0.103261 0
   vertex 0.104546 0.103199 0.01
   vertex 0.104299 0.103136 0
  endloop
 endfacet
 facet normal -0.25469 0.967023 0.000199167
  outer loop
   vertex 0.104546 0.103199 0.01
   vertex 0.104299 0.103136 0
   vertex 0.10406 0.103071 0.01
  endloop
 endfacet
 facet normal 0.269028 -0.963132 0.000168786
  outer loop
   vertex 0.104299 0.103136 0
   vertex 0.10406 0.103071 0.01
   vertex 0.10383 0.103005 0
  endloop
 endfacet
 facet normal -0.282279 0.959332 0.00016108
  outer loop
   vertex 0.10406 0.103071 0.01
   vertex 0.10383 0.103005 0
   vertex 0.103608 0.102938 0.01
  endloop
 endfacet
 facet normal 0.297638 -0.954679 0.000211069
  outer loop
   vertex 0.10383 0.103005 0
   vertex 0.103608 0.102938 0.01
   vertex 0.103397 0.10287 0
  endloop
 endfacet
 facet normal -0.316916 0.948454 0.000238015
  outer loop
   vertex 0.103608 0.102938 0.01
   vertex 0.103397 0.10287 0
   vertex 0.103195 0.1028 0.01
  endloop
 endfacet
 facet normal 0.339063 -0.940763 0.000263209
  outer loop
   vertex 0.103397 0.10287 0
   vertex 0.103195 0.1028 0.01
   vertex 0.103003 0.102728 0
  endloop
 endfacet
 facet normal -0.360148 0.932895 0.000198242
  outer loop
   vertex 0.103195 0.1028 0.01
   vertex 0.103003 0.102728 0
   vertex 0.102822 0.102656 0.01
  endloop
 endfacet
 facet normal 0.384054 -0.92331 0.000303498
  outer loop
   vertex 0.103003 0.102728 0
   vertex 0.102822 0.102656 0.01
   vertex 0.102652 0.102582 0
  endloop
 endfacet
 facet normal -0.413589 0.910463 0.000293663
  outer loop
   vertex 0.102822 0.102656 0.01
   vertex 0.102652 0.102582 0
   vertex 0.102494 0.102507 0.01
  endloop
 endfacet
 facet normal 0.444859 -0.895601 0.000311855
  outer loop
   vertex 0.102652 0.102582 0
   vertex 0.102494 0.102507 0.01
   vertex 0.102348 0.102431 0
  endloop
 endfacet
 facet normal -0.481927 0.876211 0.000376705
  outer loop
   vertex 0.102494 0.102507 0.01
   vertex 0.102348 0.102431 0
   vertex 0.102214 0.102353 0.01
  endloop
 endfacet
 facet normal 0.52279 -0.852461 0.000356109
  outer loop
   vertex 0.102348 0.102431 0
   vertex 0.102214 0.102353 0.01
   vertex 0.102092 0.102274 0
  endloop
 endfacet
 facet normal -0.56866 0.822573 0.000439632
  outer loop
   vertex 0.102214 0.102353 0.01
   vertex 0.102092 0.102274 0
   vertex 0.101984 0.102194 0.01
  endloop
 endfacet
 facet normal 0.619524 -0.784977 0.000410466
  outer loop
   vertex 0.102092 0.102274 0
   vertex 0.101984 0.102194 0.01
   vertex 0.101888 0.102113 0
  endloop
 endfacet
 facet normal -0.673281 0.739387 0.00047486
  outer loop
   vertex 0.101984 0.102194 0.01
   vertex 0.101888 0.102113 0
   vertex 0.101805 0.102031 0.01
  endloop
 endfacet
 facet normal 0.737522 -0.675323 0.000583675
  outer loop
   vertex 0.101888 0.102113 0
   vertex 0.101805 0.102031 0.01
   vertex 0.101736 0.101947 0
  endloop
 endfacet
 facet normal -0.804579 0.593845 0.000563412
  outer loop
   vertex 0.101805 0.102031 0.01
   vertex 0.101736 0.101947 0
   vertex 0.101681 0.101863 0.01
  endloop
 endfacet
 facet normal 0.871989 -0.489525 0.000683686
  outer loop
   vertex 0.101736 0.101947 0
   vertex 0.101681 0.101863 0.01
   vertex 0.10164 0.101776 0
  endloop
 endfacet
 facet normal -0.931393 0.364014 0.000651823
  outer loop
   vertex 0.101681 0.101863 0.01
   vertex 0.10164 0.101776 0
   vertex 0.101613 0.101689 0.01
  endloop
 endfacet
 facet normal 0.975129 -0.221635 0.000704866
  outer loop
   vertex 0.10164 0.101776 0
   vertex 0.101613 0.101689 0.01
   vertex 0.1016 0.1016 0
  endloop
 endfacet
 facet normal -0.997759 0.0669049 0.000701728
  outer loop
   vertex 0.101613 0.101689 0.01
   vertex 0.1016 0.1016 0
   vertex 0.101601 0.10151 0.01
  endloop
 endfacet
 facet normal 0.995664 0.0930162 0.000737699
  outer loop
   vertex 0.1016 0.1016 0
   vertex 0.101601 0.10151 0.01
   vertex 0.101617 0.101418 0
  endloop
 endfacet
 facet normal -0.969205 -0.246253 0.000714424
  outer loop
   vertex 0.101601 0.10151 0.01
   vertex 0.101617 0.101418 0
   vertex 0.101648 0.101325 0.01
  endloop
 endfacet
 facet normal 0.927117 0.374771 0.000611343
  outer loop
   vertex 0.101617 0.101418 0
   vertex 0.101648 0.101325 0.01
   vertex 0.101693 0.10123 0
  endloop
 endfacet
 facet normal -0.87632 -0.481728 0.000633253
  outer loop
   vertex 0.101648 0.101325 0.01
   vertex 0.101693 0.10123 0
   vertex 0.101753 0.101134 0.01
  endloop
 endfacet
 facet normal 0.822798 0.568334 0.000519297
  outer loop
   vertex 0.101693 0.10123 0
   vertex 0.101753 0.101134 0.01
   vertex 0.101827 0.101036 0
  endloop
 endfacet
 facet normal -0.772034 -0.635581 0.000515443
  outer loop
   vertex 0.101753 0.101134 0.01
   vertex 0.101827 0.101036 0
   vertex 0.101916 0.100936 0.01
  endloop
 endfacet
 facet normal 0.723031 0.690816 0.000472987
  outer loop
   vertex 0.101827 0.101036 0
   vertex 0.101916 0.100936 0.01
   vertex 0.10202 0.100834 0
  endloop
 endfacet
 facet normal -0.680319 -0.732916 0.000400685
  outer loop
   vertex 0.101916 0.100936 0.01
   vertex 0.10202 0.100834 0
   vertex 0.102139 0.100729 0.01
  endloop
 endfacet
 facet normal 0.641989 0.766714 0.000410297
  outer loop
   vertex 0.10202 0.100834 0
   vertex 0.102139 0.100729 0.01
   vertex 0.102272 0.100623 0
  endloop
 endfacet
 facet normal -0.607664 -0.794194 0.000337501
  outer loop
   vertex 0.102139 0.100729 0.01
   vertex 0.102272 0.100623 0
   vertex 0.10242 0.100514 0.01
  endloop
 endfacet
 facet normal 0.578731 0.815519 0.000323162
  outer loop
   vertex 0.102272 0.100623 0
   vertex 0.10242 0.100514 0.01
   vertex 0.102582 0.100403 0
  endloop
 endfacet
 facet normal -0.551867 -0.833932 0.000316402
  outer loop
   vertex 0.10242 0.100514 0.01
   vertex 0.102582 0.100403 0
   vertex 0.10276 0.100289 0.01
  endloop
 endfacet
 facet normal 0.53063 0.847604 0.000217495
  outer loop
   vertex 0.102582 0.100403 0
   vertex 0.10276 0.100289 0.01
   vertex 0.102951 0.100172 0
  endloop
 endfacet
 facet normal -0.512594 -0.858631 0.000256
  outer loop
   vertex 0.10276 0.100289 0.01
   vertex 0.102951 0.100172 0
   vertex 0.103157 0.100052 0.01
  endloop
 endfacet
 facet normal 0.494605 0.869118 0.000240424
  outer loop
   vertex 0.102951 0.100172 0
   vertex 0.103157 0.100052 0.01
   vertex 0.103378 0.099929 0
  endloop
 endfacet
 facet normal -0.481545 -0.876422 0.000138034
  outer loop
   vertex 0.103157 0.100052 0.01
   vertex 0.103378 0.099929 0
   vertex 0.103612 0.099802 0.01
  endloop
 endfacet
 facet normal 0.471156 0.88205 0.000176539
  outer loop
   vertex 0.103378 0.099929 0
   vertex 0.103612 0.099802 0.01
   vertex 0.103861 0.099671 0
  endloop
 endfacet
 facet normal -0.459659 -0.888095 0.000188926
  outer loop
   vertex 0.103612 0.099802 0.01
   vertex 0.103861 0.099671 0
   vertex 0.104124 0.099537 0.01
  endloop
 endfacet
 facet normal 0.451834 0.892102 7.05565e-05
  outer loop
   vertex 0.103861 0.099671 0
   vertex 0.104124 0.099537 0.01
   vertex 0.1044 0.099398 0
  endloop
 endfacet
 facet normal -0.445316 -0.895373 0.000154825
  outer loop
   vertex 0.104124 0.099537 0.01
   vertex 0.1044 0.099398 0
   vertex 0.104691 0.099255 0.01
  endloop
 endfacet
 facet normal 0.440569 0.897719 1.685e-05
  outer loop
   vertex 0.1044 0.099398 0
   vertex 0.104691 0.099255 0.01
   vertex 0.104995 0.099106 0
  endloop
 endfacet
 facet normal -0.43677 -0.899573 0.000126271
  outer loop
   vertex 0.104691 0.099255 0.01
   vertex 0.104995 0.099106 0
   vertex 0.105313 0.098953 0.01
  endloop
 endfacet
 facet normal 0.432143 0.901805 5.50021e-05
  outer loop
   vertex 0.104995 0.099106 0
   vertex 0.105313 0.098953 0.01
   vertex 0.105644 0.098795 0
  endloop
 endfacet
 facet normal -0.431123 -0.902293 -1.3512e-05
  outer loop
   vertex 0.105313 0.098953 0.01
   vertex 0.105644 0.098795 0
   vertex 0.105989 0.09863 0.01
  endloop
 endfacet
 facet normal 0.430682 0.902504 3.22027e-05
  outer loop
   vertex 0.105644 0.098795 0
   vertex 0.105989 0.09863 0.01
   vertex 0.106346 0.09846 0
  endloop
 endfacet
 facet normal -0.430276 -0.902698 -1.44067e-05
  outer loop
   vertex 0.105989 0.09863 0.01
   vertex 0.106346 0.09846 0
   vertex 0.106717 0.098283 0.01
  endloop
 endfacet
 facet normal 0.430396 0.90264 8.91975e-06
  outer loop
   vertex 0.106346 0.09846 0
   vertex 0.106717 0.098283 0.01
   vertex 0.107101 0.0981 0
  endloop
 endfacet
 facet normal -0.431902 -0.901921 -7.99162e-05
  outer loop
   vertex 0.106717 0.098283 0.01
   vertex 0.107101 0.0981 0
   vertex 0.107498 0.097909 0.01
  endloop
 endfacet
 facet normal 0.434219 0.900807 -3.3346e-05
  outer loop
   vertex 0.107101 0.0981 0
   vertex 0.107498 0.097909 0.01
   vertex 0.107908 0.097711 0
  endloop
 endfacet
 facet normal -0.435931 -0.89998 -5.31857e-05
  outer loop
   vertex 0.107498 0.097909 0.01
   vertex 0.107908 0.097711 0
   vertex 0.10833 0.097506 0.01
  endloop
 endfacet
 facet normal 0.439229 0.898375 -0.000118927
  outer loop
   vertex 0.107908 0.097711 0
   vertex 0.10833 0.097506 0.01
   vertex 0.108765 0.097292 0
  endloop
 endfacet
 facet normal -0.443553 -0.896248 -0.000114654
  outer loop
   vertex 0.10833 0.097506 0.01
   vertex 0.108765 0.097292 0
   vertex 0.109213 0.097069 0.01
  endloop
 endfacet
 facet normal 0.448 0.894034 -0.000133964
  outer loop
   vertex 0.108765 0.097292 0
   vertex 0.109213 0.097069 0.01
   vertex 0.109673 0.096837 0
  endloop
 endfacet
 facet normal -0.452178 -0.891928 -0.000107104
  outer loop
   vertex 0.109213 0.097069 0.01
   vertex 0.109673 0.096837 0
   vertex 0.110146 0.096596 0.01
  endloop
 endfacet
 facet normal 0.457222 0.889352 -0.000193544
  outer loop
   vertex 0.109673 0.096837 0
   vertex 0.110146 0.096596 0.01
   vertex 0.11063 0.096345 0
  endloop
 endfacet
 facet normal -0.462321 -0.886712 -0.000119509
  outer loop
   vertex 0.110146 0.096596 0.01
   vertex 0.11063 0.096345 0
   vertex 0.111128 0.096084 0.01
  endloop
 endfacet
 facet normal 0.46712 0.884194 -0.000185191
  outer loop
   vertex 0.11063 0.096345 0
   vertex 0.111128 0.096084 0.01
   vertex 0.111637 0.095813 0
  endloop
 endfacet
 facet normal -0.473334 -0.880883 -0.000220808
  outer loop
   vertex 0.111128 0.096084 0.01
   vertex 0.111637 0.095813 0
   vertex 0.112159 0.09553 0.01
  endloop
 endfacet
 facet normal 0.480135 0.877194 -0.00023862
  outer loop
   vertex 0.111637 0.095813 0
   vertex 0.112159 0.09553 0.01
   vertex 0.112693 0.095235 0
  endloop
 endfacet
 facet normal -0.486262 -0.873813 -0.000188316
  outer loop
   vertex 0.112159 0.09553 0.01
   vertex 0.112693 0.095235 0
   vertex 0.113239 0.094929 0.01
  endloop
 endfacet
 facet normal 0.492315 0.870417 -0.000246114
  outer loop
   vertex 0.112693 0.095235 0
   vertex 0.113239 0.094929 0.01
   vertex 0.113798 0.09461 0
  endloop
 endfacet
 facet normal -0.498949 -0.866632 -0.000245433
  outer loop
   vertex 0.113239 0.094929 0.01
   vertex 0.113798 0.09461 0
   vertex 0.114368 0.094279 0.01
  endloop
 endfacet
 facet normal 0.505776 0.862665 -0.000275063
  outer loop
   vertex 0.113798 0.09461 0
   vertex 0.114368 0.094279 0.01
   vertex 0.114951 0.093934 0
  endloop
 endfacet
 facet normal -0.512136 -0.858904 -0.000225421
  outer loop
   vertex 0.114368 0.094279 0.01
   vertex 0.114951 0.093934 0
   vertex 0.115547 0.093576 0.01
  endloop
 endfacet
 facet normal 0.518774 0.854911 -0.000313173
  outer loop
   vertex 0.114951 0.093934 0
   vertex 0.115547 0.093576 0.01
   vertex 0.116154 0.093204 0
  endloop
 endfacet
 facet normal -0.525567 -0.850752 -0.00025386
  outer loop
   vertex 0.115547 0.093576 0.01
   vertex 0.116154 0.093204 0
   vertex 0.116774 0.092818 0.01
  endloop
 endfacet
 facet normal 0.531879 0.84682 -0.000289276
  outer loop
   vertex 0.116154 0.093204 0
   vertex 0.116774 0.092818 0.01
   vertex 0.117407 0.092417 0
  endloop
 endfacet
 facet normal -0.538923 -0.842355 -0.000335668
  outer loop
   vertex 0.116774 0.092818 0.01
   vertex 0.117407 0.092417 0
   vertex 0.118051 0.092001 0.01
  endloop
 endfacet
 facet normal 0.545308 0.838236 -0.000246888
  outer loop
   vertex 0.117407 0.092417 0
   vertex 0.118051 0.092001 0.01
   vertex 0.118709 0.09157 0
  endloop
 endfacet
 facet normal -0.551507 -0.83417 -0.000336202
  outer loop
   vertex 0.118051 0.092001 0.01
   vertex 0.118709 0.09157 0
   vertex 0.119379 0.091123 0.01
  endloop
 endfacet
 facet normal 0.558375 0.829589 -0.000328725
  outer loop
   vertex 0.118709 0.09157 0
   vertex 0.119379 0.091123 0.01
   vertex 0.120061 0.09066 0
  endloop
 endfacet
 facet normal -0.56434 -0.825542 -0.000265468
  outer loop
   vertex 0.119379 0.091123 0.01
   vertex 0.120061 0.09066 0
   vertex 0.120757 0.090181 0.01
  endloop
 endfacet
 facet normal 0.570396 0.82137 -0.000355935
  outer loop
   vertex 0.120061 0.09066 0
   vertex 0.120757 0.090181 0.01
   vertex 0.121465 0.089685 0
  endloop
 endfacet
 facet normal -0.576416 -0.817157 -0.000279176
  outer loop
   vertex 0.120757 0.090181 0.01
   vertex 0.121465 0.089685 0
   vertex 0.122186 0.089173 0.01
  endloop
 endfacet
 facet normal 0.581873 0.81328 -0.000312821
  outer loop
   vertex 0.121465 0.089685 0
   vertex 0.122186 0.089173 0.01
   vertex 0.12292 0.088644 0
  endloop
 endfacet
 facet normal -0.587423 -0.80928 -0.000306116
  outer loop
   vertex 0.122186 0.089173 0.01
   vertex 0.12292 0.088644 0
   vertex 0.123667 0.088098 0.01
  endloop
 endfacet
 facet normal 0.592451 0.805606 -0.000270071
  outer loop
   vertex 0.12292 0.088644 0
   vertex 0.123667 0.088098 0.01
   vertex 0.124428 0.087535 0
  endloop
 endfacet
 facet normal -0.597486 -0.801879 -0.000322887
  outer loop
   vertex 0.123667 0.088098 0.01
   vertex 0.124428 0.087535 0
   vertex 0.125201 0.086955 0.01
  endloop
 endfacet
 facet normal 0.602287 0.79828 -0.000257037
  outer loop
   vertex 0.124428 0.087535 0
   vertex 0.125201 0.086955 0.01
   vertex 0.125988 0.086358 0
  endloop
 endfacet
 facet normal -0.606632 -0.794983 -0.000281701
  outer loop
   vertex 0.125201 0.086955 0.01
   vertex 0.125988 0.086358 0
   vertex 0.126788 0.085744 0.01
  endloop
 endfacet
 facet normal 0.611326 0.791379 -0.000315093
  outer loop
   vertex 0.125988 0.086358 0
   vertex 0.126788 0.085744 0.01
   vertex 0.127601 0.085112 0
  endloop
 endfacet
 facet normal -0.615506 -0.788132 -0.000230016
  outer loop
   vertex 0.126788 0.085744 0.01
   vertex 0.127601 0.085112 0
   vertex 0.128427 0.084464 0.01
  endloop
 endfacet
 facet normal 0.618985 0.785403 -0.000234171
  outer loop
   vertex 0.127601 0.085112 0
   vertex 0.128427 0.084464 0.01
   vertex 0.129267 0.083799 0
  endloop
 endfacet
 facet normal -0.622608 -0.782534 -0.000260911
  outer loop
   vertex 0.128427 0.084464 0.01
   vertex 0.129267 0.083799 0
   vertex 0.13012 0.083117 0.01
  endloop
 endfacet
 facet normal 0.625746 0.780027 -0.00017776
  outer loop
   vertex 0.129267 0.083799 0
   vertex 0.13012 0.083117 0.01
   vertex 0.130986 0.08242 0
  endloop
 endfacet
 facet normal -0.628762 -0.777598 -0.000252723
  outer loop
   vertex 0.13012 0.083117 0.01
   vertex 0.130986 0.08242 0
   vertex 0.131865 0.081706 0.01
  endloop
 endfacet
 facet normal 0.631448 0.775418 -0.000139067
  outer loop
   vertex 0.130986 0.08242 0
   vertex 0.131865 0.081706 0.01
   vertex 0.132758 0.080977 0
  endloop
 endfacet
 facet normal -0.633986 -0.773344 -0.000238761
  outer loop
   vertex 0.131865 0.081706 0.01
   vertex 0.132758 0.080977 0
   vertex 0.133663 0.080232 0.01
  endloop
 endfacet
 facet normal 0.636392 0.771366 -0.000126298
  outer loop
   vertex 0.132758 0.080977 0
   vertex 0.133663 0.080232 0.01
   vertex 0.134581 0.079473 0
  endloop
 endfacet
 facet normal -0.63797 -0.770061 -0.000117665
  outer loop
   vertex 0.133663 0.080232 0.01
   vertex 0.134581 0.079473 0
   vertex 0.135511 0.078701 0.01
  endloop
 endfacet
 facet normal 0.639497 0.768793 -0.00012219
  outer loop
   vertex 0.134581 0.079473 0
   vertex 0.135511 0.078701 0.01
   vertex 0.136454 0.077915 0
  endloop
 endfacet
 facet normal -0.640978 -0.767559 -0.000114521
  outer loop
   vertex 0.135511 0.078701 0.01
   vertex 0.136454 0.077915 0
   vertex 0.137409 0.077116 0.01
  endloop
 endfacet
 facet normal 0.642106 0.766616 -6.84625e-05
  outer loop
   vertex 0.136454 0.077915 0
   vertex 0.137409 0.077116 0.01
   vertex 0.138375 0.076306 0
  endloop
 endfacet
 facet normal -0.642704 -0.766115 -2.98999e-05
  outer loop
   vertex 0.137409 0.077116 0.01
   vertex 0.138375 0.076306 0
   vertex 0.139352 0.075486 0.01
  endloop
 endfacet
 facet normal 0.643093 0.765788 -3.48831e-05
  outer loop
   vertex 0.138375 0.076306 0
   vertex 0.139352 0.075486 0.01
   vertex 0.140341 0.074655 0
  endloop
 endfacet
 facet normal -0.643207 -0.765692 1.54961e-05
  outer loop
   vertex 0.139352 0.075486 0.01
   vertex 0.140341 0.074655 0
   vertex 0.14134 0.073816 0.01
  endloop
 endfacet
 facet normal 0.643217 0.765684 -1.71748e-05
  outer loop
   vertex 0.140341 0.074655 0
   vertex 0.14134 0.073816 0.01
   vertex 0.142348 0.072969 0
  endloop
 endfacet
 facet normal -0.643009 -0.765859 5.30816e-05
  outer loop
   vertex 0.14134 0.073816 0.01
   vertex 0.142348 0.072969 0
   vertex 0.143366 0.072115 0.01
  endloop
 endfacet
 facet normal 0.641917 0.766774 0.000136244
  outer loop
   vertex 0.142348 0.072969 0
   vertex 0.143366 0.072115 0.01
   vertex 0.144393 0.071257 0
  endloop
 endfacet
 facet normal -0.640731 -0.767765 7.04936e-05
  outer loop
   vertex 0.143366 0.072115 0.01
   vertex 0.144393 0.071257 0
   vertex 0.145427 0.070395 0.01
  endloop
 endfacet
 facet normal 0.639529 0.768767 0.000140268
  outer loop
   vertex 0.144393 0.071257 0
   vertex 0.145427 0.070395 0.01
   vertex 0.146469 0.06953 0
  endloop
 endfacet
 facet normal -0.638044 -0.77 0.000121003
  outer loop
   vertex 0.145427 0.070395 0.01
   vertex 0.146469 0.06953 0
   vertex 0.147516 0.068664 0.01
  endloop
 endfacet
 facet normal 0.635656 0.771973 0.000299952
  outer loop
   vertex 0.146469 0.06953 0
   vertex 0.147516 0.068664 0.01
   vertex 0.14857 0.0678 0
  endloop
 endfacet
 facet normal -0.633197 -0.77399 0.000133462
  outer loop
   vertex 0.147516 0.068664 0.01
   vertex 0.14857 0.0678 0
   vertex 0.149627 0.066937 0.01
  endloop
 endfacet
 facet normal 0.630622 0.77609 0.000319917
  outer loop
   vertex 0.14857 0.0678 0
   vertex 0.149627 0.066937 0.01
   vertex 0.150688 0.066079 0
  endloop
 endfacet
 facet normal -0.62715 -0.778898 0.000289376
  outer loop
   vertex 0.149627 0.066937 0.01
   vertex 0.150688 0.066079 0
   vertex 0.151752 0.065226 0.01
  endloop
 endfacet
 facet normal 0.623483 0.781837 0.000351547
  outer loop
   vertex 0.150688 0.066079 0
   vertex 0.151752 0.065226 0.01
   vertex 0.152816 0.064382 0
  endloop
 endfacet
 facet normal -0.619644 -0.784883 0.000314029
  outer loop
   vertex 0.151752 0.065226 0.01
   vertex 0.152816 0.064382 0
   vertex 0.15388 0.063546 0.01
  endloop
 endfacet
 facet normal 0.615248 0.788333 0.000442108
  outer loop
   vertex 0.152816 0.064382 0
   vertex 0.15388 0.063546 0.01
   vertex 0.154943 0.062722 0
  endloop
 endfacet
 facet normal -0.609928 -0.792457 0.000463206
  outer loop
   vertex 0.15388 0.063546 0.01
   vertex 0.154943 0.062722 0
   vertex 0.156003 0.061912 0.01
  endloop
 endfacet
 facet normal 0.60451 0.796597 0.000446487
  outer loop
   vertex 0.154943 0.062722 0
   vertex 0.156003 0.061912 0.01
   vertex 0.157058 0.061117 0
  endloop
 endfacet
 facet normal -0.598599 -0.801049 0.000530978
  outer loop
   vertex 0.156003 0.061912 0.01
   vertex 0.157058 0.061117 0
   vertex 0.158108 0.060339 0.01
  endloop
 endfacet
 facet normal 0.591647 0.806197 0.0005995
  outer loop
   vertex 0.157058 0.061117 0
   vertex 0.158108 0.060339 0.01
   vertex 0.159151 0.059581 0
  endloop
 endfacet
 facet normal -0.584377 -0.811482 0.000559449
  outer loop
   vertex 0.158108 0.060339 0.01
   vertex 0.159151 0.059581 0
   vertex 0.160184 0.058844 0.01
  endloop
 endfacet
 facet normal 0.576792 0.816891 0.000622702
  outer loop
   vertex 0.159151 0.059581 0
   vertex 0.160184 0.058844 0.01
   vertex 0.161206 0.05813 0
  endloop
 endfacet
 facet normal -0.567904 -0.823094 0.000728514
  outer loop
   vertex 0.160184 0.058844 0.01
   vertex 0.161206 0.05813 0
   vertex 0.162216 0.057442 0.01
  endloop
 endfacet
 facet normal 0.558037 0.829816 0.000730451
  outer loop
   vertex 0.161206 0.05813 0
   vertex 0.162216 0.057442 0.01
   vertex 0.163212 0.056781 0
  endloop
 endfacet
 facet normal -0.54774 -0.836648 0.000746838
  outer loop
   vertex 0.162216 0.057442 0.01
   vertex 0.163212 0.056781 0
   vertex 0.164191 0.056149 0.01
  endloop
 endfacet
 facet normal 0.536201 0.84409 0.000853145
  outer loop
   vertex 0.163212 0.056781 0
   vertex 0.164191 0.056149 0.01
   vertex 0.165153 0.055548 0
  endloop
 endfacet
 facet normal -0.52342 -0.852074 0.000856226
  outer loop
   vertex 0.164191 0.056149 0.01
   vertex 0.165153 0.055548 0
   vertex 0.166094 0.05498 0.01
  endloop
 endfacet
 facet normal 0.509865 0.860254 0.00088389
  outer loop
   vertex 0.165153 0.055548 0
   vertex 0.166094 0.05498 0.01
   vertex 0.167014 0.054445 0
  endloop
 endfacet
 facet normal -0.4948 -0.869006 0.000970361
  outer loop
   vertex 0.166094 0.05498 0.01
   vertex 0.167014 0.054445 0
   vertex 0.16791 0.053946 0.01
  endloop
 endfacet
 facet normal 0.478365 0.878161 0.000959
  outer loop
   vertex 0.167014 0.054445 0
   vertex 0.16791 0.053946 0.01
   vertex 0.16878 0.053483 0
  endloop
 endfacet
 facet normal -0.460436 -0.887692 0.0010421
  outer loop
   vertex 0.16791 0.053946 0.01
   vertex 0.16878 0.053483 0
   vertex 0.169622 0.053058 0.01
  endloop
 endfacet
 facet normal 0.440474 0.897765 0.00106687
  outer loop
   vertex 0.16878 0.053483 0
   vertex 0.169622 0.053058 0.01
   vertex 0.170435 0.052671 0
  endloop
 endfacet
 facet normal -0.418734 -0.908108 0.00110082
  outer loop
   vertex 0.169622 0.053058 0.01
   vertex 0.170435 0.052671 0
   vertex 0.171216 0.052323 0.01
  endloop
 endfacet
 facet normal 0.394787 0.918772 0.00114055
  outer loop
   vertex 0.170435 0.052671 0
   vertex 0.171216 0.052323 0.01
   vertex 0.171964 0.052014 0
  endloop
 endfacet
 facet normal -0.368426 -0.929656 0.00116759
  outer loop
   vertex 0.171216 0.052323 0.01
   vertex 0.171964 0.052014 0
   vertex 0.172677 0.051744 0.01
  endloop
 endfacet
 facet normal 0.339895 0.940463 0.00115841
  outer loop
   vertex 0.171964 0.052014 0
   vertex 0.172677 0.051744 0.01
   vertex 0.173353 0.051512 0
  endloop
 endfacet
 facet normal -0.308397 -0.951257 0.00122132
  outer loop
   vertex 0.172677 0.051744 0.01
   vertex 0.173353 0.051512 0
   vertex 0.173991 0.051318 0.01
  endloop
 endfacet
 facet normal 0.274413 0.961611 0.00114775
  outer loop
   vertex 0.173353 0.051512 0
   vertex 0.173991 0.051318 0.01
   vertex 0.17459 0.051159 0
  endloop
 endfacet
 facet normal -0.238387 -0.97117 0.00116224
  outer loop
   vertex 0.173991 0.051318 0.01
   vertex 0.17459 0.051159 0
   vertex 0.175148 0.051034 0.01
  endloop
 endfacet
 facet normal 0.1998 0.979836 0.00109916
  outer loop
   vertex 0.17459 0.051159 0
   vertex 0.175148 0.051034 0.01
   vertex 0.175664 0.05094 0
  endloop
 endfacet
 facet normal -0.159703 -0.987164 0.00103871
  outer loop
   vertex 0.175148 0.051034 0.01
   vertex 0.175664 0.05094 0
   vertex 0.176137 0.050874 0.01
  endloop
 endfacet
 facet normal 0.118753 0.992923 0.000936261
  outer loop
   vertex 0.175664 0.05094 0
   vertex 0.176137 0.050874 0.01
   vertex 0.176567 0.050832 0
  endloop
 endfacet
 facet normal -0.0781871 -0.996938 0.000824969
  outer loop
   vertex 0.176137 0.050874 0.01
   vertex 0.176567 0.050832 0
   vertex 0.176953 0.05081 0.01
  endloop
 endfacet
 facet normal 0.0424834 0.999097 0.000557941
  outer loop
   vertex 0.176567 0.050832 0
   vertex 0.176953 0.05081 0.01
   vertex 0.177296 0.050801 0
  endloop
 endfacet
 facet normal -0.0155781 -0.999879 0.000365599
  outer loop
   vertex 0.176953 0.05081 0.01
   vertex 0.177296 0.050801 0
   vertex 0.177595 0.0508 0.01
  endloop
 endfacet
 facet normal 0.00335142 0.999994 0
  outer loop
   vertex 0.177296 0.050801 0
   vertex 0.177595 0.0508 0.01
   vertex 0.177595 0.0508 0
  endloop
 endfacet
 facet normal 0 -1 0
  outer loop
   vertex 0.177595 0.0508 0.01
   vertex 0.177595 0.0508 0
   vertex 0.279195 0.0508 0.01
  endloop
 endfacet
 facet normal 0 1 0
  outer loop
   vertex 0.177595 0.0508 0
   vertex 0.279195 0.0508 0.01
   vertex 0.279195 0.0508 0
  endloop
 endfacet
 facet normal 0 1 0
  outer loop
   vertex 0.139597 0.104482 0.01
   vertex 0.139597 0.104482 0
   vertex 0.116854 0.104482 0.01
  endloop
 endfacet
 facet normal 0 -1 0
  outer loop
   vertex 0.139597 0.104482 0
   vertex 0.116854 0.104482 0.01
   vertex 0.116854 0.104482 0
  endloop
 endfacet
endsolid test_0
solid test_1
 facet normal -1 -0 -0
  outer loop
   vertex 0.279195 0.0508 0.01
   vertex 0.279195 0.0508 0
   vertex 0.279195 0 0.01
  endloop
 endfacet
 facet normal 1 0 0
  outer loop
   vertex 0.279195 0.0508 0
   vertex 0.279195 0 0.01
   vertex 0.279195 0 0
  endloop
 endfacet
endsolid test_1
solid test_2
 facet normal 0 1 0
  outer loop
   vertex 0.279195 0 0.01
   vertex 0.279195 0 0
   vertex 0 0 0.01
  endloop
 endfacet
 facet normal 0 -1 0
  outer loop
   vertex 0.279195 0 0
   vertex 0 0 0.01
   vertex 0 0 0
  endloop
 endfacet
endsolid test_2
solid test_3
 facet normal 1 -0 0
  outer loop
   vertex 0 0 0.01
   vertex 0 0 0
   vertex 0 0.127 0.01
  endloop
 endfacet
 facet normal -1 0 0
  outer loop
   vertex 0 0 0
   vertex 0 0.127 0.01
   vertex 0 0.127 0
  endloop
 endfacet
endsolid test_3
solid test_4
 facet normal 0 -1 0
  outer loop
   vertex 0 0.127 0.01
   vertex 0 0.127 0
   vertex 0.139597 0.127 0.01
  endloop
 endfacet
 facet normal 0 1 0
  outer loop
   vertex 0 0.127 0
   vertex 0.139597 0.127 0.01
   vertex 0.139597 0.127 0
  endloop
 endfacet
endsolid test_4
solid test_5
 facet normal -1 -0 -0
  outer loop
   vertex 0.139597 0.127 0.01
   vertex 0.139597 0.127 0
   vertex 0.139597 0.104482 0.01
  endloop
 endfacet
 facet normal 1 0 0
  outer loop
   vertex 0.139597 0.127 0
   vertex 0.139597 0.104482 0.01
   vertex 0.139597 0.104482 0
  endloop
 endfacet
endsolid test_5
