solid test_0
 facet normal 0 -1 0
  outer loop
   vertex 0.112087 0.104482 0
   vertex 0.112087 0.104482 0.01
   vertex 0.112029 0.104482 0
  endloop
 endfacet
 facet normal 0 1 0
  outer loop
   vertex 0.112087 0.104482 0.01
   vertex 0.112029 0.104482 0
   vertex 0.112029 0.104482 0.01
  endloop
 endfacet
 facet normal 0 -1 0
  outer loop
   vertex 0.112029 0.104482 0
   vertex 0.112029 0.104482 0.01
   vertex 0.111971 0.104482 0
  endloop
 endfacet
 facet normal 0 1 0
  outer loop
   vertex 0.112029 0.104482 0.01
   vertex 0.111971 0.104482 0
   vertex 0.111913 0.104482 0.01
  endloop
 endfacet
 facet normal 0 -1 0
  outer loop
   vertex 0.111971 0.104482 0
   vertex 0.111913 0.104482 0.01
   vertex 0.111854 0.104482 0
  endloop
 endfacet
 facet normal -0.00845199 0.999964 4.98677e-05
  outer loop
   vertex 0.111913 0.104482 0.01
   vertex 0.111854 0.104482 0
   vertex 0.111794 0.104481 0.01
  endloop
 endfacet
 facet normal 0.00838168 -0.999965 -5.02897e-05
  outer loop
   vertex 0.111854 0.104482 0
   vertex 0.111794 0.104481 0.01
   vertex 0.111734 0.104481 0
  endloop
 endfacet
 facet normal 0 1 0
  outer loop
   vertex 0.111794 0.104481 0.01
   vertex 0.111734 0.104481 0
   vertex 0.111672 0.104481 0.01
  endloop
 endfacet
 facet normal 0 -1 0
  outer loop
   vertex 0.111734 0.104481 0
   vertex 0.111672 0.104481 0.01
   vertex 0.111608 0.104481 0
  endloop
 endfacet
 facet normal -0.00773917 0.99997 4.95311e-05
  outer loop
   vertex 0.111672 0.104481 0.01
   vertex 0.111608 0.104481 0
   vertex 0.111543 0.10448 0.01
  endloop
 endfacet
 facet normal 0.0150115 -0.999887 -2.25366e-06
  outer loop
   vertex 0.111608 0.104481 0
   vertex 0.111543 0.10448 0.01
   vertex 0.111475 0.104479 0
  endloop
 endfacet
 facet normal -0.0143639 0.999897 -2.15109e-06
  outer loop
   vertex 0.111543 0.10448 0.01
   vertex 0.111475 0.104479 0
   vertex 0.111404 0.104478 0.01
  endloop
 endfacet
 facet normal 0.0138653 -0.999904 -1.38944e-06
  outer loop
   vertex 0.111475 0.104479 0
   vertex 0.111404 0.104478 0.01
   vertex 0.111331 0.104477 0
  endloop
 endfacet
 facet normal -0.0200129 0.9998 4.62778e-05
  outer loop
   vertex 0.111404 0.104478 0.01
   vertex 0.111331 0.104477 0
   vertex 0.111254 0.104475 0.01
  endloop
 endfacet
 facet normal 0.0254758 -0.999675 -4.18758e-06
  outer loop
   vertex 0.111331 0.104477 0
   vertex 0.111254 0.104475 0.01
   vertex 0.111174 0.104473 0
  endloop
 endfacet
 facet normal -0.0243885 0.999703 -4.51555e-06
  outer loop
   vertex 0.111254 0.104475 0.01
   vertex 0.111174 0.104473 0
   vertex 0.11109 0.104471 0.01
  endloop
 endfacet
 facet normal 0.029053 -0.999578 4.37243e-05
  outer loop
   vertex 0.111174 0.104473 0
   vertex 0.11109 0.104471 0.01
   vertex 0.111002 0.104468 0
  endloop
 endfacet
 facet normal -0.0386243 0.999254 4.05991e-05
  outer loop
   vertex 0.11109 0.104471 0.01
   vertex 0.111002 0.104468 0
   vertex 0.110909 0.104464 0.01
  endloop
 endfacet
 facet normal 0.0418591 -0.999124 -1.04634e-05
  outer loop
   vertex 0.111002 0.104468 0
   vertex 0.110909 0.104464 0.01
   vertex 0.110811 0.10446 0
  endloop
 endfacet
 facet normal -0.0449552 0.998989 4.08585e-05
  outer loop
   vertex 0.110909 0.104464 0.01
   vertex 0.110811 0.10446 0
   vertex 0.110709 0.104455 0.01
  endloop
 endfacet
 facet normal 0.0525794 -0.998617 3.70983e-05
  outer loop
   vertex 0.110811 0.10446 0
   vertex 0.110709 0.104455 0.01
   vertex 0.110602 0.104449 0
  endloop
 endfacet
 facet normal -0.0544792 0.998515 -1.67095e-05
  outer loop
   vertex 0.110709 0.104455 0.01
   vertex 0.110602 0.104449 0
   vertex 0.110489 0.104443 0.01
  endloop
 endfacet
 facet normal 0.0607557 -0.998153 8.78485e-05
  outer loop
   vertex 0.110602 0.104449 0
   vertex 0.110489 0.104443 0.01
   vertex 0.110372 0.104435 0
  endloop
 endfacet
 facet normal -0.0665026 0.997786 -2.03149e-05
  outer loop
   vertex 0.110489 0.104443 0.01
   vertex 0.110372 0.104435 0
   vertex 0.110249 0.104427 0.01
  endloop
 endfacet
 facet normal 0.0672865 -0.997734 2.99992e-05
  outer loop
   vertex 0.110372 0.104435 0
   vertex 0.110249 0.104427 0.01
   vertex 0.11012 0.104418 0
  endloop
 endfacet
 facet normal -0.0720522 0.997401 3.17785e-05
  outer loop
   vertex 0.110249 0.104427 0.01
   vertex 0.11012 0.104418 0
   vertex 0.109986 0.104408 0.01
  endloop
 endfacet
 facet normal 0.0803323 -0.996768 7.9806e-05
  outer loop
   vertex 0.11012 0.104418 0
   vertex 0.109986 0.104408 0.01
   vertex 0.109847 0.104396 0
  endloop
 endfacet
 facet normal -0.0842266 0.996447 -2.52898e-05
  outer loop
   vertex 0.109986 0.104408 0.01
   vertex 0.109847 0.104396 0
   vertex 0.109702 0.104384 0.01
  endloop
 endfacet
 facet normal 0.0844575 -0.996427 2.86604e-05
  outer loop
   vertex 0.109847 0.104396 0
   vertex 0.109702 0.104384 0.01
   vertex 0.109552 0.104371 0
  endloop
 endfacet
 facet normal -0.0914174 0.995813 7.65343e-05
  outer loop
   vertex 0.109702 0.104384 0.01
   vertex 0.109552 0.104371 0
   vertex 0.109397 0.104356 0.01
  endloop
 endfacet
 facet normal 0.0976147 -0.995224 2.04072e-05
  outer loop
   vertex 0.109552 0.104371 0
   vertex 0.109397 0.104356 0.01
   vertex 0.109236 0.10434 0
  endloop
 endfacet
 facet normal -0.103723 0.994606 7.89203e-05
  outer loop
   vertex 0.109397 0.104356 0.01
   vertex 0.109236 0.10434 0
   vertex 0.109071 0.104322 0.01
  endloop
 endfacet
 facet normal 0.109779 -0.993956 2.21761e-05
  outer loop
   vertex 0.109236 0.10434 0
   vertex 0.109071 0.104322 0.01
   vertex 0.108901 0.104303 0
  endloop
 endfacet
 facet normal -0.112339 0.99367 2.1892e-05
  outer loop
   vertex 0.109071 0.104322 0.01
   vertex 0.108901 0.104303 0
   vertex 0.108726 0.104283 0.01
  endloop
 endfacet
 facet normal 0.115052 -0.993359 2.62015e-05
  outer loop
   vertex 0.108901 0.104303 0
   vertex 0.108726 0.104283 0.01
   vertex 0.108547 0.104262 0
  endloop
 endfacet
 facet normal -0.123343 0.992364 0.000124308
  outer loop
   vertex 0.108726 0.104283 0.01
   vertex 0.108547 0.104262 0
   vertex 0.108364 0.104238 0.01
  endloop
 endfacet
 facet normal 0.128661 -0.991689 -2.5369e-05
  outer loop
   vertex 0.108547 0.104262 0
   vertex 0.108364 0.104238 0.01
   vertex 0.108177 0.104214 0
  endloop
 endfacet
 facet normal -0.131136 0.991364 7.24217e-05
  outer loop
   vertex 0.108364 0.104238 0.01
   vertex 0.108177 0.104214 0
   vertex 0.107986 0.104188 0.01
  endloop
 endfacet
 facet normal 0.138885 -0.990308 7.83366e-05
  outer loop
   vertex 0.108177 0.104214 0
   vertex 0.107986 0.104188 0.01
   vertex 0.107792 0.10416 0
  endloop
 endfacet
 facet normal -0.144264 0.989539 2.81609e-05
  outer loop
   vertex 0.107986 0.104188 0.01
   vertex 0.107792 0.10416 0
   vertex 0.107595 0.104131 0.01
  endloop
 endfacet
 facet normal 0.149823 -0.988713 8.37529e-05
  outer loop
   vertex 0.107792 0.10416 0
   vertex 0.107595 0.104131 0.01
   vertex 0.107396 0.1041 0
  endloop
 endfacet
 facet normal -0.157608 0.987502 7.49284e-05
  outer loop
   vertex 0.107595 0.104131 0.01
   vertex 0.107396 0.1041 0
   vertex 0.107194 0.104067 0.01
  endloop
 endfacet
 facet normal 0.163204 -0.986592 4.11026e-05
  outer loop
   vertex 0.107396 0.1041 0
   vertex 0.107194 0.104067 0.01
   vertex 0.106991 0.104033 0
  endloop
 endfacet
 facet normal -0.169093 0.9856 8.18224e-05
  outer loop
   vertex 0.107194 0.104067 0.01
   vertex 0.106991 0.104033 0
   vertex 0.106786 0.103997 0.01
  endloop
 endfacet
 facet normal 0.177196 -0.984176 8.94125e-05
  outer loop
   vertex 0.106991 0.104033 0
   vertex 0.106786 0.103997 0.01
   vertex 0.10658 0.103959 0
  endloop
 endfacet
 facet normal -0.183286 0.98306 4.029e-05
  outer loop
   vertex 0.106786 0.103997 0.01
   vertex 0.10658 0.103959 0
   vertex 0.106373 0.10392 0.01
  endloop
 endfacet
 facet normal 0.189737 -0.981835 9.80242e-05
  outer loop
   vertex 0.10658 0.103959 0
   vertex 0.106373 0.10392 0.01
   vertex 0.106166 0.103879 0
  endloop
 endfacet
 facet normal -0.196571 0.98049 4.8945e-05
  outer loop
   vertex 0.106373 0.10392 0.01
   vertex 0.106166 0.103879 0
   vertex 0.105959 0.103837 0.01
  endloop
 endfacet
 facet normal 0.205655 -0.978625 0.00014692
  outer loop
   vertex 0.106166 0.103879 0
   vertex 0.105959 0.103837 0.01
   vertex 0.105752 0.103792 0
  endloop
 endfacet
 facet normal -0.21291 0.977072 1.02643e-05
  outer loop
   vertex 0.105959 0.103837 0.01
   vertex 0.105752 0.103792 0
   vertex 0.105546 0.103747 0.01
  endloop
 endfacet
 facet normal 0.221207 -0.975227 0.000168941
  outer loop
   vertex 0.105752 0.103792 0
   vertex 0.105546 0.103747 0.01
   vertex 0.105342 0.103699 0
  endloop
 endfacet
 facet normal -0.231836 0.972755 5.97695e-05
  outer loop
   vertex 0.105546 0.103747 0.01
   vertex 0.105342 0.103699 0
   vertex 0.105139 0.10365 0.01
  endloop
 endfacet
 facet normal 0.240277 -0.970704 0.000121625
  outer loop
   vertex 0.105342 0.103699 0
   vertex 0.105139 0.10365 0.01
   vertex 0.104938 0.103599 0
  endloop
 endfacet
 facet normal -0.25223 0.967667 0.000134116
  outer loop
   vertex 0.105139 0.10365 0.01
   vertex 0.104938 0.103599 0
   vertex 0.10474 0.103546 0.01
  endloop
 endfacet
 facet normal 0.262695 -0.964879 8.78654e-05
  outer loop
   vertex 0.104938 0.103599 0
   vertex 0.10474 0.103546 0.01
   vertex 0.104545 0.103492 0
  endloop
 endfacet
 facet normal -0.271112 0.962548 8.88521e-05
  outer loop
   vertex 0.10474 0.103546 0.01
   vertex 0.104545 0.103492 0
   vertex 0.104353 0.103437 0.01
  endloop
 endfacet
 facet normal 0.282023 -0.959408 0.000137915
  outer loop
   vertex 0.104545 0.103492 0
   vertex 0.104353 0.103437 0.01
   vertex 0.104164 0.10338 0
  endloop
 endfacet
 facet normal -0.296954 0.954892 0.000170029
  outer loop
   vertex 0.104353 0.103437 0.01
   vertex 0.104164 0.10338 0
   vertex 0.10398 0.103321 0.01
  endloop
 endfacet
 facet normal 0.310742 -0.950494 0.000109611
  outer loop
   vertex 0.104164 0.10338 0
   vertex 0.10398 0.103321 0.01
   vertex 0.1038 0.103261 0
  endloop
 endfacet
 facet normal -0.325015 0.945709 0.000176013
  outer loop
   vertex 0.10398 0.103321 0.01
   vertex 0.1038 0.103261 0
   vertex 0.103625 0.103199 0.01
  endloop
 endfacet
 facet normal 0.341519 -0.939875 0.000148984
  outer loop
   vertex 0.1038 0.103261 0
   vertex 0.103625 0.103199 0.01
   vertex 0.103456 0.103136 0
  endloop
 endfacet
 facet normal -0.357855 0.933777 0.00016551
  outer loop
   vertex 0.103625 0.103199 0.01
   vertex 0.103456 0.103136 0
   vertex 0.103291 0.103071 0.01
  endloop
 endfacet
 facet normal 0.375849 -0.926681 0.000177528
  outer loop
   vertex 0.103456 0.103136 0
   vertex 0.103291 0.103071 0.01
   vertex 0.103133 0.103005 0
  endloop
 endfacet
 facet normal -0.394282 0.91899 0.000164457
  outer loop
   vertex 0.103291 0.103071 0.01
   vertex 0.103133 0.103005 0
   vertex 0.102981 0.102938 0.01
  endloop
 endfacet
 facet normal 0.412643 -0.910893 0.000168877
  outer loop
   vertex 0.103133 0.103005 0
   vertex 0.102981 0.102938 0.01
   vertex 0.102835 0.10287 0
  endloop
 endfacet
 facet normal -0.435808 0.90004 0.000243139
  outer loop
   vertex 0.102981 0.102938 0.01
   vertex 0.102835 0.10287 0
   vertex 0.102696 0.1028 0.01
  endloop
 endfacet
 facet normal 0.465476 -0.885061 0.000274094
  outer loop
   vertex 0.102835 0.10287 0
   vertex 0.102696 0.1028 0.01
   vertex 0.102565 0.102728 0
  endloop
 endfacet
 facet normal -0.490252 0.871581 0.000147527
  outer loop
   vertex 0.102696 0.1028 0.01
   vertex 0.102565 0.102728 0
   vertex 0.10244 0.102656 0.01
  endloop
 endfacet
 facet normal 0.518154 -0.855287 0.000318567
  outer loop
   vertex 0.102565 0.102728 0
   vertex 0.10244 0.102656 0.01
   vertex 0.102324 0.102582 0
  endloop
 endfacet
 facet normal -0.552124 0.833762 0.000234756
  outer loop
   vertex 0.10244 0.102656 0.01
   vertex 0.102324 0.102582 0
   vertex 0.102215 0.102507 0.01
  endloop
 endfacet
 facet normal 0.583794 -0.811902 0.000274405
  outer loop
   vertex 0.102324 0.102582 0
   vertex 0.102215 0.102507 0.01
   vertex 0.102114 0.102431 0
  endloop
 endfacet
 facet normal -0.623716 0.781651 0.00035872
  outer loop
   vertex 0.102215 0.102507 0.01
   vertex 0.102114 0.102431 0
   vertex 0.102022 0.102353 0.01
  endloop
 endfacet
 facet normal 0.66568 -0.746237 0.000303588
  outer loop
   vertex 0.102114 0.102431 0
   vertex 0.102022 0.102353 0.01
   vertex 0.101938 0.102274 0
  endloop
 endfacet
 facet normal -0.709347 0.70486 0.000390075
  outer loop
   vertex 0.102022 0.102353 0.01
   vertex 0.101938 0.102274 0
   vertex 0.101864 0.102194 0.01
  endloop
 endfacet
 facet normal 0.754596 -0.65619 0.000334142
  outer loop
   vertex 0.101938 0.102274 0
   vertex 0.101864 0.102194 0.01
   vertex 0.101798 0.102113 0
  endloop
 endfacet
 facet normal -0.798223 0.602362 0.000389803
  outer loop
   vertex 0.101864 0.102194 0.01
   vertex 0.101798 0.102113 0
   vertex 0.101741 0.102031 0.01
  endloop
 endfacet
 facet normal 0.847434 -0.530901 0.000476665
  outer loop
   vertex 0.101798 0.102113 0
   vertex 0.101741 0.102031 0.01
   vertex 0.101694 0.101947 0
  endloop
 endfacet
 facet normal -0.892288 0.451466 0.000401379
  outer loop
   vertex 0.101741 0.102031 0.01
   vertex 0.101694 0.101947 0
   vertex 0.101656 0.101863 0.01
  endloop
 endfacet
 facet normal 0.932918 -0.360087 0.000520671
  outer loop
   vertex 0.101694 0.101947 0
   vertex 0.101656 0.101863 0.01
   vertex 0.101628 0.101776 0
  endloop
 endfacet
 facet normal -0.965401 0.260769 0.000434348
  outer loop
   vertex 0.101656 0.101863 0.01
   vertex 0.101628 0.101776 0
   vertex 0.101609 0.101689 0.01
  endloop
 endfacet
 facet normal 0.98758 -0.157113 0.000509528
  outer loop
   vertex 0.101628 0.101776 0
   vertex 0.101609 0.101689 0.01
   vertex 0.1016 0.1016 0
  endloop
 endfacet
 facet normal -0.999002 0.0446588 0.000501648
  outer loop
   vertex 0.101609 0.101689 0.01
   vertex 0.1016 0.1016 0
   vertex 0.101601 0.10151 0.01
  endloop
 endfacet
 facet normal 0.997832 0.0658086 0.000492627
  outer loop
   vertex 0.1016 0.1016 0
   vertex 0.101601 0.10151 0.01
   vertex 0.101612 0.101418 0
  endloop
 endfacet
 facet normal -0.985368 -0.170438 0.00048368
  outer loop
   vertex 0.101601 0.10151 0.01
   vertex 0.101612 0.101418 0
   vertex 0.101633 0.101325 0.01
  endloop
 endfacet
 facet normal 0.963814 0.266574 0.000455688
  outer loop
   vertex 0.101612 0.101418 0
   vertex 0.101633 0.101325 0.01
   vertex 0.101664 0.10123 0
  endloop
 endfacet
 facet normal -0.935717 -0.352751 0.000450056
  outer loop
   vertex 0.101633 0.101325 0.01
   vertex 0.101664 0.10123 0
   vertex 0.101705 0.101134 0.01
  endloop
 endfacet
 facet normal 0.903553 0.428476 0.000408779
  outer loop
   vertex 0.101664 0.10123 0
   vertex 0.101705 0.101134 0.01
   vertex 0.101756 0.101036 0
  endloop
 endfacet
 facet normal -0.870404 -0.492339 0.000386174
  outer loop
   vertex 0.101705 0.101134 0.01
   vertex 0.101756 0.101036 0
   vertex 0.101817 0.100936 0.01
  endloop
 endfacet
 facet normal 0.835217 0.549921 0.000404245
  outer loop
   vertex 0.101756 0.101036 0
   vertex 0.101817 0.100936 0.01
   vertex 0.101889 0.100834 0
  endloop
 endfacet
 facet normal -0.804166 -0.594405 0.000273092
  outer loop
   vertex 0.101817 0.100936 0.01
   vertex 0.101889 0.100834 0
   vertex 0.10197 0.100729 0.01
  endloop
 endfacet
 facet normal 0.7733 0.63404 0.000393078
  outer loop
   vertex 0.101889 0.100834 0
   vertex 0.10197 0.100729 0.01
   vertex 0.102062 0.100623 0
  endloop
 endfacet
 facet normal -0.74244 -0.669912 0.000271097
  outer loop
   vertex 0.10197 0.100729 0.01
   vertex 0.102062 0.100623 0
   vertex 0.102164 0.100514 0.01
  endloop
 endfacet
 facet normal 0.718438 0.695591 0.000253603
  outer loop
   vertex 0.102062 0.100623 0
   vertex 0.102164 0.100514 0.01
   vertex 0.102275 0.100403 0
  endloop
 endfacet
 facet normal -0.694647 -0.719351 0.000274217
  outer loop
   vertex 0.102164 0.100514 0.01
   vertex 0.102275 0.100403 0
   vertex 0.102397 0.100289 0.01
  endloop
 endfacet
 facet normal 0.672829 0.739798 0.000225054
  outer loop
   vertex 0.102275 0.100403 0
   vertex 0.102397 0.100289 0.01
   vertex 0.102529 0.100172 0
  endloop
 endfacet
 facet normal -0.654206 -0.756316 0.00021404
  outer loop
   vertex 0.102397 0.100289 0.01
   vertex 0.102529 0.100172 0
   vertex 0.102671 0.100052 0.01
  endloop
 endfacet
 facet normal 0.638373 0.769727 0.000171719
  outer loop
   vertex 0.102529 0.100172 0
   vertex 0.102671 0.100052 0.01
   vertex 0.102822 0.099929 0
  endloop
 endfacet
 facet normal -0.625299 -0.780385 0.000156785
  outer loop
   vertex 0.102671 0.100052 0.01
   vertex 0.102822 0.099929 0
   vertex 0.102983 0.099802 0.01
  endloop
 endfacet
 facet normal 0.613603 0.789615 0.000148735
  outer loop
   vertex 0.102822 0.099929 0
   vertex 0.102983 0.099802 0.01
   vertex 0.103154 0.099671 0
  endloop
 endfacet
 facet normal -0.601452 -0.798909 0.00018082
  outer loop
   vertex 0.102983 0.099802 0.01
   vertex 0.103154 0.099671 0
   vertex 0.103335 0.099537 0.01
  endloop
 endfacet
 facet normal 0.592682 0.805437 6.53832e-05
  outer loop
   vertex 0.103154 0.099671 0
   vertex 0.103335 0.099537 0.01
   vertex 0.103525 0.099398 0
  endloop
 endfacet
 facet normal -0.585941 -0.810354 0.00013104
  outer loop
   vertex 0.103335 0.099537 0.01
   vertex 0.103525 0.099398 0
   vertex 0.103725 0.099255 0.01
  endloop
 endfacet
 facet normal 0.581054 0.813865 1.68971e-05
  outer loop
   vertex 0.103525 0.099398 0
   vertex 0.103725 0.099255 0.01
   vertex 0.103934 0.099106 0
  endloop
 endfacet
 facet normal -0.577436 -0.816436 9.70476e-05
  outer loop
   vertex 0.103725 0.099255 0.01
   vertex 0.103934 0.099106 0
   vertex 0.104152 0.098953 0.01
  endloop
 endfacet
 facet normal 0.571984 0.820265 8.03961e-05
  outer loop
   vertex 0.103934 0.099106 0
   vertex 0.104152 0.098953 0.01
   vertex 0.10438 0.098795 0
  endloop
 endfacet
 facet normal -0.570494 -0.821302 -3.00461e-05
  outer loop
   vertex 0.104152 0.098953 0.01
   vertex 0.10438 0.098795 0
   vertex 0.104617 0.09863 0.01
  endloop
 endfacet
 facet normal 0.569913 0.821705 5.04581e-05
  outer loop
   vertex 0.10438 0.098795 0
   vertex 0.104617 0.09863 0.01
   vertex 0.104863 0.09846 0
  endloop
 endfacet
 facet normal -0.569385 -0.822071 -3.12385e-05
  outer loop
   vertex 0.104617 0.09863 0.01
   vertex 0.104863 0.09846 0
   vertex 0.105118 0.098283 0.01
  endloop
 endfacet
 facet normal 0.569948 0.821681 9.98073e-06
  outer loop
   vertex 0.104863 0.09846 0
   vertex 0.105118 0.098283 0.01
   vertex 0.105382 0.0981 0
  endloop
 endfacet
 facet normal -0.571508 -0.820596 -7.10372e-05
  outer loop
   vertex 0.105118 0.098283 0.01
   vertex 0.105382 0.0981 0
   vertex 0.105655 0.097909 0.01
  endloop
 endfacet
 facet normal 0.573964 0.818881 -2.8766e-05
  outer loop
   vertex 0.105382 0.0981 0
   vertex 0.105655 0.097909 0.01
   vertex 0.105937 0.097711 0
  endloop
 endfacet
 facet normal -0.575953 -0.817483 -5.50037e-05
  outer loop
   vertex 0.105655 0.097909 0.01
   vertex 0.105937 0.097711 0
   vertex 0.106227 0.097506 0.01
  endloop
 endfacet
 facet normal 0.579661 0.814857 -0.000106361
  outer loop
   vertex 0.105937 0.097711 0
   vertex 0.106227 0.097506 0.01
   vertex 0.106526 0.097292 0
  endloop
 endfacet
 facet normal -0.584269 -0.81156 -0.000101982
  outer loop
   vertex 0.106227 0.097506 0.01
   vertex 0.106526 0.097292 0
   vertex 0.106834 0.097069 0.01
  endloop
 endfacet
 facet normal 0.589171 0.808008 -0.000128192
  outer loop
   vertex 0.106526 0.097292 0
   vertex 0.106834 0.097069 0.01
   vertex 0.10715 0.096837 0
  endloop
 endfacet
 facet normal -0.593758 -0.804644 -9.4823e-05
  outer loop
   vertex 0.106834 0.097069 0.01
   vertex 0.10715 0.096837 0
   vertex 0.107475 0.096596 0.01
  endloop
 endfacet
 facet normal 0.598831 0.800875 -0.00016087
  outer loop
   vertex 0.10715 0.096837 0
   vertex 0.107475 0.096596 0.01
   vertex 0.107808 0.096345 0
  endloop
 endfacet
 facet normal -0.604338 -0.796728 -0.000126576
  outer loop
   vertex 0.107475 0.096596 0.01
   vertex 0.107808 0.096345 0
   vertex 0.10815 0.096084 0.01
  endloop
 endfacet
 facet normal 0.608936 0.793219 -0.0001223
  outer loop
   vertex 0.107808 0.096345 0
   vertex 0.10815 0.096084 0.01
   vertex 0.108501 0.095813 0
  endloop
 endfacet
 facet normal -0.615703 -0.787978 -0.000257231
  outer loop
   vertex 0.10815 0.096084 0.01
   vertex 0.108501 0.095813 0
   vertex 0.108859 0.09553 0.01
  endloop
 endfacet
 facet normal 0.623379 0.78192 -0.000189026
  outer loop
   vertex 0.108501 0.095813 0
   vertex 0.108859 0.09553 0.01
   vertex 0.109226 0.095235 0
  endloop
 endfacet
 facet normal -0.628901 -0.777486 -0.000144432
  outer loop
   vertex 0.108859 0.09553 0.01
   vertex 0.109226 0.095235 0
   vertex 0.109602 0.094929 0.01
  endloop
 endfacet
 facet normal 0.635174 0.772369 -0.000248009
  outer loop
   vertex 0.109226 0.095235 0
   vertex 0.109602 0.094929 0.01
   vertex 0.109986 0.09461 0
  endloop
 endfacet
 facet normal -0.642128 -0.766598 -0.00020311
  outer loop
   vertex 0.109602 0.094929 0.01
   vertex 0.109986 0.09461 0
   vertex 0.110378 0.094279 0.01
  endloop
 endfacet
 facet normal 0.648732 0.761017 -0.000240517
  outer loop
   vertex 0.109986 0.09461 0
   vertex 0.110378 0.094279 0.01
   vertex 0.110779 0.093934 0
  endloop
 endfacet
 facet normal -0.65546 -0.75523 -0.000228944
  outer loop
   vertex 0.110378 0.094279 0.01
   vertex 0.110779 0.093934 0
   vertex 0.111188 0.093576 0.01
  endloop
 endfacet
 facet normal 0.661772 0.749705 -0.000226973
  outer loop
   vertex 0.110779 0.093934 0
   vertex 0.111188 0.093576 0.01
   vertex 0.111606 0.093204 0
  endloop
 endfacet
 facet normal -0.668184 -0.743996 -0.000253446
  outer loop
   vertex 0.111188 0.093576 0.01
   vertex 0.111606 0.093204 0
   vertex 0.112032 0.092818 0.01
  endloop
 endfacet
 facet normal 0.674676 0.738114 -0.000250149
  outer loop
   vertex 0.111606 0.093204 0
   vertex 0.112032 0.092818 0.01
   vertex 0.112467 0.092417 0
  endloop
 endfacet
 facet normal -0.681219 -0.732079 -0.000276453
  outer loop
   vertex 0.112032 0.092818 0.01
   vertex 0.112467 0.092417 0
   vertex 0.11291 0.092001 0.01
  endloop
 endfacet
 facet normal 0.687363 0.726314 -0.000235596
  outer loop
   vertex 0.112467 0.092417 0
   vertex 0.11291 0.092001 0.01
   vertex 0.113362 0.09157 0
  endloop
 endfacet
 facet normal -0.693158 -0.720786 -0.000264567
  outer loop
   vertex 0.11291 0.092001 0.01
   vertex 0.113362 0.09157 0
   vertex 0.113823 0.091123 0.01
  endloop
 endfacet
 facet normal 0.699378 0.714752 -0.00029186
  outer loop
   vertex 0.113362 0.09157 0
   vertex 0.113823 0.091123 0.01
   vertex 0.114292 0.09066 0
  endloop
 endfacet
 facet normal -0.70523 -0.708978 -0.000249954
  outer loop
   vertex 0.113823 0.091123 0.01
   vertex 0.114292 0.09066 0
   vertex 0.11477 0.090181 0.01
  endloop
 endfacet
 facet normal 0.710742 0.703453 -0.000278169
  outer loop
   vertex 0.114292 0.09066 0
   vertex 0.11477 0.090181 0.01
   vertex 0.115257 0.089685 0
  endloop
 endfacet
 facet normal -0.715931 -0.698171 -0.000236492
  outer loop
   vertex 0.11477 0.090181 0.01
   vertex 0.115257 0.089685 0
   vertex 0.115753 0.089173 0.01
  endloop
 endfacet
 facet normal 0.72082 0.693122 -0.000264592
  outer loop
   vertex 0.115257 0.089685 0
   vertex 0.115753 0.089173 0.01
   vertex 0.116258 0.088644 0
  endloop
 endfacet
 facet normal -0.726096 -0.687593 -0.000294293
  outer loop
   vertex 0.115753 0.089173 0.01
   vertex 0.116258 0.088644 0
   vertex 0.116771 0.088098 0.01
  endloop
 endfacet
 facet normal 0.730749 0.682646 -0.000214473
  outer loop
   vertex 0.116258 0.088644 0
   vertex 0.116771 0.088098 0.01
   vertex 0.117294 0.087535 0
  endloop
 endfacet
 facet normal -0.734825 -0.678256 -0.000245911
  outer loop
   vertex 0.116771 0.088098 0.01
   vertex 0.117294 0.087535 0
   vertex 0.117826 0.086955 0.01
  endloop
 endfacet
 facet normal 0.739 0.673705 -0.000240163
  outer loop
   vertex 0.117294 0.087535 0
   vertex 0.117826 0.086955 0.01
   vertex 0.118367 0.086358 0
  endloop
 endfacet
 facet normal -0.743265 -0.668997 -0.000271621
  outer loop
   vertex 0.117826 0.086955 0.01
   vertex 0.118367 0.086358 0
   vertex 0.118916 0.085744 0.01
  endloop
 endfacet
 facet normal 0.746982 0.664845 -0.000187372
  outer loop
   vertex 0.118367 0.086358 0
   vertex 0.118916 0.085744 0.01
   vertex 0.119476 0.085112 0
  endloop
 endfacet
 facet normal -0.750248 -0.661157 -0.000228635
  outer loop
   vertex 0.118916 0.085744 0.01
   vertex 0.119476 0.085112 0
   vertex 0.120044 0.084464 0.01
  endloop
 endfacet
 facet normal 0.753677 0.657245 -0.000219566
  outer loop
   vertex 0.119476 0.085112 0
   vertex 0.120044 0.084464 0.01
   vertex 0.120621 0.083799 0
  endloop
 endfacet
 facet normal -0.756911 -0.653517 -0.00021498
  outer loop
   vertex 0.120044 0.084464 0.01
   vertex 0.120621 0.083799 0
   vertex 0.121207 0.083117 0.01
  endloop
 endfacet
 facet normal 0.759257 0.650791 -0.00010841
  outer loop
   vertex 0.120621 0.083799 0
   vertex 0.121207 0.083117 0.01
   vertex 0.121803 0.08242 0
  endloop
 endfacet
 facet normal -0.761766 -0.647852 -0.000246009
  outer loop
   vertex 0.121207 0.083117 0.01
   vertex 0.121803 0.08242 0
   vertex 0.122407 0.081706 0.01
  endloop
 endfacet
 facet normal 0.764169 0.645016 -0.000101619
  outer loop
   vertex 0.121803 0.08242 0
   vertex 0.122407 0.081706 0.01
   vertex 0.123021 0.080977 0
  endloop
 endfacet
 facet normal -0.766256 -0.642535 -0.000207336
  outer loop
   vertex 0.122407 0.081706 0.01
   vertex 0.123021 0.080977 0
   vertex 0.123643 0.080232 0.01
  endloop
 endfacet
 facet normal 0.768306 0.640083 -0.000102822
  outer loop
   vertex 0.123021 0.080977 0
   vertex 0.123643 0.080232 0.01
   vertex 0.124274 0.079473 0
  endloop
 endfacet
 facet normal -0.769417 -0.638747 -6.87387e-05
  outer loop
   vertex 0.123643 0.080232 0.01
   vertex 0.124274 0.079473 0
   vertex 0.124914 0.078701 0.01
  endloop
 endfacet
 facet normal 0.77073 0.637162 -0.000137636
  outer loop
   vertex 0.124274 0.079473 0
   vertex 0.124914 0.078701 0.01
   vertex 0.125562 0.077915 0
  endloop
 endfacet
 facet normal -0.772237 -0.635334 -0.00010375
  outer loop
   vertex 0.124914 0.078701 0.01
   vertex 0.125562 0.077915 0
   vertex 0.126218 0.077116 0.01
  endloop
 endfacet
 facet normal 0.772885 0.634546 -1.67298e-06
  outer loop
   vertex 0.125562 0.077915 0
   vertex 0.126218 0.077116 0.01
   vertex 0.126883 0.076306 0
  endloop
 endfacet
 facet normal -0.773177 -0.634191 -4.65407e-05
  outer loop
   vertex 0.126218 0.077116 0.01
   vertex 0.126883 0.076306 0
   vertex 0.127555 0.075486 0.01
  endloop
 endfacet
 facet normal 0.773917 0.633288 -7.7207e-05
  outer loop
   vertex 0.126883 0.076306 0
   vertex 0.127555 0.075486 0.01
   vertex 0.128234 0.074655 0
  endloop
 endfacet
 facet normal -0.774038 -0.633139 5.6609e-05
  outer loop
   vertex 0.127555 0.075486 0.01
   vertex 0.128234 0.074655 0
   vertex 0.128921 0.073816 0.01
  endloop
 endfacet
 facet normal 0.773835 0.633387 -2.18777e-05
  outer loop
   vertex 0.128234 0.074655 0
   vertex 0.128921 0.073816 0.01
   vertex 0.129614 0.072969 0
  endloop
 endfacet
 facet normal -0.773673 -0.633585 4.98682e-05
  outer loop
   vertex 0.128921 0.073816 0.01
   vertex 0.129614 0.072969 0
   vertex 0.130314 0.072115 0.01
  endloop
 endfacet
 facet normal 0.772789 0.634663 0.000104158
  outer loop
   vertex 0.129614 0.072969 0
   vertex 0.130314 0.072115 0.01
   vertex 0.13102 0.071257 0
  endloop
 endfacet
 facet normal -0.771814 -0.635849 6.63534e-05
  outer loop
   vertex 0.130314 0.072115 0.01
   vertex 0.13102 0.071257 0
   vertex 0.131731 0.070395 0.01
  endloop
 endfacet
 facet normal 0.770883 0.636976 9.70168e-05
  outer loop
   vertex 0.13102 0.071257 0
   vertex 0.131731 0.070395 0.01
   vertex 0.132447 0.06953 0
  endloop
 endfacet
 facet normal -0.769642 -0.638476 0.000121569
  outer loop
   vertex 0.131731 0.070395 0.01
   vertex 0.132447 0.06953 0
   vertex 0.133167 0.068664 0.01
  endloop
 endfacet
 facet normal 0.767495 0.641055 0.000256375
  outer loop
   vertex 0.132447 0.06953 0
   vertex 0.133167 0.068664 0.01
   vertex 0.133892 0.0678 0
  endloop
 endfacet
 facet normal -0.765417 -0.643535 0.000108542
  outer loop
   vertex 0.133167 0.068664 0.01
   vertex 0.133892 0.0678 0
   vertex 0.134619 0.066937 0.01
  endloop
 endfacet
 facet normal 0.763436 0.645884 0.000238238
  outer loop
   vertex 0.133892 0.0678 0
   vertex 0.134619 0.066937 0.01
   vertex 0.135348 0.066079 0
  endloop
 endfacet
 facet normal -0.760697 -0.649107 0.000237877
  outer loop
   vertex 0.134619 0.066937 0.01
   vertex 0.135348 0.066079 0
   vertex 0.136079 0.065226 0.01
  endloop
 endfacet
 facet normal 0.757395 0.652957 0.00033197
  outer loop
   vertex 0.135348 0.066079 0
   vertex 0.136079 0.065226 0.01
   vertex 0.136811 0.064382 0
  endloop
 endfacet
 facet normal -0.753911 -0.656976 0.000262292
  outer loop
   vertex 0.136079 0.065226 0.01
   vertex 0.136811 0.064382 0
   vertex 0.137543 0.063546 0.01
  endloop
 endfacet
 facet normal 0.750446 0.660932 0.000322045
  outer loop
   vertex 0.136811 0.064382 0
   vertex 0.137543 0.063546 0.01
   vertex 0.138273 0.062722 0
  endloop
 endfacet
 facet normal -0.745921 -0.666034 0.000428669
  outer loop
   vertex 0.137543 0.063546 0.01
   vertex 0.138273 0.062722 0
   vertex 0.139002 0.061912 0.01
  endloop
 endfacet
 facet normal 0.74088 0.671637 0.00039271
  outer loop
   vertex 0.138273 0.062722 0
   vertex 0.139002 0.061912 0.01
   vertex 0.139728 0.061117 0
  endloop
 endfacet
 facet normal -0.735967 -0.677018 0.000391721
  outer loop
   vertex 0.139002 0.061912 0.01
   vertex 0.139728 0.061117 0
   vertex 0.140449 0.060339 0.01
  endloop
 endfacet
 facet normal 0.73001 0.683437 0.000537165
  outer loop
   vertex 0.139728 0.061117 0
   vertex 0.140449 0.060339 0.01
   vertex 0.141166 0.059581 0
  endloop
 endfacet
 facet normal -0.723368 -0.690463 0.00047166
  outer loop
   vertex 0.140449 0.060339 0.01
   vertex 0.141166 0.059581 0
   vertex 0.141876 0.058844 0.01
  endloop
 endfacet
 facet normal 0.716425 0.697664 0.000551969
  outer loop
   vertex 0.141166 0.059581 0
   vertex 0.141876 0.058844 0.01
   vertex 0.142579 0.05813 0
  endloop
 endfacet
 facet normal -0.708117 -0.706095 0.000634038
  outer loop
   vertex 0.141876 0.058844 0.01
   vertex 0.142579 0.05813 0
   vertex 0.143274 0.057442 0.01
  endloop
 endfacet
 facet normal 0.699288 0.714839 0.000581214
  outer loop
   vertex 0.142579 0.05813 0
   vertex 0.143274 0.057442 0.01
   vertex 0.143958 0.056781 0
  endloop
 endfacet
 facet normal -0.689561 -0.724227 0.000704661
  outer loop
   vertex 0.143274 0.057442 0.01
   vertex 0.143958 0.056781 0
   vertex 0.144632 0.056149 0.01
  endloop
 endfacet
 facet normal 0.678487 0.734612 0.000698047
  outer loop
   vertex 0.143958 0.056781 0
   vertex 0.144632 0.056149 0.01
   vertex 0.145293 0.055548 0
  endloop
 endfacet
 facet normal -0.666375 -0.745616 0.000763874
  outer loop
   vertex 0.144632 0.056149 0.01
   vertex 0.145293 0.055548 0
   vertex 0.14594 0.05498 0.01
  endloop
 endfacet
 facet normal 0.653082 0.757287 0.000759136
  outer loop
   vertex 0.145293 0.055548 0
   vertex 0.14594 0.05498 0.01
   vertex 0.146572 0.054445 0
  endloop
 endfacet
 facet normal -0.638 -0.770036 0.000876063
  outer loop
   vertex 0.14594 0.05498 0.01
   vertex 0.146572 0.054445 0
   vertex 0.147188 0.053946 0.01
  endloop
 endfacet
 facet normal 0.621063 0.78376 0.000852158
  outer loop
   vertex 0.146572 0.054445 0
   vertex 0.147188 0.053946 0.01
   vertex 0.147786 0.053483 0
  endloop
 endfacet
 facet normal -0.602272 -0.79829 0.000944242
  outer loop
   vertex 0.147188 0.053946 0.01
   vertex 0.147786 0.053483 0
   vertex 0.148365 0.053058 0.01
  endloop
 endfacet
 facet normal 0.580835 0.814021 0.000965516
  outer loop
   vertex 0.147786 0.053483 0
   vertex 0.148365 0.053058 0.01
   vertex 0.148924 0.052671 0
  endloop
 endfacet
 facet normal -0.556973 -0.83053 0.00100729
  outer loop
   vertex 0.148365 0.053058 0.01
   vertex 0.148924 0.052671 0
   vertex 0.149461 0.052323 0.01
  endloop
 endfacet
 facet normal 0.530068 0.847955 0.0010439
  outer loop
   vertex 0.148924 0.052671 0
   vertex 0.149461 0.052323 0.01
   vertex 0.149975 0.052014 0
  endloop
 endfacet
 facet normal -0.499574 -0.86627 0.00108944
  outer loop
   vertex 0.149461 0.052323 0.01
   vertex 0.149975 0.052014 0
   vertex 0.150465 0.051744 0.01
  endloop
 endfacet
 facet normal 0.465289 0.885158 0.00110052
  outer loop
   vertex 0.149975 0.052014 0
   vertex 0.150465 0.051744 0.01
   vertex 0.15093 0.051512 0
  endloop
 endfacet
 facet normal -0.426274 -0.904593 0.00116459
  outer loop
   vertex 0.150465 0.051744 0.01
   vertex 0.15093 0.051512 0
   vertex 0.151369 0.051318 0.01
  endloop
 endfacet
 facet normal 0.383155 0.923683 0.00109867
  outer loop
   vertex 0.15093 0.051512 0
   vertex 0.151369 0.051318 0.01
   vertex 0.151781 0.051159 0
  endloop
 endfacet
 facet normal -0.336416 -0.941713 0.00111361
  outer loop
   vertex 0.151369 0.051318 0.01
   vertex 0.151781 0.051159 0
   vertex 0.152164 0.051034 0.01
  endloop
 endfacet
 facet normal 0.284481 0.958681 0.0010876
  outer loop
   vertex 0.151781 0.051159 0
   vertex 0.152164 0.051034 0.01
   vertex 0.152519 0.05094 0
  endloop
 endfacet
 facet normal -0.229041 -0.973416 0.00101906
  outer loop
   vertex 0.152164 0.051034 0.01
   vertex 0.152519 0.05094 0
   vertex 0.152844 0.050874 0.01
  endloop
 endfacet
 facet normal 0.171343 0.985211 0.000933926
  outer loop
   vertex 0.152519 0.05094 0
   vertex 0.152844 0.050874 0.01
   vertex 0.15314 0.050832 0
  endloop
 endfacet
 facet normal -0.113341 -0.993556 0.000817962
  outer loop
   vertex 0.152844 0.050874 0.01
   vertex 0.15314 0.050832 0
   vertex 0.153405 0.05081 0.01
  endloop
 endfacet
 facet normal 0.0617536 0.998091 0.000559101
  outer loop
   vertex 0.15314 0.050832 0
   vertex 0.153405 0.05081 0.01
   vertex 0.153641 0.050801 0
  endloop
 endfacet
 facet normal -0.0226754 -0.999743 0.00036465
  outer loop
   vertex 0.153405 0.05081 0.01
   vertex 0.153641 0.050801 0
   vertex 0.153846 0.0508 0.01
  endloop
 endfacet
 facet normal 0.00488836 0.999988 0
  outer loop
   vertex 0.153641 0.050801 0
   vertex 0.153846 0.0508 0.01
   vertex 0.153846 0.0508 0
  endloop
 endfacet
 facet normal 0 -1 0
  outer loop
   vertex 0.153846 0.0508 0.01
   vertex 0.153846 0.0508 0
   vertex 0.255446 0.0508 0.01
  endloop
 endfacet
 facet normal 0 1 0
  outer loop
   vertex 0.153846 0.0508 0
   vertex 0.255446 0.0508 0.01
   vertex 0.255446 0.0508 0
  endloop
 endfacet
 facet normal 0 1 0
  outer loop
   vertex 0.127723 0.104482 0.01
   vertex 0.127723 0.104482 0
   vertex 0.112087 0.104482 0.01
  endloop
 endfacet
 facet normal 0 -1 0
  outer loop
   vertex 0.127723 0.104482 0
   vertex 0.112087 0.104482 0.01
   vertex 0.112087 0.104482 0
  endloop
 endfacet
endsolid test_0
solid test_1
 facet normal -1 -0 -0
  outer loop
   vertex 0.255446 0.0508 0.01
   vertex 0.255446 0.0508 0
   vertex 0.255446 0 0.01
  endloop
 endfacet
 facet normal 1 0 0
  outer loop
   vertex 0.255446 0.0508 0
   vertex 0.255446 0 0.01
   vertex 0.255446 0 0
  endloop
 endfacet
endsolid test_1
solid test_2
 facet normal 0 1 0
  outer loop
   vertex 0.255446 0 0.01
   vertex 0.255446 0 0
   vertex 0 0 0.01
  endloop
 endfacet
 facet normal 0 -1 0
  outer loop
   vertex 0.255446 0 0
   vertex 0 0 0.01
   vertex 0 0 0
  endloop
 endfacet
endsolid test_2
solid test_3
 facet normal 1 -0 0
  outer loop
   vertex 0 0 0.01
   vertex 0 0 0
   vertex 0 0.127 0.01
  endloop
 endfacet
 facet normal -1 0 0
  outer loop
   vertex 0 0 0
   vertex 0 0.127 0.01
   vertex 0 0.127 0
  endloop
 endfacet
endsolid test_3
solid test_4
 facet normal 0 -1 0
  outer loop
   vertex 0 0.127 0.01
   vertex 0 0.127 0
   vertex 0.127723 0.127 0.01
  endloop
 endfacet
 facet normal 0 1 0
  outer loop
   vertex 0 0.127 0
   vertex 0.127723 0.127 0.01
   vertex 0.127723 0.127 0
  endloop
 endfacet
endsolid test_4
solid test_5
 facet normal -1 -0 -0
  outer loop
   vertex 0.127723 0.127 0.01
   vertex 0.127723 0.127 0
   vertex 0.127723 0.104482 0.01
  endloop
 endfacet
 facet normal 1 0 0
  outer loop
   vertex 0.127723 0.127 0
   vertex 0.127723 0.104482 0.01
   vertex 0.127723 0.104482 0
  endloop
 endfacet
endsolid test_5
