solid test_0
 facet normal 0 -1 0
  outer loop
   vertex 0.124482 0.131322 0
   vertex 0.124482 0.131322 0.01
   vertex 0.124355 0.131322 0
  endloop
 endfacet
 facet normal 0 1 0
  outer loop
   vertex 0.124482 0.131322 0.01
   vertex 0.124355 0.131322 0
   vertex 0.124355 0.131322 0.01
  endloop
 endfacet
 facet normal 0 -1 0
  outer loop
   vertex 0.124355 0.131322 0
   vertex 0.124355 0.131322 0.01
   vertex 0.124228 0.131322 0
  endloop
 endfacet
 facet normal 0 1 0
  outer loop
   vertex 0.124355 0.131322 0.01
   vertex 0.124228 0.131322 0
   vertex 0.124101 0.131322 0.01
  endloop
 endfacet
 facet normal 0 -1 0
  outer loop
   vertex 0.124228 0.131322 0
   vertex 0.124101 0.131322 0.01
   vertex 0.123972 0.131322 0
  endloop
 endfacet
 facet normal 0 1 0
  outer loop
   vertex 0.124101 0.131322 0.01
   vertex 0.123972 0.131322 0
   vertex 0.123842 0.131322 0.01
  endloop
 endfacet
 facet normal 0 -1 0
  outer loop
   vertex 0.123972 0.131322 0
   vertex 0.123842 0.131322 0.01
   vertex 0.12371 0.131322 0
  endloop
 endfacet
 facet normal 0 1 0
  outer loop
   vertex 0.123842 0.131322 0.01
   vertex 0.12371 0.131322 0
   vertex 0.123575 0.131322 0.01
  endloop
 endfacet
 facet normal 0.00364366 -0.999993 4.91883e-05
  outer loop
   vertex 0.12371 0.131322 0
   vertex 0.123575 0.131322 0.01
   vertex 0.123436 0.131321 0
  endloop
 endfacet
 facet normal -0.0070804 0.999975 -1.41378e-06
  outer loop
   vertex 0.123575 0.131322 0.01
   vertex 0.123436 0.131321 0
   vertex 0.123293 0.13132 0.01
  endloop
 endfacet
 facet normal 0.0068616 -0.999976 -1.71517e-06
  outer loop
   vertex 0.123436 0.131321 0
   vertex 0.123293 0.13132 0.01
   vertex 0.123145 0.131319 0
  endloop
 endfacet
 facet normal -0.00991736 0.999951 4.69424e-05
  outer loop
   vertex 0.123293 0.13132 0.01
   vertex 0.123145 0.131319 0
   vertex 0.122991 0.131317 0.01
  endloop
 endfacet
 facet normal 0.0127647 -0.999919 -3.08772e-06
  outer loop
   vertex 0.123145 0.131319 0
   vertex 0.122991 0.131317 0.01
   vertex 0.122831 0.131315 0
  endloop
 endfacet
 facet normal -0.012257 0.999925 -5.03712e-06
  outer loop
   vertex 0.122991 0.131317 0.01
   vertex 0.122831 0.131315 0
   vertex 0.122664 0.131313 0.01
  endloop
 endfacet
 facet normal 0.0145944 -0.999893 4.40798e-05
  outer loop
   vertex 0.122831 0.131315 0
   vertex 0.122664 0.131313 0.01
   vertex 0.122489 0.13131 0
  endloop
 endfacet
 facet normal -0.0195048 0.99981 4.18768e-05
  outer loop
   vertex 0.122664 0.131313 0.01
   vertex 0.122489 0.13131 0
   vertex 0.122305 0.131306 0.01
  endloop
 endfacet
 facet normal 0.0239301 -0.999714 3.95854e-05
  outer loop
   vertex 0.122489 0.13131 0
   vertex 0.122305 0.131306 0.01
   vertex 0.122113 0.131301 0
  endloop
 endfacet
 facet normal -0.025305 0.99968 -1.31692e-05
  outer loop
   vertex 0.122305 0.131306 0.01
   vertex 0.122113 0.131301 0
   vertex 0.12191 0.131296 0.01
  endloop
 endfacet
 facet normal 0.0264898 -0.999649 3.72358e-05
  outer loop
   vertex 0.122113 0.131301 0
   vertex 0.12191 0.131296 0.01
   vertex 0.121698 0.13129 0
  endloop
 endfacet
 facet normal -0.0321497 0.999483 8.28532e-05
  outer loop
   vertex 0.12191 0.131296 0.01
   vertex 0.121698 0.13129 0
   vertex 0.121475 0.131282 0.01
  endloop
 endfacet
 facet normal 0.0349982 -0.999387 -1.92569e-05
  outer loop
   vertex 0.121698 0.13129 0
   vertex 0.121475 0.131282 0.01
   vertex 0.121241 0.131274 0
  endloop
 endfacet
 facet normal -0.0374746 0.999298 7.72775e-05
  outer loop
   vertex 0.121475 0.131282 0.01
   vertex 0.121241 0.131274 0
   vertex 0.120995 0.131264 0.01
  endloop
 endfacet
 facet normal 0.0417044 -0.99913 2.69442e-05
  outer loop
   vertex 0.121241 0.131274 0
   vertex 0.120995 0.131264 0.01
   vertex 0.120738 0.131253 0
  endloop
 endfacet
 facet normal -0.0437818 0.999041 2.65418e-05
  outer loop
   vertex 0.120995 0.131264 0.01
   vertex 0.120738 0.131253 0
   vertex 0.12047 0.131241 0.01
  endloop
 endfacet
 facet normal 0.0473107 -0.99888 6.82268e-05
  outer loop
   vertex 0.120738 0.131253 0
   vertex 0.12047 0.131241 0.01
   vertex 0.120189 0.131227 0
  endloop
 endfacet
 facet normal -0.0505419 0.998722 2.27898e-05
  outer loop
   vertex 0.12047 0.131241 0.01
   vertex 0.120189 0.131227 0
   vertex 0.119897 0.131212 0.01
  endloop
 endfacet
 facet normal 0.0536268 -0.998561 6.75303e-05
  outer loop
   vertex 0.120189 0.131227 0
   vertex 0.119897 0.131212 0.01
   vertex 0.119593 0.131195 0
  endloop
 endfacet
 facet normal -0.0579688 0.998318 6.48802e-05
  outer loop
   vertex 0.119897 0.131212 0.01
   vertex 0.119593 0.131195 0
   vertex 0.119277 0.131176 0.01
  endloop
 endfacet
 facet normal 0.0605363 -0.998166 1.65413e-05
  outer loop
   vertex 0.119593 0.131195 0
   vertex 0.119277 0.131176 0.01
   vertex 0.11895 0.131156 0
  endloop
 endfacet
 facet normal -0.0629253 0.998018 6.18757e-05
  outer loop
   vertex 0.119277 0.131176 0.01
   vertex 0.11895 0.131156 0
   vertex 0.118611 0.131134 0.01
  endloop
 endfacet
 facet normal 0.0680542 -0.997682 0.000112733
  outer loop
   vertex 0.11895 0.131156 0
   vertex 0.118611 0.131134 0.01
   vertex 0.118261 0.131109 0
  endloop
 endfacet
 facet normal -0.0715553 0.997437 1.04194e-05
  outer loop
   vertex 0.118611 0.131134 0.01
   vertex 0.118261 0.131109 0
   vertex 0.1179 0.131083 0.01
  endloop
 endfacet
 facet normal 0.0735726 -0.99729 6.27858e-05
  outer loop
   vertex 0.118261 0.131109 0
   vertex 0.1179 0.131083 0.01
   vertex 0.117529 0.131055 0
  endloop
 endfacet
 facet normal -0.0767916 0.997047 5.73189e-05
  outer loop
   vertex 0.1179 0.131083 0.01
   vertex 0.117529 0.131055 0
   vertex 0.117147 0.131025 0.01
  endloop
 endfacet
 facet normal 0.0813386 -0.996687 0.00011746
  outer loop
   vertex 0.117529 0.131055 0
   vertex 0.117147 0.131025 0.01
   vertex 0.116757 0.130992 0
  endloop
 endfacet
 facet normal -0.0845013 0.996423 6.7529e-06
  outer loop
   vertex 0.117147 0.131025 0.01
   vertex 0.116757 0.130992 0
   vertex 0.116357 0.130958 0.01
  endloop
 endfacet
 facet normal 0.0875206 -0.996163 0.000114908
  outer loop
   vertex 0.116757 0.130992 0
   vertex 0.116357 0.130958 0.01
   vertex 0.115949 0.130921 0
  endloop
 endfacet
 facet normal -0.0918565 0.995772 6.34404e-05
  outer loop
   vertex 0.116357 0.130958 0.01
   vertex 0.115949 0.130921 0
   vertex 0.115533 0.130882 0.01
  endloop
 endfacet
 facet normal 0.0961005 -0.995372 0.00011467
  outer loop
   vertex 0.115949 0.130921 0
   vertex 0.115533 0.130882 0.01
   vertex 0.11511 0.13084 0
  endloop
 endfacet
 facet normal -0.100422 0.994945 6.99218e-05
  outer loop
   vertex 0.115533 0.130882 0.01
   vertex 0.11511 0.13084 0
   vertex 0.114681 0.130796 0.01
  endloop
 endfacet
 facet normal 0.104746 -0.994499 0.00011756
  outer loop
   vertex 0.11511 0.13084 0
   vertex 0.114681 0.130796 0.01
   vertex 0.114246 0.130749 0
  endloop
 endfacet
 facet normal -0.107932 0.994158 2.26077e-05
  outer loop
   vertex 0.114681 0.130796 0.01
   vertex 0.114246 0.130749 0
   vertex 0.113806 0.130701 0.01
  endloop
 endfacet
 facet normal 0.112407 -0.993662 0.000176664
  outer loop
   vertex 0.114246 0.130749 0
   vertex 0.113806 0.130701 0.01
   vertex 0.113362 0.130649 0
  endloop
 endfacet
 facet normal -0.118142 0.992997 8.1446e-05
  outer loop
   vertex 0.113806 0.130701 0.01
   vertex 0.113362 0.130649 0
   vertex 0.112915 0.130595 0.01
  endloop
 endfacet
 facet normal 0.12172 -0.992564 8.08217e-05
  outer loop
   vertex 0.113362 0.130649 0
   vertex 0.112915 0.130595 0.01
   vertex 0.112465 0.130539 0
  endloop
 endfacet
 facet normal -0.126601 0.991954 0.000142232
  outer loop
   vertex 0.112915 0.130595 0.01
   vertex 0.112465 0.130539 0
   vertex 0.112014 0.13048 0.01
  endloop
 endfacet
 facet normal 0.131731 -0.991286 9.30814e-05
  outer loop
   vertex 0.112465 0.130539 0
   vertex 0.112014 0.13048 0.01
   vertex 0.111562 0.130419 0
  endloop
 endfacet
 facet normal -0.136977 0.990574 0.000148396
  outer loop
   vertex 0.112014 0.13048 0.01
   vertex 0.111562 0.130419 0
   vertex 0.11111 0.130355 0.01
  endloop
 endfacet
 facet normal 0.142494 -0.989796 0.000105932
  outer loop
   vertex 0.111562 0.130419 0
   vertex 0.11111 0.130355 0.01
   vertex 0.110659 0.130289 0
  endloop
 endfacet
 facet normal -0.148345 0.988936 0.000163647
  outer loop
   vertex 0.11111 0.130355 0.01
   vertex 0.110659 0.130289 0
   vertex 0.11021 0.13022 0.01
  endloop
 endfacet
 facet normal 0.155633 -0.987815 0.000171297
  outer loop
   vertex 0.110659 0.130289 0
   vertex 0.11021 0.13022 0.01
   vertex 0.109764 0.130148 0
  endloop
 endfacet
 facet normal -0.161157 0.986929 8.14454e-05
  outer loop
   vertex 0.11021 0.13022 0.01
   vertex 0.109764 0.130148 0
   vertex 0.109322 0.130075 0.01
  endloop
 endfacet
 facet normal 0.168025 -0.985783 0.000230512
  outer loop
   vertex 0.109764 0.130148 0
   vertex 0.109322 0.130075 0.01
   vertex 0.108884 0.129998 0
  endloop
 endfacet
 facet normal -0.17519 0.984535 9.29387e-05
  outer loop
   vertex 0.109322 0.130075 0.01
   vertex 0.108884 0.129998 0
   vertex 0.108451 0.12992 0.01
  endloop
 endfacet
 facet normal 0.182002 -0.983298 0.000211653
  outer loop
   vertex 0.108884 0.129998 0
   vertex 0.108451 0.12992 0.01
   vertex 0.108025 0.129839 0
  endloop
 endfacet
 facet normal -0.191647 0.981464 0.000214091
  outer loop
   vertex 0.108451 0.12992 0.01
   vertex 0.108025 0.129839 0
   vertex 0.107606 0.129755 0.01
  endloop
 endfacet
 facet normal 0.200662 -0.979661 0.000178746
  outer loop
   vertex 0.108025 0.129839 0
   vertex 0.107606 0.129755 0.01
   vertex 0.107195 0.129669 0
  endloop
 endfacet
 facet normal -0.209284 0.977855 0.000191157
  outer loop
   vertex 0.107606 0.129755 0.01
   vertex 0.107195 0.129669 0
   vertex 0.106793 0.129581 0.01
  endloop
 endfacet
 facet normal 0.218745 -0.975782 0.000207423
  outer loop
   vertex 0.107195 0.129669 0
   vertex 0.106793 0.129581 0.01
   vertex 0.106401 0.129491 0
  endloop
 endfacet
 facet normal -0.228901 0.97345 0.000211708
  outer loop
   vertex 0.106793 0.129581 0.01
   vertex 0.106401 0.129491 0
   vertex 0.106019 0.129399 0.01
  endloop
 endfacet
 facet normal 0.241316 -0.970447 0.000290155
  outer loop
   vertex 0.106401 0.129491 0
   vertex 0.106019 0.129399 0.01
   vertex 0.105649 0.129304 0
  endloop
 endfacet
 facet normal -0.254693 0.967022 0.000237309
  outer loop
   vertex 0.106019 0.129399 0.01
   vertex 0.105649 0.129304 0
   vertex 0.10529 0.129207 0.01
  endloop
 endfacet
 facet normal 0.268219 -0.963358 0.000283828
  outer loop
   vertex 0.105649 0.129304 0
   vertex 0.10529 0.129207 0.01
   vertex 0.104945 0.129108 0
  endloop
 endfacet
 facet normal -0.283319 0.959026 0.000280028
  outer loop
   vertex 0.10529 0.129207 0.01
   vertex 0.104945 0.129108 0
   vertex 0.104613 0.129007 0.01
  endloop
 endfacet
 facet normal 0.299442 -0.954114 0.000304861
  outer loop
   vertex 0.104945 0.129108 0
   vertex 0.104613 0.129007 0.01
   vertex 0.104295 0.128904 0
  endloop
 endfacet
 facet normal -0.317589 0.948228 0.000332829
  outer loop
   vertex 0.104613 0.129007 0.01
   vertex 0.104295 0.128904 0
   vertex 0.103992 0.128799 0.01
  endloop
 endfacet
 facet normal 0.337645 -0.941274 0.000347876
  outer loop
   vertex 0.104295 0.128904 0
   vertex 0.103992 0.128799 0.01
   vertex 0.103704 0.128692 0
  endloop
 endfacet
 facet normal -0.358991 0.933341 0.000351773
  outer loop
   vertex 0.103992 0.128799 0.01
   vertex 0.103704 0.128692 0
   vertex 0.103433 0.128584 0.01
  endloop
 endfacet
 facet normal 0.384995 -0.922919 0.000465502
  outer loop
   vertex 0.103704 0.128692 0
   vertex 0.103433 0.128584 0.01
   vertex 0.103179 0.128473 0
  endloop
 endfacet
 facet normal -0.414352 0.910117 0.000422271
  outer loop
   vertex 0.103433 0.128584 0.01
   vertex 0.103179 0.128473 0
   vertex 0.102941 0.12836 0.01
  endloop
 endfacet
 facet normal 0.444864 -0.895598 0.000467973
  outer loop
   vertex 0.103179 0.128473 0
   vertex 0.102941 0.12836 0.01
   vertex 0.102722 0.128246 0
  endloop
 endfacet
 facet normal -0.480317 0.877095 0.000519392
  outer loop
   vertex 0.102941 0.12836 0.01
   vertex 0.102722 0.128246 0
   vertex 0.102521 0.12813 0.01
  endloop
 endfacet
 facet normal 0.520363 -0.853945 0.000554041
  outer loop
   vertex 0.102722 0.128246 0
   vertex 0.102521 0.12813 0.01
   vertex 0.102338 0.128012 0
  endloop
 endfacet
 facet normal -0.566727 0.823905 0.000648909
  outer loop
   vertex 0.102521 0.12813 0.01
   vertex 0.102338 0.128012 0
   vertex 0.102175 0.127892 0.01
  endloop
 endfacet
 facet normal 0.620297 -0.784367 0.000698756
  outer loop
   vertex 0.102338 0.128012 0
   vertex 0.102175 0.127892 0.01
   vertex 0.102032 0.12777 0
  endloop
 endfacet
 facet normal -0.677599 0.735431 0.000717657
  outer loop
   vertex 0.102175 0.127892 0.01
   vertex 0.102032 0.12777 0
   vertex 0.101908 0.127646 0.01
  endloop
 endfacet
 facet normal 0.739022 -0.673681 0.00080972
  outer loop
   vertex 0.102032 0.12777 0
   vertex 0.101908 0.127646 0.01
   vertex 0.101805 0.127521 0
  endloop
 endfacet
 facet normal -0.804572 0.593854 0.000863313
  outer loop
   vertex 0.101908 0.127646 0.01
   vertex 0.101805 0.127521 0
   vertex 0.101722 0.127394 0.01
  endloop
 endfacet
 facet normal 0.870104 -0.492868 0.000962997
  outer loop
   vertex 0.101805 0.127521 0
   vertex 0.101722 0.127394 0.01
   vertex 0.10166 0.127265 0
  endloop
 endfacet
 facet normal -0.930186 0.367088 0.00103209
  outer loop
   vertex 0.101722 0.127394 0.01
   vertex 0.10166 0.127265 0
   vertex 0.101619 0.127133 0.01
  endloop
 endfacet
 facet normal 0.975314 -0.220822 0.00108378
  outer loop
   vertex 0.10166 0.127265 0
   vertex 0.101619 0.127133 0.01
   vertex 0.1016 0.127 0
  endloop
 endfacet
 facet normal -0.997995 0.0632868 0.00105442
  outer loop
   vertex 0.101619 0.127133 0.01
   vertex 0.1016 0.127 0
   vertex 0.101602 0.126865 0.01
  endloop
 endfacet
 facet normal 0.995494 0.0948167 0.00108055
  outer loop
   vertex 0.1016 0.127 0
   vertex 0.101602 0.126865 0.01
   vertex 0.101626 0.126727 0
  endloop
 endfacet
 facet normal -0.969522 -0.245001 0.00105432
  outer loop
   vertex 0.101602 0.126865 0.01
   vertex 0.101626 0.126727 0
   vertex 0.101672 0.126588 0.01
  endloop
 endfacet
 facet normal 0.9278 0.373078 0.000917843
  outer loop
   vertex 0.101626 0.126727 0
   vertex 0.101672 0.126588 0.01
   vertex 0.101739 0.126446 0
  endloop
 endfacet
 facet normal -0.87731 -0.479924 0.000937716
  outer loop
   vertex 0.101672 0.126588 0.01
   vertex 0.101739 0.126446 0
   vertex 0.101829 0.126301 0.01
  endloop
 endfacet
 facet normal 0.823699 0.567026 0.000807676
  outer loop
   vertex 0.101739 0.126446 0
   vertex 0.101829 0.126301 0.01
   vertex 0.10194 0.126154 0
  endloop
 endfacet
 facet normal -0.772465 -0.635056 0.000761055
  outer loop
   vertex 0.101829 0.126301 0.01
   vertex 0.10194 0.126154 0
   vertex 0.102074 0.126003 0.01
  endloop
 endfacet
 facet normal 0.723571 0.690249 0.000727586
  outer loop
   vertex 0.10194 0.126154 0
   vertex 0.102074 0.126003 0.01
   vertex 0.10223 0.12585 0
  endloop
 endfacet
 facet normal -0.679088 -0.734057 0.000636573
  outer loop
   vertex 0.102074 0.126003 0.01
   vertex 0.10223 0.12585 0
   vertex 0.102408 0.125694 0.01
  endloop
 endfacet
 facet normal 0.640192 0.768215 0.000588643
  outer loop
   vertex 0.10223 0.12585 0
   vertex 0.102408 0.125694 0.01
   vertex 0.102608 0.125535 0
  endloop
 endfacet
 facet normal -0.607813 -0.79408 0.000470218
  outer loop
   vertex 0.102408 0.125694 0.01
   vertex 0.102608 0.125535 0
   vertex 0.10283 0.125371 0.01
  endloop
 endfacet
 facet normal 0.579087 0.815266 0.000514949
  outer loop
   vertex 0.102608 0.125535 0
   vertex 0.10283 0.125371 0.01
   vertex 0.103074 0.125204 0
  endloop
 endfacet
 facet normal -0.553174 -0.833066 0.000414578
  outer loop
   vertex 0.10283 0.125371 0.01
   vertex 0.103074 0.125204 0
   vertex 0.103339 0.125033 0.01
  endloop
 endfacet
 facet normal 0.530412 0.84774 0.000439554
  outer loop
   vertex 0.103074 0.125204 0
   vertex 0.103339 0.125033 0.01
   vertex 0.103627 0.124858 0
  endloop
 endfacet
 facet normal -0.51111 -0.859515 0.000322407
  outer loop
   vertex 0.103339 0.125033 0.01
   vertex 0.103627 0.124858 0
   vertex 0.103936 0.124678 0.01
  endloop
 endfacet
 facet normal 0.495985 0.868331 0.000303625
  outer loop
   vertex 0.103627 0.124858 0
   vertex 0.103936 0.124678 0.01
   vertex 0.104266 0.124493 0
  endloop
 endfacet
 facet normal -0.481825 -0.876268 0.000310501
  outer loop
   vertex 0.103936 0.124678 0.01
   vertex 0.104266 0.124493 0
   vertex 0.104618 0.124303 0.01
  endloop
 endfacet
 facet normal 0.469959 0.882688 0.000229155
  outer loop
   vertex 0.104266 0.124493 0
   vertex 0.104618 0.124303 0.01
   vertex 0.104991 0.124107 0
  endloop
 endfacet
 facet normal -0.460583 -0.887617 0.000217171
  outer loop
   vertex 0.104618 0.124303 0.01
   vertex 0.104991 0.124107 0
   vertex 0.105385 0.123905 0.01
  endloop
 endfacet
 facet normal 0.45206 0.891987 0.000206909
  outer loop
   vertex 0.104991 0.124107 0
   vertex 0.105385 0.123905 0.01
   vertex 0.1058 0.123697 0
  endloop
 endfacet
 facet normal -0.445111 -0.895475 0.00015403
  outer loop
   vertex 0.105385 0.123905 0.01
   vertex 0.1058 0.123697 0
   vertex 0.106236 0.123482 0.01
  endloop
 endfacet
 facet normal 0.43995 0.898022 0.000125759
  outer loop
   vertex 0.1058 0.123697 0
   vertex 0.106236 0.123482 0.01
   vertex 0.106692 0.12326 0
  endloop
 endfacet
 facet normal -0.435987 -0.899953 9.77887e-05
  outer loop
   vertex 0.106236 0.123482 0.01
   vertex 0.106692 0.12326 0
   vertex 0.107169 0.12303 0.01
  endloop
 endfacet
 facet normal 0.433093 0.901349 7.24092e-05
  outer loop
   vertex 0.106692 0.12326 0
   vertex 0.107169 0.12303 0.01
   vertex 0.107666 0.122792 0
  endloop
 endfacet
 facet normal -0.430762 -0.902465 6.99688e-05
  outer loop
   vertex 0.107169 0.12303 0.01
   vertex 0.107666 0.122792 0
   vertex 0.108183 0.122546 0.01
  endloop
 endfacet
 facet normal 0.430332 0.902671 -4.26583e-05
  outer loop
   vertex 0.107666 0.122792 0
   vertex 0.108183 0.122546 0.01
   vertex 0.108719 0.12229 0
  endloop
 endfacet
 facet normal -0.430289 -0.902691 4.5487e-05
  outer loop
   vertex 0.108183 0.122546 0.01
   vertex 0.108719 0.12229 0
   vertex 0.109276 0.122025 0.01
  endloop
 endfacet
 facet normal 0.430244 0.902713 -4.24264e-05
  outer loop
   vertex 0.108719 0.12229 0
   vertex 0.109276 0.122025 0.01
   vertex 0.109852 0.12175 0
  endloop
 endfacet
 facet normal -0.432054 -0.901848 -8.5615e-05
  outer loop
   vertex 0.109276 0.122025 0.01
   vertex 0.109852 0.12175 0
   vertex 0.110447 0.121464 0.01
  endloop
 endfacet
 facet normal 0.434063 0.900882 -6.15209e-05
  outer loop
   vertex 0.109852 0.12175 0
   vertex 0.110447 0.121464 0.01
   vertex 0.111062 0.121167 0
  endloop
 endfacet
 facet normal -0.436221 -0.89984 -0.000102167
  outer loop
   vertex 0.110447 0.121464 0.01
   vertex 0.111062 0.121167 0
   vertex 0.111695 0.120859 0.01
  endloop
 endfacet
 facet normal 0.439373 0.898305 -0.00014464
  outer loop
   vertex 0.111062 0.121167 0
   vertex 0.111695 0.120859 0.01
   vertex 0.112348 0.120538 0
  endloop
 endfacet
 facet normal -0.443417 -0.896316 -0.00018324
  outer loop
   vertex 0.111695 0.120859 0.01
   vertex 0.112348 0.120538 0
   vertex 0.113019 0.120204 0.01
  endloop
 endfacet
 facet normal 0.447736 0.894166 -0.00017839
  outer loop
   vertex 0.112348 0.120538 0
   vertex 0.113019 0.120204 0.01
   vertex 0.11371 0.119856 0
  endloop
 endfacet
 facet normal -0.452054 -0.89199 -0.000195722
  outer loop
   vertex 0.113019 0.120204 0.01
   vertex 0.11371 0.119856 0
   vertex 0.114418 0.119495 0.01
  endloop
 endfacet
 facet normal 0.457097 0.889417 -0.000254167
  outer loop
   vertex 0.11371 0.119856 0
   vertex 0.114418 0.119495 0.01
   vertex 0.115146 0.119118 0
  endloop
 endfacet
 facet normal -0.462544 -0.886596 -0.000248728
  outer loop
   vertex 0.114418 0.119495 0.01
   vertex 0.115146 0.119118 0
   vertex 0.115892 0.118726 0.01
  endloop
 endfacet
 facet normal 0.467701 0.883887 -0.000242212
  outer loop
   vertex 0.115146 0.119118 0
   vertex 0.115892 0.118726 0.01
   vertex 0.116656 0.118319 0
  endloop
 endfacet
 facet normal -0.473658 -0.880709 -0.00034221
  outer loop
   vertex 0.115892 0.118726 0.01
   vertex 0.116656 0.118319 0
   vertex 0.117439 0.117894 0.01
  endloop
 endfacet
 facet normal 0.479704 0.87743 -0.000270544
  outer loop
   vertex 0.116656 0.118319 0
   vertex 0.117439 0.117894 0.01
   vertex 0.11824 0.117453 0
  endloop
 endfacet
 facet normal -0.486056 -0.873928 -0.000392722
  outer loop
   vertex 0.117439 0.117894 0.01
   vertex 0.11824 0.117453 0
   vertex 0.119059 0.116993 0.01
  endloop
 endfacet
 facet normal 0.492627 0.87024 -0.000315088
  outer loop
   vertex 0.11824 0.117453 0
   vertex 0.119059 0.116993 0.01
   vertex 0.119897 0.116515 0
  endloop
 endfacet
 facet normal -0.498838 -0.866695 -0.000374856
  outer loop
   vertex 0.119059 0.116993 0.01
   vertex 0.119897 0.116515 0
   vertex 0.120753 0.116018 0.01
  endloop
 endfacet
 facet normal 0.505298 0.862945 -0.000364461
  outer loop
   vertex 0.119897 0.116515 0
   vertex 0.120753 0.116018 0.01
   vertex 0.121627 0.115502 0
  endloop
 endfacet
 facet normal -0.512277 -0.85882 -0.000458324
  outer loop
   vertex 0.120753 0.116018 0.01
   vertex 0.121627 0.115502 0
   vertex 0.12252 0.114964 0.01
  endloop
 endfacet
 facet normal 0.519227 0.854636 -0.000387521
  outer loop
   vertex 0.121627 0.115502 0
   vertex 0.12252 0.114964 0.01
   vertex 0.123431 0.114406 0
  endloop
 endfacet
 facet normal -0.525464 -0.850816 -0.000393815
  outer loop
   vertex 0.12252 0.114964 0.01
   vertex 0.123431 0.114406 0
   vertex 0.124361 0.113827 0.01
  endloop
 endfacet
 facet normal 0.53182 0.846858 -0.000426408
  outer loop
   vertex 0.123431 0.114406 0
   vertex 0.124361 0.113827 0.01
   vertex 0.12531 0.113226 0
  endloop
 endfacet
 facet normal -0.538665 -0.84252 -0.000483967
  outer loop
   vertex 0.124361 0.113827 0.01
   vertex 0.12531 0.113226 0
   vertex 0.126277 0.112602 0.01
  endloop
 endfacet
 facet normal 0.545456 0.838139 -0.000446015
  outer loop
   vertex 0.12531 0.113226 0
   vertex 0.126277 0.112602 0.01
   vertex 0.127263 0.111955 0
  endloop
 endfacet
 facet normal -0.55199 -0.83385 -0.000475776
  outer loop
   vertex 0.126277 0.112602 0.01
   vertex 0.127263 0.111955 0
   vertex 0.128268 0.111284 0.01
  endloop
 endfacet
 facet normal 0.558186 0.829716 -0.000424338
  outer loop
   vertex 0.127263 0.111955 0
   vertex 0.128268 0.111284 0.01
   vertex 0.129292 0.11059 0
  endloop
 endfacet
 facet normal -0.564341 -0.825542 -0.000495583
  outer loop
   vertex 0.128268 0.111284 0.01
   vertex 0.129292 0.11059 0
   vertex 0.130335 0.109871 0.01
  endloop
 endfacet
 facet normal 0.570264 0.821462 -0.000415497
  outer loop
   vertex 0.129292 0.11059 0
   vertex 0.130335 0.109871 0.01
   vertex 0.131398 0.109128 0
  endloop
 endfacet
 facet normal -0.57607 -0.8174 -0.000503564
  outer loop
   vertex 0.130335 0.109871 0.01
   vertex 0.131398 0.109128 0
   vertex 0.132479 0.10836 0.01
  endloop
 endfacet
 facet normal 0.582085 0.813128 -0.000474727
  outer loop
   vertex 0.131398 0.109128 0
   vertex 0.132479 0.10836 0.01
   vertex 0.13358 0.107566 0
  endloop
 endfacet
 facet normal -0.587456 -0.809256 -0.000424058
  outer loop
   vertex 0.132479 0.10836 0.01
   vertex 0.13358 0.107566 0
   vertex 0.134701 0.106747 0.01
  endloop
 endfacet
 facet normal 0.592336 0.805691 -0.000415022
  outer loop
   vertex 0.13358 0.107566 0
   vertex 0.134701 0.106747 0.01
   vertex 0.135842 0.105903 0
  endloop
 endfacet
 facet normal -0.597374 -0.801962 -0.000474434
  outer loop
   vertex 0.134701 0.106747 0.01
   vertex 0.135842 0.105903 0
   vertex 0.137002 0.105033 0.01
  endloop
 endfacet
 facet normal 0.602397 0.798196 -0.000435887
  outer loop
   vertex 0.135842 0.105903 0
   vertex 0.137002 0.105033 0.01
   vertex 0.138182 0.104137 0
  endloop
 endfacet
 facet normal -0.606979 -0.794717 -0.00041651
  outer loop
   vertex 0.137002 0.105033 0.01
   vertex 0.138182 0.104137 0
   vertex 0.139381 0.103216 0.01
  endloop
 endfacet
 facet normal 0.611197 0.791478 -0.000387555
  outer loop
   vertex 0.138182 0.104137 0
   vertex 0.139381 0.103216 0.01
   vertex 0.140601 0.102269 0
  endloop
 endfacet
 facet normal -0.615273 -0.788314 -0.000409258
  outer loop
   vertex 0.139381 0.103216 0.01
   vertex 0.140601 0.102269 0
   vertex 0.141841 0.101296 0.01
  endloop
 endfacet
 facet normal 0.619123 0.785294 -0.000361986
  outer loop
   vertex 0.140601 0.102269 0
   vertex 0.141841 0.101296 0.01
   vertex 0.143101 0.100298 0
  endloop
 endfacet
 facet normal -0.622587 -0.782551 -0.000348325
  outer loop
   vertex 0.141841 0.101296 0.01
   vertex 0.143101 0.100298 0
   vertex 0.14438 0.099276 0.01
  endloop
 endfacet
 facet normal 0.625914 0.779892 -0.000348905
  outer loop
   vertex 0.143101 0.100298 0
   vertex 0.14438 0.099276 0.01
   vertex 0.145679 0.098229 0
  endloop
 endfacet
 facet normal -0.62878 -0.777584 -0.000265054
  outer loop
   vertex 0.14438 0.099276 0.01
   vertex 0.145679 0.098229 0
   vertex 0.146998 0.097159 0.01
  endloop
 endfacet
 facet normal 0.63136 0.77549 -0.000299247
  outer loop
   vertex 0.145679 0.098229 0
   vertex 0.146998 0.097159 0.01
   vertex 0.148337 0.096065 0
  endloop
 endfacet
 facet normal -0.634128 -0.773228 -0.000318948
  outer loop
   vertex 0.146998 0.097159 0.01
   vertex 0.148337 0.096065 0
   vertex 0.149694 0.094948 0.01
  endloop
 endfacet
 facet normal 0.636292 0.771448 -0.000173462
  outer loop
   vertex 0.148337 0.096065 0
   vertex 0.149694 0.094948 0.01
   vertex 0.151071 0.09381 0
  endloop
 endfacet
 facet normal -0.637914 -0.770108 -0.000202463
  outer loop
   vertex 0.149694 0.094948 0.01
   vertex 0.151071 0.09381 0
   vertex 0.152467 0.092651 0.01
  endloop
 endfacet
 facet normal 0.639592 0.768715 -0.000193247
  outer loop
   vertex 0.151071 0.09381 0
   vertex 0.152467 0.092651 0.01
   vertex 0.153881 0.091472 0
  endloop
 endfacet
 facet normal -0.640874 -0.767646 -0.000114098
  outer loop
   vertex 0.152467 0.092651 0.01
   vertex 0.153881 0.091472 0
   vertex 0.155313 0.090275 0.01
  endloop
 endfacet
 facet normal 0.641936 0.766758 -0.000144103
  outer loop
   vertex 0.153881 0.091472 0
   vertex 0.155313 0.090275 0.01
   vertex 0.156762 0.08906 0
  endloop
 endfacet
 facet normal -0.642816 -0.76602 -7.31276e-05
  outer loop
   vertex 0.155313 0.090275 0.01
   vertex 0.156762 0.08906 0
   vertex 0.158229 0.087828 0.01
  endloop
 endfacet
 facet normal 0.643167 0.765726 -1.47393e-05
  outer loop
   vertex 0.156762 0.08906 0
   vertex 0.158229 0.087828 0.01
   vertex 0.159711 0.086583 0
  endloop
 endfacet
 facet normal -0.643312 -0.765604 -2.18998e-05
  outer loop
   vertex 0.158229 0.087828 0.01
   vertex 0.159711 0.086583 0
   vertex 0.161209 0.085324 0.01
  endloop
 endfacet
 facet normal 0.643305 0.76561 2.37488e-05
  outer loop
   vertex 0.159711 0.086583 0
   vertex 0.161209 0.085324 0.01
   vertex 0.162722 0.084053 0
  endloop
 endfacet
 facet normal -0.642807 -0.766028 0.000104705
  outer loop
   vertex 0.161209 0.085324 0.01
   vertex 0.162722 0.084053 0
   vertex 0.164249 0.082773 0.01
  endloop
 endfacet
 facet normal 0.641979 0.766722 0.000110611
  outer loop
   vertex 0.162722 0.084053 0
   vertex 0.164249 0.082773 0.01
   vertex 0.165789 0.081485 0
  endloop
 endfacet
 facet normal -0.640942 -0.767589 0.000160744
  outer loop
   vertex 0.164249 0.082773 0.01
   vertex 0.165789 0.081485 0
   vertex 0.16734 0.080192 0.01
  endloop
 endfacet
 facet normal 0.639456 0.768828 0.000230011
  outer loop
   vertex 0.165789 0.081485 0
   vertex 0.16734 0.080192 0.01
   vertex 0.168903 0.078895 0
  endloop
 endfacet
 facet normal -0.637764 -0.770232 0.000216431
  outer loop
   vertex 0.16734 0.080192 0.01
   vertex 0.168903 0.078895 0
   vertex 0.170474 0.077597 0.01
  endloop
 endfacet
 facet normal 0.635716 0.771923 0.000324903
  outer loop
   vertex 0.168903 0.078895 0
   vertex 0.170474 0.077597 0.01
   vertex 0.172054 0.0763 0
  endloop
 endfacet
 facet normal -0.633211 -0.773979 0.000337645
  outer loop
   vertex 0.170474 0.077597 0.01
   vertex 0.172054 0.0763 0
   vertex 0.173641 0.075006 0.01
  endloop
 endfacet
 facet normal 0.630575 0.776128 0.00035866
  outer loop
   vertex 0.172054 0.0763 0
   vertex 0.173641 0.075006 0.01
   vertex 0.175232 0.073718 0
  endloop
 endfacet
 facet normal -0.627255 -0.778813 0.00051536
  outer loop
   vertex 0.173641 0.075006 0.01
   vertex 0.175232 0.073718 0
   vertex 0.176827 0.07244 0.01
  endloop
 endfacet
 facet normal 0.623558 0.781777 0.000453091
  outer loop
   vertex 0.175232 0.073718 0
   vertex 0.176827 0.07244 0.01
   vertex 0.178424 0.071172 0
  endloop
 endfacet
 facet normal -0.619675 -0.784858 0.000557632
  outer loop
   vertex 0.176827 0.07244 0.01
   vertex 0.178424 0.071172 0
   vertex 0.18002 0.069919 0.01
  endloop
 endfacet
 facet normal 0.615002 0.788525 0.000647838
  outer loop
   vertex 0.178424 0.071172 0
   vertex 0.18002 0.069919 0.01
   vertex 0.181614 0.068684 0
  endloop
 endfacet
 facet normal -0.609988 -0.792411 0.000631245
  outer loop
   vertex 0.18002 0.069919 0.01
   vertex 0.181614 0.068684 0
   vertex 0.183204 0.067468 0.01
  endloop
 endfacet
 facet normal 0.604566 0.796555 0.000734663
  outer loop
   vertex 0.181614 0.068684 0
   vertex 0.183204 0.067468 0.01
   vertex 0.184788 0.066275 0
  endloop
 endfacet
 facet normal -0.598456 -0.801155 0.000781961
  outer loop
   vertex 0.183204 0.067468 0.01
   vertex 0.184788 0.066275 0
   vertex 0.186362 0.065109 0.01
  endloop
 endfacet
 facet normal 0.591833 0.80606 0.000832578
  outer loop
   vertex 0.184788 0.066275 0
   vertex 0.186362 0.065109 0.01
   vertex 0.187926 0.063971 0
  endloop
 endfacet
 facet normal -0.584462 -0.811421 0.000930195
  outer loop
   vertex 0.186362 0.065109 0.01
   vertex 0.187926 0.063971 0
   vertex 0.189476 0.062866 0.01
  endloop
 endfacet
 facet normal 0.576339 0.81721 0.000968595
  outer loop
   vertex 0.187926 0.063971 0
   vertex 0.189476 0.062866 0.01
   vertex 0.19101 0.061796 0
  endloop
 endfacet
 facet normal -0.567903 -0.823095 0.000955187
  outer loop
   vertex 0.189476 0.062866 0.01
   vertex 0.19101 0.061796 0
   vertex 0.192524 0.060763 0.01
  endloop
 endfacet
 facet normal 0.558258 0.829667 0.00118392
  outer loop
   vertex 0.19101 0.061796 0
   vertex 0.192524 0.060763 0.01
   vertex 0.194018 0.059772 0
  endloop
 endfacet
 facet normal -0.547578 -0.836754 0.00111407
  outer loop
   vertex 0.192524 0.060763 0.01
   vertex 0.194018 0.059772 0
   vertex 0.195487 0.058824 0.01
  endloop
 endfacet
 facet normal 0.536371 0.843982 0.00121743
  outer loop
   vertex 0.194018 0.059772 0
   vertex 0.195487 0.058824 0.01
   vertex 0.196929 0.057922 0
  endloop
 endfacet
 facet normal -0.523813 -0.851832 0.00130148
  outer loop
   vertex 0.195487 0.058824 0.01
   vertex 0.196929 0.057922 0
   vertex 0.198341 0.057069 0.01
  endloop
 endfacet
 facet normal 0.509911 0.860226 0.00137749
  outer loop
   vertex 0.196929 0.057922 0
   vertex 0.198341 0.057069 0.01
   vertex 0.199721 0.056267 0
  endloop
 endfacet
 facet normal -0.494693 -0.869067 0.00143159
  outer loop
   vertex 0.198341 0.057069 0.01
   vertex 0.199721 0.056267 0
   vertex 0.201064 0.055519 0.01
  endloop
 endfacet
 facet normal 0.478246 0.878225 0.00146231
  outer loop
   vertex 0.199721 0.056267 0
   vertex 0.201064 0.055519 0.01
   vertex 0.202369 0.054825 0
  endloop
 endfacet
 facet normal -0.460298 -0.887763 0.00154188
  outer loop
   vertex 0.201064 0.055519 0.01
   vertex 0.202369 0.054825 0
   vertex 0.203633 0.054187 0.01
  endloop
 endfacet
 facet normal 0.440404 0.897798 0.00161296
  outer loop
   vertex 0.202369 0.054825 0
   vertex 0.203633 0.054187 0.01
   vertex 0.204852 0.053607 0
  endloop
 endfacet
 facet normal -0.418574 -0.908181 0.00165024
  outer loop
   vertex 0.203633 0.054187 0.01
   vertex 0.204852 0.053607 0
   vertex 0.206024 0.053085 0.01
  endloop
 endfacet
 facet normal 0.394545 0.918875 0.00172421
  outer loop
   vertex 0.204852 0.053607 0
   vertex 0.206024 0.053085 0.01
   vertex 0.207146 0.052622 0
  endloop
 endfacet
 facet normal -0.368683 -0.929554 0.00167201
  outer loop
   vertex 0.206024 0.053085 0.01
   vertex 0.207146 0.052622 0
   vertex 0.208215 0.052216 0.01
  endloop
 endfacet
 facet normal 0.339821 0.940488 0.0018572
  outer loop
   vertex 0.207146 0.052622 0
   vertex 0.208215 0.052216 0.01
   vertex 0.20923 0.051869 0
  endloop
 endfacet
 facet normal -0.308255 -0.951302 0.00172199
  outer loop
   vertex 0.208215 0.052216 0.01
   vertex 0.20923 0.051869 0
   vertex 0.210187 0.051577 0.01
  endloop
 endfacet
 facet normal 0.275201 0.961385 0.00173572
  outer loop
   vertex 0.20923 0.051869 0
   vertex 0.210187 0.051577 0.01
   vertex 0.211085 0.051338 0
  endloop
 endfacet
 facet normal -0.238451 -0.971153 0.0017979
  outer loop
   vertex 0.210187 0.051577 0.01
   vertex 0.211085 0.051338 0
   vertex 0.211922 0.051151 0.01
  endloop
 endfacet
 facet normal 0.199506 0.979895 0.00162529
  outer loop
   vertex 0.211085 0.051338 0
   vertex 0.211922 0.051151 0.01
   vertex 0.212696 0.05101 0
  endloop
 endfacet
 facet normal -0.15965 -0.987172 0.00156212
  outer loop
   vertex 0.211922 0.051151 0.01
   vertex 0.212696 0.05101 0
   vertex 0.213406 0.050911 0.01
  endloop
 endfacet
 facet normal 0.117989 0.993014 0.0014536
  outer loop
   vertex 0.212696 0.05101 0
   vertex 0.213406 0.050911 0.01
   vertex 0.214051 0.050849 0
  endloop
 endfacet
 facet normal -0.078192 -0.996938 0.00113765
  outer loop
   vertex 0.213406 0.050911 0.01
   vertex 0.214051 0.050849 0
   vertex 0.21463 0.050815 0.01
  endloop
 endfacet
 facet normal 0.0430022 0.999075 0.0009071
  outer loop
   vertex 0.214051 0.050849 0
   vertex 0.21463 0.050815 0.01
   vertex 0.215143 0.050802 0
  endloop
 endfacet
 facet normal -0.0155924 -0.999878 0.000500076
  outer loop
   vertex 0.21463 0.050815 0.01
   vertex 0.215143 0.050802 0
   vertex 0.215592 0.0508 0.01
  endloop
 endfacet
 facet normal 0.00445535 0.99999 0
  outer loop
   vertex 0.215143 0.050802 0
   vertex 0.215592 0.0508 0.01
   vertex 0.215592 0.0508 0
  endloop
 endfacet
 facet normal 0 -1 0
  outer loop
   vertex 0.215592 0.0508 0.01
   vertex 0.215592 0.0508 0
   vertex 0.317192 0.0508 0.01
  endloop
 endfacet
 facet normal 0 1 0
  outer loop
   vertex 0.215592 0.0508 0
   vertex 0.317192 0.0508 0.01
   vertex 0.317192 0.0508 0
  endloop
 endfacet
 facet normal 0 1 0
  outer loop
   vertex 0.158596 0.131322 0.01
   vertex 0.158596 0.131322 0
   vertex 0.124482 0.131322 0.01
  endloop
 endfacet
 facet normal 0 -1 0
  outer loop
   vertex 0.158596 0.131322 0
   vertex 0.124482 0.131322 0.01
   vertex 0.124482 0.131322 0
  endloop
 endfacet
endsolid test_0
solid test_1
 facet normal -1 -0 -0
  outer loop
   vertex 0.317192 0.0508 0.01
   vertex 0.317192 0.0508 0
   vertex 0.317192 0 0.01
  endloop
 endfacet
 facet normal 1 0 0
  outer loop
   vertex 0.317192 0.0508 0
   vertex 0.317192 0 0.01
   vertex 0.317192 0 0
  endloop
 endfacet
endsolid test_1
solid test_2
 facet normal 0 1 0
  outer loop
   vertex 0.317192 0 0.01
   vertex 0.317192 0 0
   vertex 0 0 0.01
  endloop
 endfacet
 facet normal 0 -1 0
  outer loop
   vertex 0.317192 0 0
   vertex 0 0 0.01
   vertex 0 0 0
  endloop
 endfacet
endsolid test_2
solid test_3
 facet normal 1 -0 0
  outer loop
   vertex 0 0 0.01
   vertex 0 0 0
   vertex 0 0.1524 0.01
  endloop
 endfacet
 facet normal -1 0 0
  outer loop
   vertex 0 0 0
   vertex 0 0.1524 0.01
   vertex 0 0.1524 0
  endloop
 endfacet
endsolid test_3
solid test_4
 facet normal 0 -1 0
  outer loop
   vertex 0 0.1524 0.01
   vertex 0 0.1524 0
   vertex 0.158596 0.1524 0.01
  endloop
 endfacet
 facet normal 0 1 0
  outer loop
   vertex 0 0.1524 0
   vertex 0.158596 0.1524 0.01
   vertex 0.158596 0.1524 0
  endloop
 endfacet
endsolid test_4
solid test_5
 facet normal -1 -0 -0
  outer loop
   vertex 0.158596 0.1524 0.01
   vertex 0.158596 0.1524 0
   vertex 0.158596 0.131322 0.01
  endloop
 endfacet
 facet normal 1 0 0
  outer loop
   vertex 0.158596 0.1524 0
   vertex 0.158596 0.131322 0.01
   vertex 0.158596 0.131322 0
  endloop
 endfacet
endsolid test_5
